{
.appVersion = "1075";
DisplayStrings = (
/equal_greater
);
classes = (
{
code = "gravecmb gravecmb.cap variacmb acutecmb acutecmb.cap tonoscmb circumflexcmb circumflexcmb.cap tildecmb tildecmb.cap macroncmb macroncmb.cap overlinecmb overlinecmb.cap brevecmb brevecmb.cyr brevecmb.cap brevecmb.cyrcap dotaccentcmb dotaccentcmb.cap dieresiscmb dieresiscmb.cap hoicmb hoicmb.cap candrabinducmb candrabinducmb.cap ringcmb ringcmb.cap hungarumlautcmb hungarumlautcmb.cap caroncmb caroncmb.cap dblgravecmb dblgravecmb.cap breveinvertedcmb breveinvertedcmb.cap commaturnedabovecmb aspercmb commaabovecmb leniscmb lefttackbelowcmb righttackbelowcmb leftangleabovecmb horncmb ringhalfleftbelowcmb uptackbelowcmb downtackbelowcmb plusbelowcmb minusbelowcmb dotbelowcmb dieresisbelowcmb ringbelowcmb commabelowcmb commabelowcmb.a cedillacmb cedillacmb.cap ogonekcmb ogonekcmb.cap verticallinebelowcmb bridgebelowcmb caronbelowcmb brevebelowcmb breveinvertedbelowcmb tildebelowcmb macronbelowcmb tildeoverlaycmb ringhalfrightbelowcmb bridgeinvertedbelowcmb squarebelowcmb seagullbelowcmb xabovecmb perispomenicmb perispomenicmb.cap iotasubscriptcmb dieresisacutecmb dieresisacutecmb.cap dieresistonoscmb dieresisgravecmb dieresisgravecmb.cap dialytikagravecmb dieresistildecmb dieresismacroncmb dieresismacroncmb.cap dieresiscaroncmb dieresiscaroncmb.cap circumflexacutecmb circumflexacutecmb.cap circumflexgravecmb circumflexgravecmb.cap circumflexhoicmb circumflexhoicmb.cap circumflextildecmb circumflextildecmb.cap breveacutecmb breveacutecmb.cap brevegravecmb brevegravecmb.cap brevehoicmb brevehoicmb.cap brevetildecmb brevetildecmb.cap circumflexbrevecmb circumflexbrevecmb.cap macronacutecmb macronacutecmb.cap carondotaccentcmb carondotaccentcmb.cap asperacutecmb aspergravecmb aspertildecmb lenisacutecmb lenisgravecmb lenistildecmb";
name = COMBINING_MARKS;
}
);
copyright = "Copyright 2010 - 2012 Adobe Systems Incorporated. All Rights Reserved.";
customParameters = (
{
name = glyphOrder;

glyphs = (
{
glyphname = .notdef;
lastChange = "2018-01-30 22:59:42 +0000";
layers = (
{
layerId = "39876626-1A8B-482E-A4B0-28EC916B81A3";
paths = (
{
closed = 1;
nodes = (
"84 0 LINE",
"516 0 LINE",
"516 660 LINE",
"84 660 LINE"
);
},
{
closed = 1;
nodes = (
"132 32 LINE",
"234 208 LINE",
"298 314 LINE",
"302 314 LINE",
"364 208 LINE",
"464 32 LINE"
);
},
{
closed = 1;
nodes = (
"122 74 LINE",
"122 610 LINE",
"276 340 LINE"
);
},
{
closed = 1;
nodes = (
"298 366 LINE",
"242 458 LINE",
"148 626 LINE",
"450 626 LINE",
"356 458 LINE",
"302 366 LINE"
);
},
{
closed = 1;
nodes = (
"324 340 LINE",
"476 610 LINE",
"476 74 LINE"
);
}
);
width = 600;
}
);
},
{
glyphname = A;
lastChange = "2018-01-30 22:59:42 +0000";
layers = (
{
anchors = (
{
name = aboveUC;
position = "{300, 680}";
},
{
name = baseLC;
position = "{524, 0}";
},
{
name = belowLC;
position = "{300, -20}";
},
{
name = "ogonekCXT-ATH";
position = "{300, 0}";
},
{
name = ogonekUC;
position = "{512, 0}";
}
);
layerId = "39876626-1A8B-482E-A4B0-28EC916B81A3";
paths = (
{
closed = 1;
nodes = (
"50 0 LINE",
"82 0 LINE",
"222 396 LINE SMOOTH",
"250 476 OFFCURVE",
"274 544 OFFCURVE",
"298 626 CURVE",
"302 626 LINE",
"326 544 OFFCURVE",
"350 476 OFFCURVE",
"378 396 CURVE SMOOTH",
"516 0 LINE",
"550 0 LINE",
"314 660 LINE",
"286 660 LINE"
);
},
{
closed = 1;
nodes = (
"152 236 LINE",
"445 236 LINE",
"445 264 LINE",
"152 264 LINE"
);
}
);
width = 600;
}
);
unicode = 0041;
},
{
glyphname = B;
lastChange = "2018-01-30 22:59:42 +0000";
layers = (
{
anchors = (
{
name = aboveUC;
position = "{296, 680}";
},
{
name = belowLC;
position = "{305, -20}";
}
);
layerId = "39876626-1A8B-482E-A4B0-28EC916B81A3";
paths = (
{
closed = 1;
nodes = (
"120 0 LINE",
"292 0 LINE SMOOTH",
"446 0 OFFCURVE",
"534 66 OFFCURVE",
"534 192 CURVE SMOOTH",
"534 284 OFFCURVE",
"473 338 OFFCURVE",
"375 352 CURVE",
"375 356 LINE",
"453 376 OFFCURVE",
"492 430 OFFCURVE",
"492 500 CURVE SMOOTH",
"492 608 OFFCURVE",
"416 660 OFFCURVE",
"280 660 CURVE SMOOTH",
"120 660 LINE"
);
},
{
closed = 1;
nodes = (
"152 366 LINE",
"152 632 LINE",
"266 632 LINE SMOOTH",
"398 632 OFFCURVE",
"460 594 OFFCURVE",
"460 500 CURVE SMOOTH",
"460 412 OFFCURVE",
"404 366 OFFCURVE",
"260 366 CURVE SMOOTH"
);
},
{
closed = 1;
nodes = (
"152 28 LINE",
"152 338 LINE",
"280 338 LINE SMOOTH",
"422 338 OFFCURVE",
"502 290 OFFCURVE",
"502 190 CURVE SMOOTH",
"502 78 OFFCURVE",
"422 28 OFFCURVE",
"280 28 CURVE SMOOTH"
);
}
);
width = 600;
}
);
unicode = 0042;
},
{
glyphname = C;
lastChange = "2018-01-30 22:59:42 +0000";
layers = (
{
anchors = (
{
name = aboveUC;
position = "{340, 680}";
},
{
name = baseLC;
position = "{356, 0}";
},
{
name = belowLC;
position = "{346, -20}";
}
);
layerId = "39876626-1A8B-482E-A4B0-28EC916B81A3";
paths = (
{
closed = 1;
nodes = (
"347 -12 CURVE SMOOTH",
"433 -12 OFFCURVE",
"491 24 OFFCURVE",
"541 82 CURVE",
"521 102 LINE",
"471 46 OFFCURVE",
"419 18 OFFCURVE",
"349 18 CURVE SMOOTH",
"201 18 OFFCURVE",
"108 142 OFFCURVE",
"108 332 CURVE SMOOTH",
"108 522 OFFCURVE",
"201 642 OFFCURVE",
"353 642 CURVE SMOOTH",
"415 642 OFFCURVE",
"465 614 OFFCURVE",
"501 572 CURVE",
"521 594 LINE",
"487 634 OFFCURVE",
"429 672 OFFCURVE",
"353 672 CURVE SMOOTH",
"185 672 OFFCURVE",
"74 540 OFFCURVE",
"74 332 CURVE SMOOTH",
"74 124 OFFCURVE",
"185 -12 OFFCURVE"
);
}
);
width = 600;
}
);
unicode = 0043;
},
{
glyphname = D;
lastChange = "2018-01-30 22:59:42 +0000";
layers = (
{
anchors = (
{
name = aboveUC;
position = "{300, 680}";
},
{
name = baseLC;
position = "{290, 0}";
},
{
name = belowLC;
position = "{290, -20}";
}
);
layerId = "39876626-1A8B-482E-A4B0-28EC916B81A3";
paths = (
{
closed = 1;
nodes = (
"100 0 LINE",
"248 0 LINE SMOOTH",
"452 0 OFFCURVE",
"544 136 OFFCURVE",
"544 332 CURVE SMOOTH",
"544 528 OFFCURVE",
"452 660 OFFCURVE",
"248 660 CURVE SMOOTH",
"100 660 LINE"
);
},
{
closed = 1;
nodes = (
"132 28 LINE",
"132 632 LINE",
"244 632 LINE SMOOTH",
"432 632 OFFCURVE",
"510 506 OFFCURVE",
"510 332 CURVE SMOOTH",
"510 158 OFFCURVE",
"432 28 OFFCURVE",
"244 28 CURVE SMOOTH"
);
}
);
width = 600;
}
);
unicode = 0044;
},
{
glyphname = E;
lastChange = "2018-01-30 22:59:42 +0000";
layers = (
{
anchors = (
{
name = aboveUC;
position = "{338, 680}";
},
{
name = baseLC;
position = "{330, 0}";
},
{
name = belowLC;
position = "{340, -20}";
},
{
name = "ogonekCXT-ATH";
position = "{340, 0}";
},
{
name = ogonekUC;
position = "{430, 0}";
}
);
layerId = "39876626-1A8B-482E-A4B0-28EC916B81A3";
paths = (
{
closed = 1;
nodes = (
"132 0 LINE",
"526 0 LINE",
"526 28 LINE",
"164 28 LINE",
"164 338 LINE",
"460 338 LINE",
"460 366 LINE",
"164 366 LINE",
"164 632 LINE",
"516 632 LINE",
"516 660 LINE",
"132 660 LINE"
);
}
);
width = 600;
}
);
unicode = 0045;
},
{
glyphname = F;
lastChange = "2018-01-30 22:59:42 +0000";
layers = (
{
anchors = (
{
name = aboveUC;
position = "{349, 680}";
},
{
name = baseLC;
position = "{164, 0}";
},
{
name = belowLC;
position = "{181, -20}";
}
);
layerId = "39876626-1A8B-482E-A4B0-28EC916B81A3";
paths = (
{
closed = 1;
nodes = (
"156 0 LINE",
"188 0 LINE",
"188 326 LINE",
"479 326 LINE",
"479 354 LINE",
"188 354 LINE",
"188 632 LINE",
"534 632 LINE",
"534 660 LINE",
"156 660 LINE"
);
}
);
width = 600;
}
);
unicode = 0046;
},
{
glyphname = G;
lastChange = "2018-01-30 22:59:42 +0000";
layers = (
{
anchors = (
{
name = aboveUC;
position = "{330, 680}";
},
{
name = belowLC;
position = "{336, -20}";
}
);
layerId = "39876626-1A8B-482E-A4B0-28EC916B81A3";
paths = (
{
closed = 1;
nodes = (
"333 -12 CURVE SMOOTH",
"418 -12 OFFCURVE",
"482 18 OFFCURVE",
"522 62 CURVE",
"522 318 LINE",
"329 318 LINE",
"329 290 LINE",
"489 290 LINE",
"489 72 LINE",
"456 38 OFFCURVE",
"398 18 OFFCURVE",
"335 18 CURVE SMOOTH",
"185 18 OFFCURVE",
"95 142 OFFCURVE",
"95 332 CURVE SMOOTH",
"95 522 OFFCURVE",
"189 642 OFFCURVE",
"343 642 CURVE SMOOTH",
"415 642 OFFCURVE",
"462 610 OFFCURVE",
"496 572 CURVE",
"516 594 LINE",
"482 630 OFFCURVE",
"429 672 OFFCURVE",
"343 672 CURVE SMOOTH",
"173 672 OFFCURVE",
"61 540 OFFCURVE",
"61 332 CURVE SMOOTH",
"61 124 OFFCURVE",
"169 -12 OFFCURVE"
);
}
);
width = 600;
}
);
unicode = 0047;
},
{
glyphname = H;
lastChange = "2018-01-30 22:59:42 +0000";
layers = (
{
anchors = (
{
name = aboveUC;
position = "{300, 680}";
},
{
name = baseLC;
position = "{108, 0}";
},
{
name = belowLC;
position = "{300, -20}";
}
);
layerId = "39876626-1A8B-482E-A4B0-28EC916B81A3";
paths = (
{
closed = 1;
nodes = (
"92 0 LINE",
"124 0 LINE",
"124 338 LINE",
"476 338 LINE",
"476 0 LINE",
"508 0 LINE",
"508 660 LINE",
"476 660 LINE",
"476 366 LINE",
"124 366 LINE",
"124 660 LINE",
"92 660 LINE"
);
}
);
width = 600;
}
);
unicode = 0048;
},
{
glyphname = I;
lastChange = "2018-01-30 22:59:42 +0000";
layers = (
{
anchors = (
{
name = aboveUC;
position = "{300, 680}";
},
{
name = baseLC;
position = "{300, 0}";
},
{
name = belowLC;
position = "{300, -20}";
},
{
name = ogonekUC;
position = "{300, 0}";
}
);
layerId = "39876626-1A8B-482E-A4B0-28EC916B81A3";
paths = (
{
closed = 1;
nodes = (
"112 0 LINE",
"488 0 LINE",
"488 28 LINE",
"316 28 LINE",
"316 632 LINE",
"488 632 LINE",
"488 660 LINE",
"112 660 LINE",
"112 632 LINE",
"284 632 LINE",
"284 28 LINE",
"112 28 LINE"
);
}
);
width = 600;
}
);
unicode = 0049;
},
{
glyphname = J;
lastChange = "2018-01-30 22:59:42 +0000";
layers = (
{
anchors = (
{
name = aboveUC;
position = "{320, 680}";
},
{
name = belowLC;
position = "{300, -20}";
}
);
layerId = "39876626-1A8B-482E-A4B0-28EC916B81A3";
paths = (
{
closed = 1;
nodes = (
"278 -12 CURVE SMOOTH",
"427 -12 OFFCURVE",
"475 83 OFFCURVE",
"475 201 CURVE SMOOTH",
"475 661 LINE",
"152 661 LINE",
"152 634 LINE",
"443 634 LINE",
"443 204 LINE SMOOTH",
"443 80 OFFCURVE",
"394 18 OFFCURVE",
"278 18 CURVE SMOOTH",
"222 18 OFFCURVE",
"162 48 OFFCURVE",
"124 116 CURVE",
"98 98 LINE",
"134 26 OFFCURVE",
"204 -12 OFFCURVE"
);
}
);
width = 600;
}
);
unicode = 004A;
},
{
glyphname = K;
lastChange = "2018-01-30 22:59:42 +0000";
layers = (
{
anchors = (
{
name = aboveUC;
position = "{329, 680}";
},
{
name = belowLC;
position = "{349, -20}";
}
);
layerId = "39876626-1A8B-482E-A4B0-28EC916B81A3";
paths = (
{
closed = 1;
nodes = (
"122 0 LINE",
"154 0 LINE",
"154 234 LINE",
"539 660 LINE",
"500 660 LINE",
"156 280 LINE",
"154 280 LINE",
"154 660 LINE",
"122 660 LINE"
);
},
{
closed = 1;
nodes = (
"530 0 LINE",
"568 0 LINE",
"308 444 LINE",
"286 418 LINE"
);
}
);
width = 600;
}
);
unicode = 004B;
},
{
glyphname = L;
lastChange = "2018-01-30 22:59:42 +0000";
layers = (
{
anchors = (
{
name = aboveUC;
position = "{186, 680}";
},
{
name = baseLC;
position = "{360, 0}";
},
{
name = belowLC;
position = "{360, -20}";
},
{
name = center;
position = "{174, 330}";
}
);
layerId = "39876626-1A8B-482E-A4B0-28EC916B81A3";
paths = (
{
closed = 1;
nodes = (
"156 0 LINE",
"538 0 LINE",
"538 28 LINE",
"186 28 LINE",
"186 660 LINE",
"156 660 LINE"
);
}
);
width = 600;
}
);
unicode = 004C;
},
{
glyphname = M;
lastChange = "2018-01-30 22:59:42 +0000";
layers = (
{
anchors = (
{
name = aboveUC;
position = "{300, 680}";
},
{
name = baseLC;
position = "{490, 0}";
},
{
name = belowLC;
position = "{300, -20}";
}
);
layerId = "39876626-1A8B-482E-A4B0-28EC916B81A3";
paths = (
{
closed = 1;
nodes = (
"84 0 LINE",
"115 0 LINE",
"115 495 LINE SMOOTH",
"115 536 OFFCURVE",
"112 582 OFFCURVE",
"111 623 CURVE",
"113 623 LINE",
"152 516 LINE",
"286 176 LINE",
"313 176 LINE",
"448 516 LINE",
"484 623 LINE",
"487 623 LINE",
"486 582 OFFCURVE",
"484 536 OFFCURVE",
"484 495 CURVE SMOOTH",
"484 0 LINE",
"516 0 LINE",
"516 660 LINE",
"470 660 LINE",
"344 340 LINE",
"302 222 LINE",
"298 222 LINE",
"254 340 LINE",
"130 660 LINE",
"84 660 LINE"
);
}
);
width = 600;
}
);
unicode = 004D;
},
{
glyphname = N;
lastChange = "2018-01-30 22:59:42 +0000";
layers = (
{
anchors = (
{
name = aboveUC;
position = "{310, 680}";
},
{
name = baseLC;
position = "{480, 0}";
},
{
name = belowLC;
position = "{300, -20}";
}
);
layerId = "39876626-1A8B-482E-A4B0-28EC916B81A3";
paths = (
{
closed = 1;
nodes = (
"96 0 LINE",
"126 0 LINE",
"126 433 LINE SMOOTH",
"126 495 OFFCURVE",
"123 551 OFFCURVE",
"122 614 CURVE",
"124 614 LINE",
"197 486 LINE",
"471 0 LINE",
"504 0 LINE",
"504 660 LINE",
"474 660 LINE",
"474 231 LINE SMOOTH",
"474 169 OFFCURVE",
"477 109 OFFCURVE",
"478 46 CURVE",
"476 46 LINE",
"403 174 LINE",
"129 660 LINE",
"96 660 LINE"
);
}
);
width = 600;
}
);
unicode = 004E;
},
{
glyphname = O;
lastChange = "2018-01-30 22:59:42 +0000";
layers = (
{
anchors = (
{
name = aboveUC;
position = "{300, 680}";
},
{
name = baseLC;
position = "{300, 0}";
},
{
name = belowLC;
position = "{300, -20}";
},
{
name = hornLC;
position = "{416, 650}";
},
{
name = ogonekUC;
position = "{300, 0}";
}
);
layerId = "39876626-1A8B-482E-A4B0-28EC916B81A3";
paths = (
{
closed = 1;
nodes = (
"300 -12 CURVE SMOOTH",
"442 -12 OFFCURVE",
"544 124 OFFCURVE",
"544 332 CURVE SMOOTH",
"544 540 OFFCURVE",
"442 672 OFFCURVE",
"300 672 CURVE SMOOTH",
"158 672 OFFCURVE",
"56 540 OFFCURVE",
"56 332 CURVE SMOOTH",
"56 124 OFFCURVE",
"158 -12 OFFCURVE"
);
},
{
closed = 1;
nodes = (
"300 18 CURVE SMOOTH",
"175 18 OFFCURVE",
"90 142 OFFCURVE",
"90 332 CURVE SMOOTH",
"90 522 OFFCURVE",
"175 642 OFFCURVE",
"300 642 CURVE SMOOTH",
"425 642 OFFCURVE",
"510 522 OFFCURVE",
"510 332 CURVE SMOOTH",
"510 142 OFFCURVE",
"425 18 OFFCURVE"
);
}
);
width = 600;
}
);
unicode = 004F;
},
{
glyphname = P;
lastChange = "2018-01-30 22:59:42 +0000";
layers = (
{
anchors = (
{
name = aboveUC;
position = "{320, 680}";
},
{
name = belowLC;
position = "{140, -20}";
}
);
layerId = "39876626-1A8B-482E-A4B0-28EC916B81A3";
paths = (
{
closed = 1;
nodes = (
"124 0 LINE",
"156 0 LINE",
"156 292 LINE",
"296 292 LINE SMOOTH",
"444 292 OFFCURVE",
"528 354 OFFCURVE",
"528 480 CURVE SMOOTH",
"528 612 OFFCURVE",
"444 660 OFFCURVE",
"296 660 CURVE SMOOTH",
"124 660 LINE"
);
},
{
closed = 1;
nodes = (
"156 320 LINE",
"156 632 LINE",
"284 632 LINE SMOOTH",
"426 632 OFFCURVE",
"494 596 OFFCURVE",
"494 480 CURVE SMOOTH",
"494 366 OFFCURVE",
"426 320 OFFCURVE",
"284 320 CURVE SMOOTH"
);
}
);
width = 600;
}
);
unicode = 0050;
},
{
glyphname = Q;
lastChange = "2018-01-30 22:59:42 +0000";
layers = (
{
anchors = (
{
name = aboveUC;
position = "{300, 694}";
}
);
layerId = "39876626-1A8B-482E-A4B0-28EC916B81A3";
paths = (
{
closed = 1;
nodes = (
"300 -12 CURVE SMOOTH",
"442 -12 OFFCURVE",
"544 124 OFFCURVE",
"544 332 CURVE SMOOTH",
"544 540 OFFCURVE",
"442 672 OFFCURVE",
"300 672 CURVE SMOOTH",
"158 672 OFFCURVE",
"56 540 OFFCURVE",
"56 332 CURVE SMOOTH",
"56 124 OFFCURVE",
"158 -12 OFFCURVE"
);
},
{
closed = 1;
nodes = (
"300 16 CURVE SMOOTH",
"175 16 OFFCURVE",
"90 140 OFFCURVE",
"90 332 CURVE SMOOTH",
"90 522 OFFCURVE",
"175 642 OFFCURVE",
"300 642 CURVE SMOOTH",
"425 642 OFFCURVE",
"510 522 OFFCURVE",
"510 332 CURVE SMOOTH",
"510 140 OFFCURVE",
"425 16 OFFCURVE"
);
},
{
closed = 1;
nodes = (
"475 -150 CURVE SMOOTH",
"494 -150 OFFCURVE",
"511 -147 OFFCURVE",
"532 -142 CURVE",
"525 -110 LINE",
"514 -114 OFFCURVE",
"499 -117 OFFCURVE",
"479 -117 CURVE SMOOTH",
"389 -117 OFFCURVE",
"335 -74 OFFCURVE",
"315 -4 CURVE",
"279 -5 LINE",
"305 -86 OFFCURVE",
"366 -150 OFFCURVE"
);
}
);
width = 600;
}
);
unicode = 0051;
},
{
glyphname = R;
lastChange = "2018-01-30 22:59:42 +0000";
layers = (
{
anchors = (
{
name = aboveUC;
position = "{306, 680}";
},
{
name = baseLC;
position = "{132, 0}";
},
{
name = belowLC;
position = "{320, -20}";
}
);
layerId = "39876626-1A8B-482E-A4B0-28EC916B81A3";
paths = (
{
closed = 1;
nodes = (
"124 0 LINE",
"156 0 LINE",
"156 312 LINE",
"306 312 LINE SMOOTH",
"436 312 OFFCURVE",
"518 374 OFFCURVE",
"518 490 CURVE SMOOTH",
"518 612 OFFCURVE",
"436 660 OFFCURVE",
"306 660 CURVE SMOOTH",
"124 660 LINE"
);
},
{
closed = 1;
nodes = (
"156 340 LINE",
"156 632 LINE",
"294 632 LINE SMOOTH",
"416 632 OFFCURVE",
"484 594 OFFCURVE",
"484 490 CURVE SMOOTH",
"484 388 OFFCURVE",
"416 340 OFFCURVE",
"294 340 CURVE SMOOTH"
);
},
{
closed = 1;
nodes = (
"298 322 LINE",
"490 0 LINE",
"528 0 LINE",
"334 324 LINE"
);
}
);
width = 600;
}
);
unicode = 0052;
},
{
glyphname = S;
lastChange = "2018-01-30 22:59:42 +0000";
layers = (
{
anchors = (
{
name = aboveUC;
position = "{314, 680}";
},
{
name = baseLC;
position = "{330, 0}";
},
{
name = belowLC;
position = "{320, -20}";
}
);
layerId = "39876626-1A8B-482E-A4B0-28EC916B81A3";
paths = (
{
closed = 1;
nodes = (
"310 -12 CURVE SMOOTH",
"440 -12 OFFCURVE",
"526 62 OFFCURVE",
"526 162 CURVE SMOOTH",
"526 264 OFFCURVE",
"454 303 OFFCURVE",
"376 336 CURVE SMOOTH",
"274 382 LINE SMOOTH",
"223 403 OFFCURVE",
"148 434 OFFCURVE",
"148 516 CURVE SMOOTH",
"148 592 OFFCURVE",
"214 642 OFFCURVE",
"312 642 CURVE SMOOTH",
"384 642 OFFCURVE",
"442 614 OFFCURVE",
"482 572 CURVE",
"502 594 LINE",
"462 635 OFFCURVE",
"396 672 OFFCURVE",
"312 672 CURVE SMOOTH",
"200 672 OFFCURVE",
"116 608 OFFCURVE",
"116 514 CURVE SMOOTH",
"116 416 OFFCURVE",
"200 377 OFFCURVE",
"260 352 CURVE SMOOTH",
"362 306 LINE SMOOTH",
"433 276 OFFCURVE",
"494 248 OFFCURVE",
"494 160 CURVE SMOOTH",
"494 76 OFFCURVE",
"422 18 OFFCURVE",
"310 18 CURVE SMOOTH",
"226 18 OFFCURVE",
"152 54 OFFCURVE",
"102 110 CURVE",
"80 88 LINE",
"132 30 OFFCURVE",
"208 -12 OFFCURVE"
);
}
);
width = 600;
}
);
unicode = 0053;
},
{
glyphname = T;
lastChange = "2018-01-30 22:59:42 +0000";
layers = (
{
anchors = (
{
name = aboveUC;
position = "{300, 680}";
},
{
name = baseLC;
position = "{300, 0}";
},
{
name = belowLC;
position = "{300, -20}";
}
);
layerId = "39876626-1A8B-482E-A4B0-28EC916B81A3";
paths = (
{
closed = 1;
nodes = (
"284 0 LINE",
"316 0 LINE",
"316 632 LINE",
"550 632 LINE",
"550 660 LINE",
"50 660 LINE",
"50 632 LINE",
"284 632 LINE"
);
}
);
width = 600;
}
);
unicode = 0054;
},
{
glyphname = U;
lastChange = "2018-01-30 22:59:42 +0000";
layers = (
{
anchors = (
{
name = aboveUC;
position = "{300, 680}";
},
{
name = baseLC;
position = "{300, 0}";
},
{
name = belowLC;
position = "{300, -20}";
},
{
name = hornLC;
position = "{495, 670}";
},
{
name = ogonekUC;
position = "{300, 0}";
}
);
layerId = "39876626-1A8B-482E-A4B0-28EC916B81A3";
paths = (
{
closed = 1;
nodes = (
"300 -12 CURVE SMOOTH",
"404 -12 OFFCURVE",
"508 42 OFFCURVE",
"508 246 CURVE SMOOTH",
"508 660 LINE",
"478 660 LINE",
"478 254 LINE SMOOTH",
"478 72 OFFCURVE",
"394 18 OFFCURVE",
"300 18 CURVE SMOOTH",
"208 18 OFFCURVE",
"124 72 OFFCURVE",
"124 254 CURVE SMOOTH",
"124 660 LINE",
"92 660 LINE",
"92 246 LINE SMOOTH",
"92 42 OFFCURVE",
"196 -12 OFFCURVE"
);
}
);
width = 600;
}
);
unicode = 0055;
},
{
glyphname = V;
lastChange = "2018-01-30 22:59:42 +0000";
layers = (
{
anchors = (
{
name = aboveUC;
position = "{300, 680}";
},
{
name = belowLC;
position = "{303, -20}";
}
);
layerId = "39876626-1A8B-482E-A4B0-28EC916B81A3";
paths = (
{
closed = 1;
nodes = (
"285 0 LINE",
"317 0 LINE",
"535 660 LINE",
"503 660 LINE",
"375 264 LINE SMOOTH",
"349 182 OFFCURVE",
"331 122 OFFCURVE",
"303 41 CURVE",
"299 41 LINE",
"271 122 OFFCURVE",
"253 182 OFFCURVE",
"227 264 CURVE SMOOTH",
"99 660 LINE",
"65 660 LINE"
);
}
);
width = 600;
}
);
unicode = 0056;
},
{
glyphname = W;
lastChange = "2018-01-30 22:59:42 +0000";
layers = (
{
anchors = (
{
name = aboveUC;
position = "{300, 680}";
},
{
name = belowLC;
position = "{304, -20}";
}
);
layerId = "39876626-1A8B-482E-A4B0-28EC916B81A3";
paths = (
{
closed = 1;
nodes = (
"127 0 LINE",
"169 0 LINE",
"267 331 LINE SMOOTH",
"279 369 OFFCURVE",
"288 406 OFFCURVE",
"299 445 CURVE",
"302 445 LINE",
"313 406 OFFCURVE",
"321 369 OFFCURVE",
"332 331 CURVE SMOOTH",
"433 0 LINE",
"475 0 LINE",
"584 661 LINE",
"556 661 LINE",
"481 196 LINE SMOOTH",
"474 143 OFFCURVE",
"465 90 OFFCURVE",
"458 38 CURVE",
"454 38 LINE",
"438 90 OFFCURVE",
"422 143 OFFCURVE",
"408 196 CURVE SMOOTH",
"318 488 LINE",
"283 488 LINE",
"195 196 LINE SMOOTH",
"180 143 OFFCURVE",
"164 91 OFFCURVE",
"147 38 CURVE",
"145 38 LINE",
"138 91 OFFCURVE",
"128 143 OFFCURVE",
"122 196 CURVE",
"44 661 LINE",
"15 661 LINE"
);
}
);
width = 600;
}
);
unicode = 0057;
},
{
glyphname = X;
lastChange = "2018-01-30 22:59:42 +0000";
layers = (
{
anchors = (
{
name = aboveUC;
position = "{300, 680}";
},
{
name = baseLC;
position = "{494, 0}";
},
{
name = belowLC;
position = "{300, -20}";
}
);
layerId = "39876626-1A8B-482E-A4B0-28EC916B81A3";
paths = (
{
closed = 1;
nodes = (
"83 0 LINE",
"115 0 LINE",
"237 212 LINE SMOOTH",
"255 244 OFFCURVE",
"273 276 OFFCURVE",
"295 316 CURVE",
"299 316 LINE",
"323 276 OFFCURVE",
"343 244 OFFCURVE",
"361 212 CURVE SMOOTH",
"483 0 LINE",
"517 0 LINE",
"317 340 LINE",
"503 660 LINE",
"471 660 LINE",
"355 456 LINE SMOOTH",
"337 426 OFFCURVE",
"325 404 OFFCURVE",
"305 368 CURVE",
"301 368 LINE",
"279 404 OFFCURVE",
"265 426 OFFCURVE",
"247 456 CURVE SMOOTH",
"131 660 LINE",
"97 660 LINE",
"283 342 LINE"
);
}
);
width = 600;
}
);
unicode = 0058;
},
{
glyphname = Y;
lastChange = "2018-01-30 22:59:42 +0000";
layers = (
{
anchors = (
{
name = aboveUC;
position = "{300, 680}";
},
{
name = belowLC;
position = "{300, -20}";
},
{
name = ogonekUC;
position = "{300, 0}";
}
);
layerId = "39876626-1A8B-482E-A4B0-28EC916B81A3";
paths = (
{
closed = 1;
nodes = (
"284 0 LINE",
"316 0 LINE",
"316 245 LINE",
"544 660 LINE",
"514 660 LINE",
"394 435 LINE SMOOTH",
"365 383 OFFCURVE",
"336 331 OFFCURVE",
"304 278 CURVE",
"300 278 LINE",
"269 331 OFFCURVE",
"243 383 OFFCURVE",
"212 434 CURVE SMOOTH",
"88 660 LINE",
"56 660 LINE",
"284 245 LINE"
);
}
);
width = 600;
}
);
unicode = 0059;
},
{
glyphname = Z;
lastChange = "2018-01-30 22:59:42 +0000";
layers = (
{
anchors = (
{
name = aboveUC;
position = "{316, 680}";
},
{
name = baseLC;
position = "{320, 0}";
},
{
name = belowLC;
position = "{320, -20}";
}
);
layerId = "39876626-1A8B-482E-A4B0-28EC916B81A3";
paths = (
{
closed = 1;
nodes = (
"72 0 LINE",
"533 0 LINE",
"533 28 LINE",
"109 28 LINE",
"526 642 LINE",
"526 661 LINE",
"107 661 LINE",
"107 634 LINE",
"488 634 LINE",
"72 19 LINE"
);
}
);
width = 600;
}
);
unicode = 005A;
},
{
glyphname = a;
lastChange = "2018-01-30 22:59:42 +0000";
layers = (
{
anchors = (
{
name = aboveLC;
position = "{320, 500}";
},
{
name = baseLC;
position = "{474, 0}";
},
{
name = belowLC;
position = "{300, -20}";
},
{
name = "ogonekCXT-ATH";
position = "{330, 0}";
},
{
name = ogonekLC;
position = "{440, 0}";
}
);
layerId = "39876626-1A8B-482E-A4B0-28EC916B81A3";
paths = (
{
closed = 1;
nodes = (
"264 -12 CURVE SMOOTH",
"336 -12 OFFCURVE",
"412 29 OFFCURVE",
"468 74 CURVE",
"470 74 LINE",
"474 0 LINE",
"500 0 LINE",
"500 310 LINE SMOOTH",
"500 406 OFFCURVE",
"451 490 OFFCURVE",
"324 490 CURVE SMOOTH",
"238 490 OFFCURVE",
"154 444 OFFCURVE",
"120 418 CURVE",
"136 394 LINE",
"173 422 OFFCURVE",
"246 462 OFFCURVE",
"322 462 CURVE SMOOTH",
"438 462 OFFCURVE",
"470 382 OFFCURVE",
"470 298 CURVE",
"206 274 OFFCURVE",
"96 224 OFFCURVE",
"96 117 CURVE SMOOTH",
"96 26 OFFCURVE",
"180 -12 OFFCURVE"
);
},
{
closed = 1;
nodes = (
"266 16 CURVE SMOOTH",
"198 16 OFFCURVE",
"128 44 OFFCURVE",
"128 118 CURVE SMOOTH",
"128 200 OFFCURVE",
"212 248 OFFCURVE",
"470 272 CURVE",
"470 108 LINE",
"398 47 OFFCURVE",
"330 16 OFFCURVE"
);
}
);
width = 600;
}
);
unicode = 0061;
},
{
glyphname = b;
lastChange = "2018-01-30 22:59:42 +0000";
layers = (
{
anchors = (
{
name = aboveUC;
position = "{130, 740}";
},
{
name = belowLC;
position = "{310, -20}";
}
);
layerId = "39876626-1A8B-482E-A4B0-28EC916B81A3";
paths = (
{
closed = 1;
nodes = (
"306 -12 CURVE SMOOTH",
"425 -12 OFFCURVE",
"530 84 OFFCURVE",
"530 246 CURVE SMOOTH",
"530 394 OFFCURVE",
"463 490 OFFCURVE",
"326 490 CURVE SMOOTH",
"262 490 OFFCURVE",
"190 454 OFFCURVE",
"140 402 CURVE",
"138 402 LINE",
"140 508 LINE",
"140 722 LINE",
"110 722 LINE",
"110 0 LINE",
"136 0 LINE",
"140 54 LINE",
"142 54 LINE",
"191 14 OFFCURVE",
"257 -12 OFFCURVE"
);
},
{
closed = 1;
nodes = (
"308 16 CURVE SMOOTH",
"267 16 OFFCURVE",
"200 37 OFFCURVE",
"140 92 CURVE",
"140 368 LINE",
"204 432 OFFCURVE",
"271 462 OFFCURVE",
"324 462 CURVE SMOOTH",
"449 462 OFFCURVE",
"498 368 OFFCURVE",
"498 246 CURVE SMOOTH",
"498 112 OFFCURVE",
"418 16 OFFCURVE"
);
}
);
width = 600;
}
);
unicode = 0062;
},
{
glyphname = c;
lastChange = "2018-01-30 22:59:42 +0000";
layers = (
{
anchors = (
{
name = aboveLC;
position = "{350, 500}";
},
{
name = baseLC;
position = "{350, 0}";
},
{
name = belowLC;
position = "{340, -20}";
}
);
layerId = "39876626-1A8B-482E-A4B0-28EC916B81A3";
paths = (
{
closed = 1;
nodes = (
"348 -12 CURVE SMOOTH",
"424 -12 OFFCURVE",
"484 20 OFFCURVE",
"532 66 CURVE",
"514 88 LINE",
"470 46 OFFCURVE",
"415 16 OFFCURVE",
"348 16 CURVE SMOOTH",
"212 16 OFFCURVE",
"122 106 OFFCURVE",
"122 238 CURVE SMOOTH",
"122 370 OFFCURVE",
"214 462 OFFCURVE",
"348 462 CURVE SMOOTH",
"410 462 OFFCURVE",
"458 434 OFFCURVE",
"499 394 CURVE",
"519 416 LINE",
"480 454 OFFCURVE",
"429 490 OFFCURVE",
"348 490 CURVE SMOOTH",
"206 490 OFFCURVE",
"90 398 OFFCURVE",
"90 238 CURVE SMOOTH",
"90 80 OFFCURVE",
"200 -12 OFFCURVE"
);
}
);
width = 600;
}
);
unicode = 0063;
},
{
glyphname = d;
lastChange = "2018-01-30 22:59:42 +0000";
layers = (
{
anchors = (
{
name = aboveUC;
position = "{470, 740}";
},
{
name = baseLC;
position = "{310, 0}";
},
{
name = belowLC;
position = "{300, -20}";
}
);
layerId = "39876626-1A8B-482E-A4B0-28EC916B81A3";
paths = (
{
closed = 1;
nodes = (
"282 -12 CURVE SMOOTH",
"352 -12 OFFCURVE",
"415 29 OFFCURVE",
"458 74 CURVE",
"460 74 LINE",
"464 0 LINE",
"490 0 LINE",
"490 722 LINE",
"460 722 LINE SMOOTH",
"460 520 LINE",
"462 420 LINE",
"460 420 LINE",
"410 464 OFFCURVE",
"359 490 OFFCURVE",
"298 490 CURVE SMOOTH",
"177 490 OFFCURVE",
"70 392 OFFCURVE",
"70 238 CURVE SMOOTH",
"70 76 OFFCURVE",
"156 -12 OFFCURVE"
);
},
{
closed = 1;
nodes = (
"284 16 CURVE SMOOTH",
"170 16 OFFCURVE",
"102 106 OFFCURVE",
"102 238 CURVE SMOOTH",
"102 362 OFFCURVE",
"188 462 OFFCURVE",
"296 462 CURVE SMOOTH",
"349 462 OFFCURVE",
"402 441 OFFCURVE",
"460 386 CURVE",
"460 110 LINE",
"403 50 OFFCURVE",
"343 16 OFFCURVE"
);
}
);
width = 600;
}
);
unicode = 0064;
},
{
glyphname = e;
lastChange = "2018-01-30 22:59:42 +0000";
layers = (
{
anchors = (
{
name = aboveLC;
position = "{320, 500}";
},
{
name = baseLC;
position = "{320, 0}";
},
{
name = belowLC;
position = "{320, -20}";
},
{
name = "ogonekCXT-ATH";
position = "{320, 0}";
},
{
name = ogonekLC;
position = "{406, 0}";
}
);
layerId = "39876626-1A8B-482E-A4B0-28EC916B81A3";
paths = (
{
closed = 1;
nodes = (
"330 -12 CURVE SMOOTH",
"417 -12 OFFCURVE",
"468 17 OFFCURVE",
"510 44 CURVE",
"496 70 LINE",
"451 38 OFFCURVE",
"398 16 OFFCURVE",
"330 16 CURVE SMOOTH",
"214 16 OFFCURVE",
"112 96 OFFCURVE",
"112 240 CURVE SMOOTH",
"112 380 OFFCURVE",
"214 462 OFFCURVE",
"318 462 CURVE SMOOTH",
"426 462 OFFCURVE",
"502 394 OFFCURVE",
"502 250 CURVE",
"520 266 LINE",
"90 266 LINE",
"90 238 LINE",
"528 238 LINE",
"530 250 OFFCURVE",
"530 260 OFFCURVE",
"530 270 CURVE SMOOTH",
"530 408 OFFCURVE",
"446 490 OFFCURVE",
"318 490 CURVE SMOOTH",
"194 490 OFFCURVE",
"80 394 OFFCURVE",
"80 238 CURVE SMOOTH",
"80 82 OFFCURVE",
"194 -12 OFFCURVE"
);
}
);
width = 600;
}
);
unicode = 0065;
},
{
glyphname = f;
lastChange = "2018-01-30 22:59:42 +0000";
layers = (
{
anchors = (
{
name = aboveUC;
position = "{426, 740}";
},
{
name = baseLC;
position = "{300, 0}";
},
{
name = belowLC;
position = "{290, -20}";
}
);
layerId = "39876626-1A8B-482E-A4B0-28EC916B81A3";
paths = (
{
closed = 1;
nodes = (
"266 0 LINE",
"294 0 LINE",
"294 546 LINE SMOOTH",
"294 640 OFFCURVE",
"334 706 OFFCURVE",
"440 706 CURVE SMOOTH",
"486 706 OFFCURVE",
"514 702 OFFCURVE",
"560 680 CURVE",
"572 704 LINE",
"522 728 OFFCURVE",
"481 734 OFFCURVE",
"440 734 CURVE SMOOTH",
"324 734 OFFCURVE",
"266 664 OFFCURVE",
"266 542 CURVE SMOOTH"
);
},
{
closed = 1;
nodes = (
"120 450 LINE",
"524 450 LINE",
"524 478 LINE",
"266 478 LINE",
"120 474 LINE"
);
}
);
width = 600;
}
);
unicode = 0066;
},
{
glyphname = g;
lastChange = "2018-01-30 22:59:42 +0000";
layers = (
{
anchors = (
{
name = aboveLC;
position = "{310, 500}";
},
{
name = belowLC;
position = "{310, -230}";
}
);
layerId = "39876626-1A8B-482E-A4B0-28EC916B81A3";
paths = (
{
closed = 1;
nodes = (
"312 -234 CURVE SMOOTH",
"464 -234 OFFCURVE",
"560 -152 OFFCURVE",
"560 -72 CURVE SMOOTH",
"560 4 OFFCURVE",
"510 34 OFFCURVE",
"389 34 CURVE SMOOTH",
"266 34 LINE SMOOTH",
"198 34 OFFCURVE",
"152 56 OFFCURVE",
"152 105 CURVE SMOOTH",
"152 132 OFFCURVE",
"172 158 OFFCURVE",
"202 176 CURVE",
"232 160 OFFCURVE",
"266 152 OFFCURVE",
"296 152 CURVE SMOOTH",
"392 152 OFFCURVE",
"470 224 OFFCURVE",
"470 320 CURVE SMOOTH",
"470 375 OFFCURVE",
"440 420 OFFCURVE",
"408 450 CURVE",
"560 450 LINE",
"560 478 LINE",
"360 478 LINE",
"342 486 OFFCURVE",
"322 490 OFFCURVE",
"296 490 CURVE SMOOTH",
"200 490 OFFCURVE",
"122 416 OFFCURVE",
"122 320 CURVE SMOOTH",
"122 262 OFFCURVE",
"148 222 OFFCURVE",
"178 196 CURVE",
"178 192 LINE",
"140 166 OFFCURVE",
"120 132 OFFCURVE",
"120 102 CURVE SMOOTH",
"120 62 OFFCURVE",
"146 37 OFFCURVE",
"170 26 CURVE",
"170 22 LINE",
"118 -11 OFFCURVE",
"88 -56 OFFCURVE",
"88 -93 CURVE SMOOTH",
"88 -176 OFFCURVE",
"160 -234 OFFCURVE"
);
},
{
closed = 1;
nodes = (
"296 180 CURVE SMOOTH",
"218 180 OFFCURVE",
"154 238 OFFCURVE",
"154 320 CURVE SMOOTH",
"154 402 OFFCURVE",
"218 462 OFFCURVE",
"296 462 CURVE SMOOTH",
"374 462 OFFCURVE",
"438 402 OFFCURVE",
"438 320 CURVE SMOOTH",
"438 238 OFFCURVE",
"374 180 OFFCURVE"
);
},
{
closed = 1;
nodes = (
"306 -206 CURVE SMOOTH",
"180 -206 OFFCURVE",
"120 -158 OFFCURVE",
"120 -97 CURVE SMOOTH",
"120 -60 OFFCURVE",
"141 -22 OFFCURVE",
"203 11 CURVE",
"226 4 OFFCURVE",
"254 2 OFFCURVE",
"276 2 CURVE SMOOTH",
"397 2 LINE SMOOTH",
"485 2 OFFCURVE",
"528 -17 OFFCURVE",
"528 -74 CURVE SMOOTH",
"528 -138 OFFCURVE",
"445 -206 OFFCURVE"
);
}
);
width = 600;
}
);
unicode = 0067;
},
{
glyphname = h;
lastChange = "2018-01-30 22:59:42 +0000";
layers = (
{
anchors = (
{
name = aboveUC;
position = "{120, 740}";
},
{
name = baseLC;
position = "{124, 0}";
},
{
name = belowLC;
position = "{320, -20}";
}
);
layerId = "39876626-1A8B-482E-A4B0-28EC916B81A3";
paths = (
{
closed = 1;
nodes = (
"110 0 LINE",
"140 0 LINE",
"140 346 LINE",
"214 424 OFFCURVE",
"264 462 OFFCURVE",
"336 462 CURVE SMOOTH",
"437 462 OFFCURVE",
"480 407 OFFCURVE",
"480 294 CURVE SMOOTH",
"480 0 LINE",
"510 0 LINE",
"510 298 LINE SMOOTH",
"510 429 OFFCURVE",
"453 490 OFFCURVE",
"336 490 CURVE SMOOTH",
"259 490 OFFCURVE",
"200 444 OFFCURVE",
"140 378 CURVE",
"138 378 LINE",
"140 508 LINE",
"140 722 LINE",
"110 722 LINE"
);
}
);
width = 600;
}
);
unicode = 0068;
},
{
glyphname = k;
lastChange = "2018-01-30 22:59:42 +0000";
layers = (
{
anchors = (
{
name = aboveUC;
position = "{188, 740}";
},
{
name = belowLC;
position = "{344, -20}";
}
);
layerId = "39876626-1A8B-482E-A4B0-28EC916B81A3";
paths = (
{
closed = 1;
nodes = (
"130 0 LINE",
"160 0 LINE",
"160 138 LINE",
"530 478 LINE",
"490 478 LINE",
"164 176 LINE",
"160 176 LINE",
"160 722 LINE",
"130 722 LINE"
);
},
{
closed = 1;
nodes = (
"528 0 LINE",
"564 0 LINE",
"322 308 LINE",
"300 286 LINE"
);
}
);
width = 600;
}
);
unicode = 006B;
},
{
glyphname = l;
lastChange = "2018-01-30 22:59:42 +0000";
layers = (
{
anchors = (
{
name = aboveUC;
position = "{294, 740}";
},
{
name = baseLC;
position = "{400, 0}";
},
{
name = belowLC;
position = "{400, -20}";
},
{
name = center;
position = "{296, 400}";
}
);
layerId = "39876626-1A8B-482E-A4B0-28EC916B81A3";
paths = (
{
closed = 1;
nodes = (
"416 -12 CURVE SMOOTH",
"462 -12 OFFCURVE",
"492 -2 OFFCURVE",
"532 18 CURVE",
"520 42 LINE",
"484 24 OFFCURVE",
"450 16 OFFCURVE",
"418 16 CURVE SMOOTH",
"346 16 OFFCURVE",
"310 54 OFFCURVE",
"310 132 CURVE SMOOTH",
"310 722 LINE",
"94 722 LINE",
"94 694 LINE",
"280 694 LINE",
"280 138 LINE SMOOTH",
"280 31 OFFCURVE",
"330 -12 OFFCURVE"
);
}
);
width = 600;
}
);
unicode = 006C;
},
{
glyphname = m;
lastChange = "2018-01-30 22:59:42 +0000";
layers = (
{
anchors = (
{
name = aboveLC;
position = "{310, 498}";
},
{
name = baseLC;
position = "{518, 0}";
},
{
name = belowLC;
position = "{313, -20}";
}
);
layerId = "39876626-1A8B-482E-A4B0-28EC916B81A3";
paths = (
{
closed = 1;
nodes = (
"80 0 LINE",
"110 0 LINE",
"110 366 LINE",
"144 430 OFFCURVE",
"174 462 OFFCURVE",
"221 462 CURVE SMOOTH",
"271 462 OFFCURVE",
"296 422 OFFCURVE",
"296 344 CURVE SMOOTH",
"296 0 LINE",
"326 0 LINE",
"326 366 LINE",
"360 430 OFFCURVE",
"390 462 OFFCURVE",
"437 462 CURVE SMOOTH",
"487 462 OFFCURVE",
"512 422 OFFCURVE",
"512 344 CURVE SMOOTH",
"512 0 LINE",
"542 0 LINE",
"542 348 LINE SMOOTH",
"542 444 OFFCURVE",
"505 490 OFFCURVE",
"439 490 CURVE SMOOTH",
"386 490 OFFCURVE",
"357 460 OFFCURVE",
"320 404 CURVE",
"307 462 OFFCURVE",
"277 490 OFFCURVE",
"223 490 CURVE SMOOTH",
"170 490 OFFCURVE",
"141 460 OFFCURVE",
"112 412 CURVE",
"110 412 LINE",
"106 478 LINE",
"80 478 LINE"
);
}
);
width = 600;
}
);
unicode = 006D;
},
{
glyphname = n;
lastChange = "2018-01-30 22:59:42 +0000";
layers = (
{
anchors = (
{
name = aboveLC;
position = "{320, 500}";
},
{
name = baseLC;
position = "{488, 0}";
},
{
name = belowLC;
position = "{318, -20}";
}
);
layerId = "39876626-1A8B-482E-A4B0-28EC916B81A3";
paths = (
{
closed = 1;
nodes = (
"110 0 LINE",
"140 0 LINE",
"140 346 LINE",
"214 424 OFFCURVE",
"264 462 OFFCURVE",
"336 462 CURVE SMOOTH",
"437 462 OFFCURVE",
"480 407 OFFCURVE",
"480 294 CURVE SMOOTH",
"480 0 LINE",
"510 0 LINE",
"510 298 LINE SMOOTH",
"510 429 OFFCURVE",
"453 490 OFFCURVE",
"336 490 CURVE SMOOTH",
"258 490 OFFCURVE",
"201 444 OFFCURVE",
"144 382 CURVE",
"140 382 LINE",
"136 478 LINE",
"110 478 LINE"
);
}
);
width = 600;
}
);
unicode = 006E;
},
{
glyphname = o;
lastChange = "2018-01-30 22:59:42 +0000";
layers = (
{
anchors = (
{
name = aboveLC;
position = "{300, 500}";
},
{
name = baseLC;
position = "{300, 0}";
},
{
name = belowLC;
position = "{300, -20}";
},
{
name = hornLC;
position = "{410, 478}";
},
{
name = ogonekLC;
position = "{300, 0}";
}
);
layerId = "39876626-1A8B-482E-A4B0-28EC916B81A3";
paths = (
{
closed = 1;
nodes = (
"300 -12 CURVE SMOOTH",
"425 -12 OFFCURVE",
"530 80 OFFCURVE",
"530 238 CURVE SMOOTH",
"530 398 OFFCURVE",
"425 490 OFFCURVE",
"300 490 CURVE SMOOTH",
"175 490 OFFCURVE",
"70 398 OFFCURVE",
"70 238 CURVE SMOOTH",
"70 80 OFFCURVE",
"175 -12 OFFCURVE"
);
},
{
closed = 1;
nodes = (
"300 16 CURVE SMOOTH",
"186 16 OFFCURVE",
"102 106 OFFCURVE",
"102 238 CURVE SMOOTH",
"102 370 OFFCURVE",
"186 462 OFFCURVE",
"300 462 CURVE SMOOTH",
"414 462 OFFCURVE",
"498 370 OFFCURVE",
"498 238 CURVE SMOOTH",
"498 106 OFFCURVE",
"414 16 OFFCURVE"
);
}
);
width = 600;
}
);
unicode = 006F;
},
{
glyphname = p;
lastChange = "2018-01-30 22:59:42 +0000";
layers = (
{
anchors = (
{
name = aboveLC;
position = "{320, 500}";
},
{
name = belowLC;
position = "{130, -230}";
}
);
layerId = "39876626-1A8B-482E-A4B0-28EC916B81A3";
paths = (
{
closed = 1;
nodes = (
"110 -222 LINE",
"140 -222 LINE",
"140 -42 LINE",
"138 58 LINE",
"140 58 LINE",
"190 14 OFFCURVE",
"258 -12 OFFCURVE",
"304 -12 CURVE SMOOTH",
"425 -12 OFFCURVE",
"530 84 OFFCURVE",
"530 246 CURVE SMOOTH",
"530 394 OFFCURVE",
"463 490 OFFCURVE",
"326 490 CURVE SMOOTH",
"262 490 OFFCURVE",
"191 454 OFFCURVE",
"142 406 CURVE",
"140 406 LINE",
"136 478 LINE",
"110 478 LINE"
);
},
{
closed = 1;
nodes = (
"306 16 CURVE SMOOTH",
"267 16 OFFCURVE",
"200 37 OFFCURVE",
"140 92 CURVE",
"140 368 LINE",
"204 432 OFFCURVE",
"271 462 OFFCURVE",
"324 462 CURVE SMOOTH",
"449 462 OFFCURVE",
"498 368 OFFCURVE",
"498 246 CURVE SMOOTH",
"498 112 OFFCURVE",
"418 16 OFFCURVE"
);
}
);
width = 600;
}
);
unicode = 0070;
},
{
glyphname = q;
lastChange = "2018-01-30 22:59:42 +0000";
layers = (
{
anchors = (
{
name = aboveLC;
position = "{300, 500}";
},
{
name = belowLC;
position = "{470, -230}";
}
);
layerId = "39876626-1A8B-482E-A4B0-28EC916B81A3";
paths = (
{
closed = 1;
nodes = (
"460 -222 LINE",
"490 -222 LINE",
"490 478 LINE",
"464 478 LINE",
"460 422 LINE",
"458 422 LINE",
"409 464 OFFCURVE",
"360 490 OFFCURVE",
"298 490 CURVE SMOOTH",
"177 490 OFFCURVE",
"70 392 OFFCURVE",
"70 238 CURVE SMOOTH",
"70 76 OFFCURVE",
"156 -12 OFFCURVE",
"282 -12 CURVE SMOOTH",
"352 -12 OFFCURVE",
"414 28 OFFCURVE",
"460 76 CURVE",
"462 76 LINE",
"460 -22 LINE"
);
},
{
closed = 1;
nodes = (
"284 16 CURVE SMOOTH",
"170 16 OFFCURVE",
"102 106 OFFCURVE",
"102 238 CURVE SMOOTH",
"102 362 OFFCURVE",
"188 462 OFFCURVE",
"296 462 CURVE SMOOTH",
"349 462 OFFCURVE",
"402 441 OFFCURVE",
"460 386 CURVE",
"460 110 LINE",
"403 50 OFFCURVE",
"343 16 OFFCURVE"
);
}
);
width = 600;
}
);
unicode = 0071;
},
{
glyphname = r;
lastChange = "2018-01-30 22:59:42 +0000";
layers = (
{
anchors = (
{
name = aboveLC;
position = "{360, 500}";
},
{
name = baseLC;
position = "{176, 0}";
},
{
name = belowLC;
position = "{190, -20}";
}
);
layerId = "39876626-1A8B-482E-A4B0-28EC916B81A3";
paths = (
{
closed = 1;
nodes = (
"170 0 LINE",
"200 0 LINE",
"200 306 LINE",
"270 418 OFFCURVE",
"344 460 OFFCURVE",
"427 460 CURVE SMOOTH",
"465 460 OFFCURVE",
"482 455 OFFCURVE",
"518 442 CURVE",
"528 470 LINE",
"497 486 OFFCURVE",
"462 490 OFFCURVE",
"431 490 CURVE SMOOTH",
"333 490 OFFCURVE",
"254 434 OFFCURVE",
"202 358 CURVE",
"200 358 LINE",
"196 478 LINE",
"170 478 LINE"
);
}
);
width = 600;
}
);
unicode = 0072;
},
{
glyphname = s;
lastChange = "2018-01-30 22:59:42 +0000";
layers = (
{
anchors = (
{
name = aboveLC;
position = "{296, 500}";
},
{
name = baseLC;
position = "{316, 0}";
},
{
name = belowLC;
position = "{310, -20}";
}
);
layerId = "39876626-1A8B-482E-A4B0-28EC916B81A3";
paths = (
{
closed = 1;
nodes = (
"322 -12 CURVE SMOOTH",
"444 -12 OFFCURVE",
"514 50 OFFCURVE",
"514 120 CURVE SMOOTH",
"514 190 OFFCURVE",
"478 228 OFFCURVE",
"310 263 CURVE SMOOTH",
"198 286 OFFCURVE",
"146 314 OFFCURVE",
"146 368 CURVE SMOOTH",
"146 416 OFFCURVE",
"181 462 OFFCURVE",
"294 462 CURVE SMOOTH",
"361 462 OFFCURVE",
"416 440 OFFCURVE",
"458 408 CURVE",
"476 432 LINE",
"431 466 OFFCURVE",
"357 490 OFFCURVE",
"296 490 CURVE SMOOTH",
"169 490 OFFCURVE",
"114 432 OFFCURVE",
"114 366 CURVE SMOOTH",
"114 296 OFFCURVE",
"186 258 OFFCURVE",
"306 234 CURVE SMOOTH",
"466 202 OFFCURVE",
"482 164 OFFCURVE",
"482 118 CURVE SMOOTH",
"482 64 OFFCURVE",
"428 16 OFFCURVE",
"324 16 CURVE SMOOTH",
"219 16 OFFCURVE",
"156 46 OFFCURVE",
"104 88 CURVE",
"86 64 LINE",
"142 24 OFFCURVE",
"222 -12 OFFCURVE"
);
}
);
width = 600;
}
);
unicode = 0073;
},
{
glyphname = t;
lastChange = "2018-01-30 22:59:42 +0000";
layers = (
{
anchors = (
{
name = aboveLC;
position = "{250, 630}";
},
{
name = baseLC;
position = "{400, 0}";
},
{
name = belowLC;
position = "{390, -20}";
}
);
layerId = "39876626-1A8B-482E-A4B0-28EC916B81A3";
paths = (
{
closed = 1;
nodes = (
"398 -12 CURVE SMOOTH",
"456 -12 OFFCURVE",
"498 0 OFFCURVE",
"542 18 CURVE",
"532 42 LINE",
"492 26 OFFCURVE",
"452 16 OFFCURVE",
"400 16 CURVE SMOOTH",
"288 16 OFFCURVE",
"262 76 OFFCURVE",
"262 172 CURVE SMOOTH",
"262 450 LINE",
"524 450 LINE",
"524 478 LINE",
"262 478 LINE",
"262 638 LINE",
"236 638 LINE",
"232 478 LINE",
"84 474 LINE",
"84 450 LINE",
"232 450 LINE",
"232 176 LINE SMOOTH",
"232 64 OFFCURVE",
"270 -12 OFFCURVE"
);
}
);
width = 600;
}
);
unicode = 0074;
},
{
glyphname = u;
lastChange = "2018-01-30 22:59:42 +0000";
layers = (
{
anchors = (
{
name = aboveLC;
position = "{294, 500}";
},
{
name = baseLC;
position = "{466, 0}";
},
{
name = belowLC;
position = "{290, -20}";
},
{
name = "ogonekCXT-ATH";
position = "{290, 0}";
},
{
name = ogonekLC;
position = "{430, 0}";
}
);
layerId = "39876626-1A8B-482E-A4B0-28EC916B81A3";
paths = (
{
closed = 1;
nodes = (
"264 -12 CURVE SMOOTH",
"342 -12 OFFCURVE",
"403 34 OFFCURVE",
"456 96 CURVE",
"460 96 LINE",
"464 0 LINE",
"490 0 LINE",
"490 478 LINE",
"460 478 LINE",
"460 132 LINE",
"390 53 OFFCURVE",
"336 16 OFFCURVE",
"264 16 CURVE SMOOTH",
"163 16 OFFCURVE",
"120 71 OFFCURVE",
"120 184 CURVE SMOOTH",
"120 478 LINE",
"90 478 LINE",
"90 180 LINE SMOOTH",
"90 49 OFFCURVE",
"147 -12 OFFCURVE"
);
}
);
width = 600;
}
);
unicode = 0075;
},
{
glyphname = v;
lastChange = "2018-01-30 22:59:42 +0000";
layers = (
{
anchors = (
{
name = aboveLC;
position = "{300, 500}";
},
{
name = belowLC;
position = "{300, -20}";
}
);
layerId = "39876626-1A8B-482E-A4B0-28EC916B81A3";
paths = (
{
closed = 1;
nodes = (
"286 0 LINE",
"316 0 LINE",
"534 478 LINE",
"504 478 LINE",
"364 168 LINE SMOOTH",
"342 120 OFFCURVE",
"323 74 OFFCURVE",
"304 32 CURVE",
"300 32 LINE",
"281 74 OFFCURVE",
"260 120 OFFCURVE",
"238 168 CURVE SMOOTH",
"98 478 LINE",
"66 478 LINE"
);
}
);
width = 600;
}
);
unicode = 0076;
},
{
glyphname = w;
lastChange = "2018-01-30 22:59:42 +0000";
layers = (
{
anchors = (
{
name = aboveLC;
position = "{300, 500}";
},
{
name = belowLC;
position = "{300, -20}";
}
);
layerId = "39876626-1A8B-482E-A4B0-28EC916B81A3";
paths = (
{
closed = 1;
nodes = (
"142 0 LINE",
"184 0 LINE",
"264 310 LINE SMOOTH",
"278 356 OFFCURVE",
"287 402 OFFCURVE",
"298 448 CURVE",
"302 448 LINE",
"315 402 OFFCURVE",
"324 358 OFFCURVE",
"336 312 CURVE SMOOTH",
"418 0 LINE",
"460 0 LINE",
"588 478 LINE",
"556 478 LINE",
"474 156 LINE SMOOTH",
"464 112 OFFCURVE",
"453 72 OFFCURVE",
"442 30 CURVE",
"438 30 LINE",
"427 72 OFFCURVE",
"416 112 OFFCURVE",
"405 156 CURVE SMOOTH",
"322 478 LINE",
"280 478 LINE",
"197 156 LINE SMOOTH",
"186 112 OFFCURVE",
"175 72 OFFCURVE",
"164 30 CURVE",
"160 30 LINE",
"151 72 OFFCURVE",
"140 112 OFFCURVE",
"129 156 CURVE SMOOTH",
"46 478 LINE",
"12 478 LINE"
);
}
);
width = 600;
}
);
unicode = 0077;
},
{
glyphname = x;
lastChange = "2018-01-30 22:59:42 +0000";
layers = (
{
anchors = (
{
name = aboveLC;
position = "{300, 500}";
},
{
name = baseLC;
position = "{486, 0}";
},
{
name = belowLC;
position = "{300, -20}";
}
);
layerId = "39876626-1A8B-482E-A4B0-28EC916B81A3";
paths = (
{
closed = 1;
nodes = (
"86 0 LINE",
"120 0 LINE",
"226 136 LINE SMOOTH",
"250 168 OFFCURVE",
"272 196 OFFCURVE",
"296 226 CURVE",
"300 226 LINE",
"324 198 OFFCURVE",
"348 164 OFFCURVE",
"370 137 CURVE SMOOTH",
"478 0 LINE",
"514 0 LINE",
"317 248 LINE",
"498 478 LINE",
"464 478 LINE",
"368 352 LINE SMOOTH",
"348 326 OFFCURVE",
"324 296 OFFCURVE",
"302 270 CURVE",
"298 270 LINE",
"276 296 OFFCURVE",
"256 324 OFFCURVE",
"236 350 CURVE SMOOTH",
"138 478 LINE",
"102 478 LINE",
"281 248 LINE"
);
}
);
width = 600;
}
);
unicode = 0078;
},
{
glyphname = y;
lastChange = "2018-01-30 22:59:42 +0000";
layers = (
{
anchors = (
{
name = aboveLC;
position = "{300, 500}";
},
{
name = belowLC;
position = "{266, -230}";
},
{
name = ogonekLC;
position = "{240, -120}";
}
);
layerId = "39876626-1A8B-482E-A4B0-28EC916B81A3";
paths = (
{
closed = 1;
nodes = (
"122 -222 CURVE SMOOTH",
"220 -222 OFFCURVE",
"280 -142 OFFCURVE",
"306 -68 CURVE",
"536 478 LINE",
"506 478 LINE",
"374 164 LINE SMOOTH",
"357 124 OFFCURVE",
"336 72 OFFCURVE",
"316 30 CURVE",
"312 30 LINE",
"288 72 OFFCURVE",
"263 124 OFFCURVE",
"244 164 CURVE SMOOTH",
"96 478 LINE",
"64 478 LINE",
"300 -12 LINE",
"282 -56 LINE SMOOTH",
"251 -134 OFFCURVE",
"202 -192 OFFCURVE",
"125 -192 CURVE SMOOTH",
"107 -192 OFFCURVE",
"89 -188 OFFCURVE",
"77 -184 CURVE",
"67 -212 LINE",
"80 -218 OFFCURVE",
"104 -222 OFFCURVE"
);
}
);
width = 600;
}
);
unicode = 0079;
},
{
glyphname = z;
lastChange = "2018-01-30 22:59:42 +0000";
layers = (
{
anchors = (
{
name = aboveLC;
position = "{318, 500}";
},
{
name = baseLC;
position = "{320, 0}";
},
{
name = belowLC;
position = "{316, -20}";
}
);
layerId = "39876626-1A8B-482E-A4B0-28EC916B81A3";
paths = (
{
closed = 1;
nodes = (
"72 0 LINE",
"524 0 LINE",
"524 28 LINE",
"120 28 LINE",
"512 462 LINE",
"512 478 LINE",
"114 478 LINE",
"114 450 LINE",
"464 450 LINE",
"72 16 LINE"
);
}
);
width = 600;
}
);
unicode = 007A;
},
{
glyphname = Aringacute;
lastChange = "2018-01-30 22:59:42 +0000";
layers = (
{
components = (
{
name = Aring;
}
);
layerId = "39876626-1A8B-482E-A4B0-28EC916B81A3";
paths = (
{
closed = 1;
nodes = (
"262 836 LINE",
"388 912 LINE",
"370 936 LINE",
"246 850 LINE"
);
}
);
width = 600;
}
);
unicode = 01FA;
},
{
glyphname = Aogonek;
lastChange = "2018-01-30 22:59:42 +0000";
layers = (
{
anchors = (
{
name = aboveUC;
position = "{300, 680}";
}
);
layerId = "39876626-1A8B-482E-A4B0-28EC916B81A3";
paths = (
{
closed = 1;
nodes = (
"522 -224 CURVE SMOOTH",
"560 -224 OFFCURVE",
"580 -208 OFFCURVE",
"600 -188 CURVE",
"582 -170 LINE",
"568 -184 OFFCURVE",
"550 -196 OFFCURVE",
"524 -196 CURVE SMOOTH",
"491 -196 OFFCURVE",
"460 -176 OFFCURVE",
"460 -134 CURVE SMOOTH",
"460 -80 OFFCURVE",
"502 -36 OFFCURVE",
"550 0 CURVE",
"314 660 LINE",
"286 660 LINE",
"50 0 LINE",
"82 0 LINE",
"222 396 LINE SMOOTH",
"250 476 OFFCURVE",
"274 544 OFFCURVE",
"298 626 CURVE",
"302 626 LINE",
"326 544 OFFCURVE",
"350 476 OFFCURVE",
"378 396 CURVE SMOOTH",
"516 0 LINE",
"518 0 LINE",
"474 -32 OFFCURVE",
"430 -76 OFFCURVE",
"430 -136 CURVE SMOOTH",
"430 -196 OFFCURVE",
"469 -224 OFFCURVE"
);
},
{
closed = 1;
nodes = (
"152 236 LINE",
"446 236 LINE",
"446 264 LINE",
"152 264 LINE"
);
}
);
width = 600;
}
);
unicode = 0104;
},
{
glyphname = AE;
lastChange = "2018-01-30 22:59:42 +0000";
layers = (
{
anchors = (
{
name = aboveUC;
position = "{444, 680}";
},
{
name = baseLC;
position = "{460, 0}";
},
{
name = belowLC;
position = "{340, -20}";
}
);
layerId = "39876626-1A8B-482E-A4B0-28EC916B81A3";
paths = (
{
closed = 1;
nodes = (
"0 0 LINE",
"36 0 LINE",
"212 394 LINE SMOOTH",
"248 476 OFFCURVE",
"284 552 OFFCURVE",
"318 630 CURVE",
"322 630 LINE",
"322 0 LINE",
"588 0 LINE",
"588 28 LINE",
"354 28 LINE",
"354 338 LINE",
"524 338 LINE",
"524 366 LINE",
"354 366 LINE",
"354 632 LINE",
"578 632 LINE",
"578 660 LINE",
"302 660 LINE"
);
},
{
closed = 1;
nodes = (
"130 226 LINE",
"348 226 LINE",
"348 254 LINE",
"130 254 LINE"
);
}
);
width = 600;
}
);
unicode = 00C6;
},
{
glyphname = Bstroke;
lastChange = "2018-01-30 22:59:42 +0000";
layers = (
{
layerId = "39876626-1A8B-482E-A4B0-28EC916B81A3";
paths = (
{
closed = 1;
nodes = (
"120 0 LINE",
"292 0 LINE SMOOTH",
"446 0 OFFCURVE",
"534 66 OFFCURVE",
"534 192 CURVE SMOOTH",
"534 284 OFFCURVE",
"473 338 OFFCURVE",
"375 352 CURVE",
"375 356 LINE",
"453 376 OFFCURVE",
"492 430 OFFCURVE",
"492 500 CURVE SMOOTH",
"492 608 OFFCURVE",
"416 660 OFFCURVE",
"280 660 CURVE SMOOTH",
"120 660 LINE"
);
},
{
closed = 1;
nodes = (
"42 178 LINE",
"324 178 LINE",
"324 206 LINE",
"122 206 LINE",
"42 202 LINE"
);
},
{
closed = 1;
nodes = (
"152 28 LINE",
"152 338 LINE",
"280 338 LINE SMOOTH",
"422 338 OFFCURVE",
"502 290 OFFCURVE",
"502 190 CURVE SMOOTH",
"502 78 OFFCURVE",
"422 28 OFFCURVE",
"280 28 CURVE SMOOTH"
);
},
{
closed = 1;
nodes = (
"152 366 LINE",
"152 632 LINE",
"266 632 LINE SMOOTH",
"398 632 OFFCURVE",
"460 594 OFFCURVE",
"460 500 CURVE SMOOTH",
"460 412 OFFCURVE",
"404 366 OFFCURVE",
"260 366 CURVE SMOOTH"
);
}
);
width = 600;
}
);
unicode = 0243;
},
{
glyphname = Dhook;
lastChange = "2018-01-30 22:59:42 +0000";
layers = (
{
anchors = (
{
name = aboveUC;
position = "{320, 680}";
},
{
name = belowLC;
position = "{370, -20}";
}
);
layerId = "39876626-1A8B-482E-A4B0-28EC916B81A3";
paths = (
{
closed = 1;
nodes = (
"232 0 LINE",
"292 0 LINE SMOOTH",
"466 0 OFFCURVE",
"556 138 OFFCURVE",
"556 340 CURVE SMOOTH",
"556 540 OFFCURVE",
"469 672 OFFCURVE",
"260 672 CURVE SMOOTH",
"116 672 OFFCURVE",
"40 582 OFFCURVE",
"40 456 CURVE SMOOTH",
"40 362 OFFCURVE",
"80 304 OFFCURVE",
"148 270 CURVE",
"166 296 LINE",
"104 332 OFFCURVE",
"74 378 OFFCURVE",
"74 456 CURVE SMOOTH",
"74 562 OFFCURVE",
"140 642 OFFCURVE",
"258 642 CURVE SMOOTH",
"260 642 LINE SMOOTH",
"453 642 OFFCURVE",
"522 516 OFFCURVE",
"522 340 CURVE SMOOTH",
"522 161 OFFCURVE",
"454 28 OFFCURVE",
"296 28 CURVE SMOOTH",
"264 28 LINE",
"264 660 LINE",
"232 660 LINE"
);
}
);
width = 600;
}
);
unicode = 018A;
},
{
glyphname = Eogonek;
lastChange = "2018-01-30 22:59:42 +0000";
layers = (
{
anchors = (
{
name = aboveUC;
position = "{338, 680}";
}
);
layerId = "39876626-1A8B-482E-A4B0-28EC916B81A3";
paths = (
{
closed = 1;
nodes = (
"472 -224 CURVE SMOOTH",
"510 -224 OFFCURVE",
"530 -208 OFFCURVE",
"550 -188 CURVE",
"532 -170 LINE",
"518 -184 OFFCURVE",
"500 -196 OFFCURVE",
"474 -196 CURVE SMOOTH",
"441 -196 OFFCURVE",
"410 -176 OFFCURVE",
"410 -134 CURVE SMOOTH",
"410 -74 OFFCURVE",
"470 -12 OFFCURVE",
"524 0 CURVE",
"526 0 LINE",
"526 28 LINE",
"164 28 LINE",
"164 338 LINE",
"460 338 LINE",
"460 366 LINE",
"164 366 LINE",
"164 632 LINE",
"516 632 LINE",
"516 660 LINE",
"132 660 LINE",
"132 0 LINE",
"470 0 LINE",
"420 -30 OFFCURVE",
"380 -78 OFFCURVE",
"380 -136 CURVE SMOOTH",
"380 -196 OFFCURVE",
"419 -224 OFFCURVE"
);
}
);
width = 600;
}
);
unicode = 0118;
},
{
glyphname = Ghook;
lastChange = "2018-01-30 22:59:42 +0000";
layers = (
{
components = (
{
name = G;
}
);
layerId = "39876626-1A8B-482E-A4B0-28EC916B81A3";
paths = (
{
closed = 1;
nodes = (
"516 594 LINE",
"483 645 OFFCURVE",
"471 666 OFFCURVE",
"471 706 CURVE SMOOTH",
"471 735 OFFCURVE",
"489 764 OFFCURVE",
"527 764 CURVE SMOOTH",
"543 764 OFFCURVE",
"554 758 OFFCURVE",
"565 754 CURVE",
"573 780 LINE",
"560 786 OFFCURVE",
"545 792 OFFCURVE",
"529 792 CURVE SMOOTH",
"481 792 OFFCURVE",
"441 763 OFFCURVE",
"441 710 CURVE SMOOTH",
"441 670 OFFCURVE",
"453 649 OFFCURVE",
"486 598 CURVE"
);
}
);
width = 600;
}
);
unicode = 0193;
},
{
glyphname = Hbar;
lastChange = "2018-01-30 22:59:42 +0000";
layers = (
{
components = (
{
name = H;
}
);
layerId = "39876626-1A8B-482E-A4B0-28EC916B81A3";
paths = (
{
closed = 1;
nodes = (
"16 496 LINE",
"584 496 LINE",
"584 524 LINE",
"92 524 LINE",
"16 520 LINE"
);
}
);
width = 600;
}
);
unicode = 0126;
},
{
glyphname = Iogonek;
lastChange = "2018-01-30 22:59:42 +0000";
layers = (
{
anchors = (
{
name = aboveUC;
position = "{300, 680}";
}
);
layerId = "39876626-1A8B-482E-A4B0-28EC916B81A3";
paths = (
{
closed = 1;
nodes = (
"314 -224 CURVE SMOOTH",
"352 -224 OFFCURVE",
"372 -208 OFFCURVE",
"392 -188 CURVE",
"374 -170 LINE",
"360 -184 OFFCURVE",
"342 -196 OFFCURVE",
"316 -196 CURVE SMOOTH",
"283 -196 OFFCURVE",
"252 -176 OFFCURVE",
"252 -134 CURVE SMOOTH",
"252 -94 OFFCURVE",
"278 -50 OFFCURVE",
"324 0 CURVE",
"488 0 LINE",
"488 28 LINE",
"316 28 LINE",
"316 632 LINE",
"488 632 LINE",
"488 660 LINE",
"112 660 LINE",
"112 632 LINE",
"284 632 LINE",
"284 28 LINE",
"112 28 LINE",
"112 0 LINE",
"290 0 LINE",
"254 -40 OFFCURVE",
"222 -86 OFFCURVE",
"222 -136 CURVE SMOOTH",
"222 -196 OFFCURVE",
"261 -224 OFFCURVE"
);
}
);
width = 600;
}
);
unicode = 012E;
},
{
glyphname = Lslash;
lastChange = "2018-01-30 22:59:42 +0000";
layers = (
{
anchors = (
{
name = aboveUC;
position = "{186, 680}";
},
{
name = belowLC;
position = "{360, -20}";
}
);
components = (
{
name = L;
}
);
layerId = "39876626-1A8B-482E-A4B0-28EC916B81A3";
paths = (
{
closed = 1;
nodes = (
"36 190 LINE",
"158 252 LINE",
"184 264 LINE",
"434 394 LINE",
"422 418 LINE",
"184 294 LINE",
"158 282 LINE",
"24 214 LINE"
);
}
);
width = 600;
}
);
unicode = 0141;
},
{
glyphname = Oogonek;
lastChange = "2018-01-30 22:59:42 +0000";
layers = (
{
anchors = (
{
name = aboveUC;
position = "{300, 680}";
}
);
layerId = "39876626-1A8B-482E-A4B0-28EC916B81A3";
paths = (
{
closed = 1;
nodes = (
"314 -224 CURVE SMOOTH",
"352 -224 OFFCURVE",
"372 -208 OFFCURVE",
"392 -188 CURVE",
"374 -170 LINE",
"360 -184 OFFCURVE",
"342 -196 OFFCURVE",
"316 -196 CURVE SMOOTH",
"283 -196 OFFCURVE",
"252 -176 OFFCURVE",
"252 -134 CURVE SMOOTH",
"252 -86 OFFCURVE",
"292 -34 OFFCURVE",
"358 -6 CURVE SMOOTH",
"481 46 OFFCURVE",
"544 160 OFFCURVE",
"544 332 CURVE SMOOTH",
"544 540 OFFCURVE",
"442 672 OFFCURVE",
"300 672 CURVE SMOOTH",
"158 672 OFFCURVE",
"56 540 OFFCURVE",
"56 332 CURVE SMOOTH",
"56 136 OFFCURVE",
"144 -6 OFFCURVE",
"298 -12 CURVE",
"256 -46 OFFCURVE",
"222 -84 OFFCURVE",
"222 -136 CURVE SMOOTH",
"222 -196 OFFCURVE",
"261 -224 OFFCURVE"
);
},
{
closed = 1;
nodes = (
"300 18 CURVE SMOOTH",
"175 18 OFFCURVE",
"90 142 OFFCURVE",
"90 332 CURVE SMOOTH",
"90 522 OFFCURVE",
"175 642 OFFCURVE",
"300 642 CURVE SMOOTH",
"425 642 OFFCURVE",
"510 522 OFFCURVE",
"510 332 CURVE SMOOTH",
"510 142 OFFCURVE",
"425 18 OFFCURVE"
);
}
);
width = 600;
}
);
unicode = 01EA;
},
{
glyphname = Ohorn;
lastChange = "2018-01-30 22:59:42 +0000";
layers = (
{
anchors = (
{
name = aboveUC;
position = "{300, 680}";
},
{
name = belowLC;
position = "{300, -20}";
}
);
components = (
{
name = O;
}
);
layerId = "39876626-1A8B-482E-A4B0-28EC916B81A3";
paths = (
{
closed = 1;
nodes = (
"431 617 LINE",
"493 633 OFFCURVE",
"536 670 OFFCURVE",
"536 732 CURVE SMOOTH",
"536 754 OFFCURVE",
"530 776 OFFCURVE",
"518 798 CURVE",
"488 782 LINE",
"498 765 OFFCURVE",
"502 745 OFFCURVE",
"502 730 CURVE SMOOTH",
"502 682 OFFCURVE",
"470 650 OFFCURVE",
"400 640 CURVE"
);
}
);
width = 600;
}
);
unicode = 01A0;
},
{
glyphname = Oslash;
lastChange = "2018-01-30 22:59:42 +0000";
layers = (
{
anchors = (
{
name = aboveUC;
position = "{300, 680}";
},
{
name = baseLC;
position = "{300, 0}";
}
);
components = (
{
name = O;
}
);
layerId = "39876626-1A8B-482E-A4B0-28EC916B81A3";
paths = (
{
closed = 1;
nodes = (
"58 -4 LINE",
"80 -20 LINE",
"538 664 LINE",
"516 680 LINE"
);
}
);
width = 600;
}
);
unicode = 00D8;
},
{
glyphname = OE;
lastChange = "2018-01-30 22:59:42 +0000";
layers = (
{
anchors = (
{
name = aboveUC;
position = "{390, 680}";
},
{
name = baseLC;
position = "{470, 0}";
}
);
layerId = "39876626-1A8B-482E-A4B0-28EC916B81A3";
paths = (
{
closed = 1;
nodes = (
"303 0 CURVE SMOOTH",
"588 0 LINE",
"588 28 LINE",
"356 28 LINE",
"356 338 LINE",
"526 338 LINE",
"526 366 LINE",
"356 366 LINE",
"356 634 LINE",
"578 634 LINE",
"578 661 LINE",
"302 661 LINE SMOOTH",
"130 661 OFFCURVE",
"44 528 OFFCURVE",
"44 332 CURVE SMOOTH",
"44 136 OFFCURVE",
"130 0 OFFCURVE"
);
},
{
closed = 1;
nodes = (
"298 28 LINE SMOOTH",
"144 28 OFFCURVE",
"78 158 OFFCURVE",
"78 332 CURVE SMOOTH",
"78 506 OFFCURVE",
"144 633 OFFCURVE",
"298 633 CURVE SMOOTH",
"324 633 LINE",
"324 28 LINE"
);
}
);
width = 600;
}
);
unicode = 0152;
},
{
glyphname = Germandbls;
lastChange = "2018-01-30 22:59:42 +0000";
layers = (
{
layerId = "39876626-1A8B-482E-A4B0-28EC916B81A3";
paths = (
{
closed = 1;
nodes = (
"388 -12 CURVE SMOOTH",
"487 -12 OFFCURVE",
"561 64 OFFCURVE",
"561 166 CURVE SMOOTH",
"561 264 OFFCURVE",
"508 338 OFFCURVE",
"328 368 CURVE",
"328 341 LINE",
"502 540 LINE",
"466 620 OFFCURVE",
"410 672 OFFCURVE",
"308 672 CURVE SMOOTH",
"186 672 OFFCURVE",
"90 582 OFFCURVE",
"90 424 CURVE SMOOTH",
"90 0 LINE",
"123 0 LINE",
"123 412 LINE SMOOTH",
"123 570 OFFCURVE",
"200 642 OFFCURVE",
"306 642 CURVE SMOOTH",
"390 642 OFFCURVE",
"444 600 OFFCURVE",
"474 518 CURVE",
"482 565 LINE",
"309 366 LINE",
"311 338 LINE",
"490 308 OFFCURVE",
"526 244 OFFCURVE",
"526 164 CURVE SMOOTH",
"526 80 OFFCURVE",
"477 18 OFFCURVE",
"390 18 CURVE SMOOTH",
"329 18 OFFCURVE",
"285 42 OFFCURVE",
"244 92 CURVE",
"220 68 LINE",
"261 16 OFFCURVE",
"323 -12 OFFCURVE"
);
}
);
width = 600;
}
);
unicode = 1E9E;
},
{
glyphname = Tbar;
lastChange = "2018-01-30 22:59:42 +0000";
layers = (
{
anchors = (
{
name = aboveUC;
position = "{300, 680}";
},
{
name = belowLC;
position = "{300, -20}";
}
);
components = (
{
name = T;
}
);
layerId = "39876626-1A8B-482E-A4B0-28EC916B81A3";
paths = (
{
closed = 1;
nodes = (
"136 336 LINE",
"464 336 LINE",
"464 364 LINE",
"220 364 LINE",
"136 362 LINE"
);
}
);
width = 600;
}
);
unicode = 0166;
},
{
glyphname = Uogonek;
lastChange = "2018-01-30 22:59:42 +0000";
layers = (
{
anchors = (
{
name = aboveUC;
position = "{300, 680}";
}
);
layerId = "39876626-1A8B-482E-A4B0-28EC916B81A3";
paths = (
{
closed = 1;
nodes = (
"314 -224 CURVE SMOOTH",
"352 -224 OFFCURVE",
"372 -208 OFFCURVE",
"392 -188 CURVE",
"374 -170 LINE",
"360 -184 OFFCURVE",
"342 -196 OFFCURVE",
"316 -196 CURVE SMOOTH",
"283 -196 OFFCURVE",
"252 -176 OFFCURVE",
"252 -134 CURVE SMOOTH",
"252 -86 OFFCURVE",
"284 -34 OFFCURVE",
"362 -6 CURVE SMOOTH",
"456 28 OFFCURVE",
"508 92 OFFCURVE",
"508 246 CURVE SMOOTH",
"508 660 LINE",
"478 660 LINE",
"478 254 LINE SMOOTH",
"478 72 OFFCURVE",
"392 18 OFFCURVE",
"299 18 CURVE SMOOTH",
"206 18 OFFCURVE",
"124 72 OFFCURVE",
"124 254 CURVE SMOOTH",
"124 660 LINE",
"92 660 LINE",
"92 246 LINE SMOOTH",
"92 64 OFFCURVE",
"176 -8 OFFCURVE",
"292 -12 CURVE",
"256 -42 OFFCURVE",
"222 -83 OFFCURVE",
"222 -136 CURVE SMOOTH",
"222 -196 OFFCURVE",
"261 -224 OFFCURVE"
);
}
);
width = 600;
}
);
unicode = 0172;
},
{
glyphname = Uhorn;
lastChange = "2018-01-30 22:59:42 +0000";
layers = (
{
anchors = (
{
name = aboveUC;
position = "{300, 680}";
},
{
name = belowLC;
position = "{300, -20}";
}
);
components = (
{
name = U;
}
);
layerId = "39876626-1A8B-482E-A4B0-28EC916B81A3";
paths = (
{
closed = 1;
nodes = (
"506 638 LINE",
"556 652 OFFCURVE",
"606 680 OFFCURVE",
"606 752 CURVE SMOOTH",
"606 774 OFFCURVE",
"600 796 OFFCURVE",
"588 818 CURVE",
"558 802 LINE",
"568 785 OFFCURVE",
"572 765 OFFCURVE",
"572 750 CURVE SMOOTH",
"572 698 OFFCURVE",
"548 670 OFFCURVE",
"480 660 CURVE"
);
}
);
width = 600;
}
);
unicode = 01AF;
},
{
glyphname = Eth;
lastChange = "2018-01-30 22:59:42 +0000";
layers = (
{
anchors = (
{
name = aboveUC;
position = "{300, 680}";
},
{
name = belowLC;
position = "{290, -20}";
}
);
layerId = "39876626-1A8B-482E-A4B0-28EC916B81A3";
paths = (
{
closed = 1;
nodes = (
"100 0 LINE",
"248 0 LINE SMOOTH",
"452 0 OFFCURVE",
"544 136 OFFCURVE",
"544 332 CURVE SMOOTH",
"544 528 OFFCURVE",
"452 660 OFFCURVE",
"248 660 CURVE SMOOTH",
"100 660 LINE",
"100 366 LINE",
"22 362 LINE",
"22 338 LINE",
"100 338 LINE"
);
},
{
closed = 1;
nodes = (
"132 28 LINE",
"132 338 LINE",
"304 338 LINE",
"304 366 LINE",
"132 366 LINE",
"132 632 LINE",
"244 632 LINE SMOOTH",
"432 632 OFFCURVE",
"510 506 OFFCURVE",
"510 332 CURVE SMOOTH",
"510 158 OFFCURVE",
"432 28 OFFCURVE",
"244 28 CURVE SMOOTH"
);
}
);
width = 600;
}
);
unicode = 00D0;
},
{
glyphname = Thorn;
lastChange = "2018-01-30 22:59:42 +0000";
layers = (
{
layerId = "39876626-1A8B-482E-A4B0-28EC916B81A3";
paths = (
{
closed = 1;
nodes = (
"124 0 LINE",
"156 0 LINE",
"156 172 LINE",
"296 172 LINE SMOOTH",
"444 172 OFFCURVE",
"528 234 OFFCURVE",
"528 360 CURVE SMOOTH",
"528 492 OFFCURVE",
"444 540 OFFCURVE",
"296 540 CURVE SMOOTH",
"156 540 LINE",
"156 660 LINE",
"124 660 LINE"
);
},
{
closed = 1;
nodes = (
"156 200 LINE",
"156 512 LINE",
"284 512 LINE SMOOTH",
"426 512 OFFCURVE",
"494 476 OFFCURVE",
"494 360 CURVE SMOOTH",
"494 246 OFFCURVE",
"426 200 OFFCURVE",
"284 200 CURVE SMOOTH"
);
}
);
width = 600;
}
);
unicode = 00DE;
},
{
glyphname = Schwa;
lastChange = "2018-01-30 22:59:42 +0000";
layers = (
{
anchors = (
{
name = aboveUC;
position = "{316, 680}";
},
{
name = baseLC;
position = "{310, 0}";
},
{
name = belowLC;
position = "{300, -20}";
},
{
name = ogonekUC;
position = "{310, 0}";
}
);
layerId = "39876626-1A8B-482E-A4B0-28EC916B81A3";
paths = (
{
closed = 1;
nodes = (
"298 -12 CURVE SMOOTH",
"444 -12 OFFCURVE",
"542 124 OFFCURVE",
"542 332 CURVE SMOOTH",
"542 540 OFFCURVE",
"456 672 OFFCURVE",
"302 672 CURVE SMOOTH",
"230 672 OFFCURVE",
"174 640 OFFCURVE",
"136 598 CURVE",
"154 576 LINE",
"192 618 OFFCURVE",
"244 644 OFFCURVE",
"304 644 CURVE SMOOTH",
"438 644 OFFCURVE",
"510 520 OFFCURVE",
"510 332 CURVE SMOOTH",
"510 144 OFFCURVE",
"428 16 OFFCURVE",
"298 16 CURVE SMOOTH",
"172 16 OFFCURVE",
"98 140 OFFCURVE",
"98 332 CURVE",
"76 304 LINE",
"514 304 LINE",
"514 332 LINE",
"66 332 LINE",
"66 332 OFFCURVE",
"66 332 OFFCURVE",
"66 330 CURVE SMOOTH",
"66 132 OFFCURVE",
"152 -12 OFFCURVE"
);
}
);
width = 600;
}
);
unicode = 018F;
},
{
glyphname = Eng;
lastChange = "2018-01-30 22:59:42 +0000";
layers = (
{
anchors = (
{
name = aboveUC;
position = "{324, 680}";
},
{
name = belowLC;
position = "{310, -20}";
}
);
layerId = "39876626-1A8B-482E-A4B0-28EC916B81A3";
paths = (
{
closed = 1;
nodes = (
"392 -12 CURVE SMOOTH",
"471 -12 OFFCURVE",
"544 70 OFFCURVE",
"544 338 CURVE SMOOTH",
"544 584 OFFCURVE",
"447 672 OFFCURVE",
"318 672 CURVE SMOOTH",
"248 672 OFFCURVE",
"177 621 OFFCURVE",
"132 570 CURVE",
"132 660 LINE",
"100 660 LINE",
"100 0 LINE",
"132 0 LINE",
"132 532 LINE",
"176 589 OFFCURVE",
"256 642 OFFCURVE",
"316 642 CURVE SMOOTH",
"430 642 OFFCURVE",
"510 574 OFFCURVE",
"510 338 CURVE SMOOTH",
"510 98 OFFCURVE",
"455 20 OFFCURVE",
"390 20 CURVE SMOOTH",
"366 20 OFFCURVE",
"350 24 OFFCURVE",
"334 32 CURVE",
"322 0 LINE",
"340 -8 OFFCURVE",
"369 -12 OFFCURVE"
);
}
);
width = 600;
}
);
unicode = 014A;
},
{
glyphname = IJ;
lastChange = "2018-01-30 22:59:42 +0000";
layers = (
{
layerId = "39876626-1A8B-482E-A4B0-28EC916B81A3";
paths = (
{
closed = 1;
nodes = (
"142 0 LINE",
"174 0 LINE",
"174 660 LINE",
"142 660 LINE"
);
},
{
closed = 1;
nodes = (
"358 -152 CURVE SMOOTH",
"424 -152 OFFCURVE",
"458 -112 OFFCURVE",
"458 -20 CURVE SMOOTH",
"458 660 LINE",
"426 660 LINE",
"426 -12 LINE SMOOTH",
"426 -74 OFFCURVE",
"416 -120 OFFCURVE",
"360 -120 CURVE SMOOTH",
"340 -120 OFFCURVE",
"320 -114 OFFCURVE",
"308 -110 CURVE",
"300 -140 LINE",
"314 -146 OFFCURVE",
"338 -152 OFFCURVE"
);
}
);
width = 600;
}
);
unicode = 0132;
},
{
glyphname = Lcat;
lastChange = "2018-01-30 22:59:42 +0000";
layers = (
{
layerId = "39876626-1A8B-482E-A4B0-28EC916B81A3";
paths = (
{
closed = 1;
nodes = (
"94 0 LINE",
"276 0 LINE",
"276 28 LINE",
"124 28 LINE",
"124 660 LINE",
"94 660 LINE"
);
},
{
closed = 1;
nodes = (
"244 284 CURVE SMOOTH",
"270 284 OFFCURVE",
"296 304 OFFCURVE",
"296 342 CURVE SMOOTH",
"296 380 OFFCURVE",
"270 400 OFFCURVE",
"244 400 CURVE SMOOTH",
"218 400 OFFCURVE",
"192 380 OFFCURVE",
"192 342 CURVE SMOOTH",
"192 304 OFFCURVE",
"218 284 OFFCURVE"
);
},
{
closed = 1;
nodes = (
"354 0 LINE",
"536 0 LINE",
"536 28 LINE",
"384 28 LINE",
"384 660 LINE",
"354 660 LINE"
);
}
);
width = 600;
}
);
},
{
glyphname = aringacute;
lastChange = "2018-01-30 22:59:42 +0000";
layers = (
{
components = (
{
name = aring;
}
);
layerId = "39876626-1A8B-482E-A4B0-28EC916B81A3";
paths = (
{
closed = 1;
nodes = (
"284 722 LINE",
"408 784 LINE",
"392 814 LINE",
"266 734 LINE"
);
}
);
width = 600;
}
);
unicode = 01FB;
},
{
glyphname = aogonek;
lastChange = "2018-01-30 22:59:42 +0000";
layers = (
{
anchors = (
{
name = aboveLC;
position = "{320, 500}";
}
);
layerId = "39876626-1A8B-482E-A4B0-28EC916B81A3";
paths = (
{
closed = 1;
nodes = (
"464 -224 CURVE SMOOTH",
"502 -224 OFFCURVE",
"522 -208 OFFCURVE",
"542 -188 CURVE",
"524 -170 LINE",
"510 -184 OFFCURVE",
"492 -196 OFFCURVE",
"466 -196 CURVE SMOOTH",
"433 -196 OFFCURVE",
"402 -176 OFFCURVE",
"402 -134 CURVE SMOOTH",
"402 -86 OFFCURVE",
"430 -40 OFFCURVE",
"500 0 CURVE",
"500 310 LINE SMOOTH",
"500 406 OFFCURVE",
"451 490 OFFCURVE",
"324 490 CURVE SMOOTH",
"238 490 OFFCURVE",
"154 444 OFFCURVE",
"120 418 CURVE",
"136 394 LINE",
"173 422 OFFCURVE",
"246 462 OFFCURVE",
"322 462 CURVE SMOOTH",
"438 462 OFFCURVE",
"470 382 OFFCURVE",
"470 298 CURVE",
"206 274 OFFCURVE",
"96 224 OFFCURVE",
"96 117 CURVE SMOOTH",
"96 26 OFFCURVE",
"180 -12 OFFCURVE",
"264 -12 CURVE SMOOTH",
"336 -12 OFFCURVE",
"412 29 OFFCURVE",
"468 74 CURVE",
"470 74 LINE",
"474 10 LINE",
"410 -30 OFFCURVE",
"372 -78 OFFCURVE",
"372 -136 CURVE SMOOTH",
"372 -196 OFFCURVE",
"411 -224 OFFCURVE"
);
},
{
closed = 1;
nodes = (
"266 16 CURVE SMOOTH",
"198 16 OFFCURVE",
"128 44 OFFCURVE",
"128 118 CURVE SMOOTH",
"128 200 OFFCURVE",
"212 248 OFFCURVE",
"470 272 CURVE",
"470 108 LINE",
"398 47 OFFCURVE",
"330 16 OFFCURVE"
);
}
);
width = 600;
}
);
unicode = 0105;
},
{
glyphname = ae;
lastChange = "2018-01-30 22:59:42 +0000";
layers = (
{
anchors = (
{
name = aboveLC;
position = "{320, 500}";
},
{
name = baseLC;
position = "{460, 0}";
},
{
name = belowLC;
position = "{310, -20}";
}
);
layerId = "39876626-1A8B-482E-A4B0-28EC916B81A3";
paths = (
{
closed = 1;
nodes = (
"142 -12 CURVE SMOOTH",
"216 -12 OFFCURVE",
"280 40 OFFCURVE",
"328 104 CURVE",
"310 126 LINE",
"272 60 OFFCURVE",
"202 16 OFFCURVE",
"145 16 CURVE SMOOTH",
"88 16 OFFCURVE",
"50 51 OFFCURVE",
"50 112 CURVE SMOOTH",
"50 192 OFFCURVE",
"102 243 OFFCURVE",
"300 268 CURVE",
"300 294 LINE",
"94 272 OFFCURVE",
"18 208 OFFCURVE",
"18 112 CURVE SMOOTH",
"18 31 OFFCURVE",
"72 -12 OFFCURVE"
);
},
{
closed = 1;
nodes = (
"461 -12 CURVE SMOOTH",
"518 -12 OFFCURVE",
"556 8 OFFCURVE",
"586 28 CURVE",
"572 52 LINE",
"546 34 OFFCURVE",
"508 16 OFFCURVE",
"462 16 CURVE SMOOTH",
"360 16 OFFCURVE",
"314 110 OFFCURVE",
"314 240 CURVE SMOOTH",
"314 402 OFFCURVE",
"386 462 OFFCURVE",
"458 462 CURVE SMOOTH",
"536 462 OFFCURVE",
"572 390 OFFCURVE",
"572 254 CURVE",
"580 266 LINE",
"292 266 LINE",
"292 238 LINE",
"598 238 LINE",
"600 258 OFFCURVE",
"600 270 OFFCURVE",
"600 282 CURVE SMOOTH",
"600 392 OFFCURVE",
"556 490 OFFCURVE",
"458 490 CURVE SMOOTH",
"390 490 OFFCURVE",
"322 442 OFFCURVE",
"298 334 CURVE",
"312 334 LINE",
"300 442 OFFCURVE",
"252 490 OFFCURVE",
"180 490 CURVE SMOOTH",
"120 490 OFFCURVE",
"65 460 OFFCURVE",
"36 440 CURVE",
"50 417 LINE",
"78 438 OFFCURVE",
"132 462 OFFCURVE",
"176 462 CURVE SMOOTH",
"244 462 OFFCURVE",
"285 414 OFFCURVE",
"284 290 CURVE",
"284 244 LINE SMOOTH",
"284 96 OFFCURVE",
"346 -12 OFFCURVE"
);
}
);
width = 600;
}
);
unicode = 00E6;
},
{
glyphname = bstroke;
lastChange = "2018-01-30 22:59:42 +0000";
layers = (
{
layerId = "39876626-1A8B-482E-A4B0-28EC916B81A3";
paths = (
{
closed = 1;
nodes = (
"306 -12 CURVE SMOOTH",
"425 -12 OFFCURVE",
"530 80 OFFCURVE",
"530 236 CURVE SMOOTH",
"530 378 OFFCURVE",
"463 470 OFFCURVE",
"326 470 CURVE SMOOTH",
"262 470 OFFCURVE",
"190 434 OFFCURVE",
"140 382 CURVE",
"138 382 LINE",
"140 488 LINE",
"140 722 LINE",
"110 722 LINE",
"110 0 LINE",
"136 0 LINE",
"140 54 LINE",
"142 54 LINE",
"191 14 OFFCURVE",
"257 -12 OFFCURVE"
);
},
{
closed = 1;
nodes = (
"308 16 CURVE SMOOTH",
"267 16 OFFCURVE",
"200 37 OFFCURVE",
"140 92 CURVE",
"140 348 LINE",
"204 412 OFFCURVE",
"271 442 OFFCURVE",
"324 442 CURVE SMOOTH",
"449 442 OFFCURVE",
"498 352 OFFCURVE",
"498 236 CURVE SMOOTH",
"498 108 OFFCURVE",
"418 16 OFFCURVE"
);
},
{
closed = 1;
nodes = (
"32 584 LINE",
"376 584 LINE",
"376 612 LINE",
"110 612 LINE",
"32 608 LINE"
);
}
);
width = 600;
}
);
unicode = 0180;
},
{
glyphname = dcaron;
lastChange = "2018-01-30 22:59:42 +0000";
layers = (
{
components = (
{
name = caron.a;
transform = "{1, 0, 0, 1, 308, 0}";
}
);
layerId = "39876626-1A8B-482E-A4B0-28EC916B81A3";
paths = (
{
closed = 1;
nodes = (
"282 -12 CURVE SMOOTH",
"352 -12 OFFCURVE",
"415 29 OFFCURVE",
"458 74 CURVE",
"460 74 LINE",
"464 0 LINE",
"490 0 LINE",
"490 722 LINE",
"460 722 LINE",
"460 520 LINE",
"462 420 LINE",
"460 420 LINE",
"410 464 OFFCURVE",
"359 490 OFFCURVE",
"298 490 CURVE SMOOTH",
"177 490 OFFCURVE",
"70 392 OFFCURVE",
"70 238 CURVE SMOOTH",
"70 76 OFFCURVE",
"156 -12 OFFCURVE"
);
},
{
closed = 1;
nodes = (
"284 16 CURVE SMOOTH",
"170 16 OFFCURVE",
"102 106 OFFCURVE",
"102 238 CURVE SMOOTH",
"102 362 OFFCURVE",
"188 462 OFFCURVE",
"296 462 CURVE SMOOTH",
"349 462 OFFCURVE",
"402 441 OFFCURVE",
"460 386 CURVE",
"460 110 LINE",
"403 50 OFFCURVE",
"343 16 OFFCURVE"
);
}
);
width = 600;
}
);
unicode = 010F;
},
{
glyphname = dcroat;
lastChange = "2018-01-30 22:59:42 +0000";
layers = (
{
anchors = (
{
name = aboveUC;
position = "{470, 740}";
},
{
name = belowLC;
position = "{300, -20}";
}
);
layerId = "39876626-1A8B-482E-A4B0-28EC916B81A3";
paths = (
{
closed = 1;
nodes = (
"282 -12 CURVE SMOOTH",
"352 -12 OFFCURVE",
"415 29 OFFCURVE",
"458 74 CURVE",
"460 74 LINE",
"464 0 LINE",
"490 0 LINE",
"490 722 LINE",
"460 722 LINE",
"460 500 LINE",
"462 400 LINE",
"460 400 LINE",
"410 444 OFFCURVE",
"360 470 OFFCURVE",
"298 470 CURVE SMOOTH",
"177 470 OFFCURVE",
"70 376 OFFCURVE",
"70 228 CURVE SMOOTH",
"70 72 OFFCURVE",
"156 -12 OFFCURVE"
);
},
{
closed = 1;
nodes = (
"284 16 CURVE SMOOTH",
"170 16 OFFCURVE",
"102 102 OFFCURVE",
"102 228 CURVE SMOOTH",
"102 345 OFFCURVE",
"188 442 OFFCURVE",
"296 442 CURVE SMOOTH",
"349 442 OFFCURVE",
"402 421 OFFCURVE",
"460 366 CURVE",
"460 110 LINE",
"403 50 OFFCURVE",
"343 16 OFFCURVE"
);
},
{
closed = 1;
nodes = (
"272 584 LINE",
"490 584 LINE",
"566 588 LINE",
"566 612 LINE",
"272 612 LINE"
);
}
);
width = 600;
}
);
unicode = 0111;
},
{
glyphname = eogonek;
lastChange = "2018-01-30 22:59:42 +0000";
layers = (
{
anchors = (
{
name = aboveLC;
position = "{317, 500}";
}
);
layerId = "39876626-1A8B-482E-A4B0-28EC916B81A3";
paths = (
{
closed = 1;
nodes = (
"428 -224 CURVE SMOOTH",
"468 -224 OFFCURVE",
"488 -208 OFFCURVE",
"506 -188 CURVE",
"488 -170 LINE",
"476 -184 OFFCURVE",
"458 -196 OFFCURVE",
"430 -196 CURVE SMOOTH",
"399 -196 OFFCURVE",
"366 -176 OFFCURVE",
"366 -134 CURVE SMOOTH",
"366 -74 OFFCURVE",
"408 -30 OFFCURVE",
"510 44 CURVE",
"496 70 LINE",
"453 38 OFFCURVE",
"400 16 OFFCURVE",
"330 16 CURVE SMOOTH",
"214 16 OFFCURVE",
"112 96 OFFCURVE",
"112 240 CURVE SMOOTH",
"112 380 OFFCURVE",
"214 462 OFFCURVE",
"318 462 CURVE SMOOTH",
"426 462 OFFCURVE",
"502 394 OFFCURVE",
"502 250 CURVE",
"520 266 LINE",
"90 266 LINE",
"90 238 LINE",
"528 238 LINE",
"530 250 OFFCURVE",
"530 260 OFFCURVE",
"530 270 CURVE SMOOTH",
"530 408 OFFCURVE",
"446 490 OFFCURVE",
"318 490 CURVE SMOOTH",
"194 490 OFFCURVE",
"80 394 OFFCURVE",
"80 238 CURVE SMOOTH",
"80 82 OFFCURVE",
"194 -12 OFFCURVE",
"330 -12 CURVE SMOOTH",
"364 -12 OFFCURVE",
"394 -14 OFFCURVE",
"449 15 CURVE",
"446 20 LINE",
"384 -20 OFFCURVE",
"336 -70 OFFCURVE",
"336 -136 CURVE SMOOTH",
"336 -196 OFFCURVE",
"377 -224 OFFCURVE"
);
}
);
width = 600;
}
);
unicode = 0119;
},
{
glyphname = hbar;
lastChange = "2018-01-30 22:59:42 +0000";
layers = (
{
layerId = "39876626-1A8B-482E-A4B0-28EC916B81A3";
paths = (
{
closed = 1;
nodes = (
"110 0 LINE",
"140 0 LINE",
"140 326 LINE",
"214 404 OFFCURVE",
"264 442 OFFCURVE",
"336 442 CURVE SMOOTH",
"437 442 OFFCURVE",
"480 387 OFFCURVE",
"480 274 CURVE SMOOTH",
"480 0 LINE",
"510 0 LINE",
"510 278 LINE SMOOTH",
"510 409 OFFCURVE",
"453 470 OFFCURVE",
"336 470 CURVE SMOOTH",
"259 470 OFFCURVE",
"200 424 OFFCURVE",
"140 358 CURVE",
"138 358 LINE",
"140 488 LINE",
"140 722 LINE",
"110 722 LINE"
);
},
{
closed = 1;
nodes = (
"32 584 LINE",
"376 584 LINE",
"376 612 LINE",
"110 612 LINE",
"32 608 LINE"
);
}
);
width = 600;
}
);
unicode = 0127;
},
{
glyphname = dotlessi;
lastChange = "2018-01-30 22:59:42 +0000";
layers = (
{
anchors = (
{
name = aboveLC;
position = "{350, 500}";
},
{
name = baseLC;
position = "{354, 0}";
},
{
name = belowLC;
position = "{350, -20}";
},
{
name = ogonekLC;
position = "{360, 0}";
}
);
layerId = "39876626-1A8B-482E-A4B0-28EC916B81A3";
paths = (
{
closed = 1;
nodes = (
"346 0 LINE",
"376 0 LINE",
"376 478 LINE",
"100 478 LINE",
"100 450 LINE",
"346 450 LINE"
);
}
);
width = 600;
}
);
unicode = 0131;
},
{
glyphname = kgreenlandic;
lastChange = "2018-01-30 22:59:42 +0000";
layers = (
{
layerId = "39876626-1A8B-482E-A4B0-28EC916B81A3";
paths = (
{
closed = 1;
nodes = (
"130 0 LINE",
"160 0 LINE",
"160 136 LINE",
"308 276 LINE",
"528 0 LINE",
"564 0 LINE",
"332 294 LINE",
"530 478 LINE",
"490 478 LINE",
"162 176 LINE",
"160 174 LINE",
"160 478 LINE",
"130 478 LINE"
);
}
);
width = 600;
}
);
unicode = 0138;
},
{
glyphname = lslash;
lastChange = "2018-01-30 22:59:42 +0000";
layers = (
{
anchors = (
{
name = aboveUC;
position = "{294, 740}";
},
{
name = belowLC;
position = "{400, -20}";
}
);
components = (
{
name = l;
}
);
layerId = "39876626-1A8B-482E-A4B0-28EC916B81A3";
paths = (
{
closed = 1;
nodes = (
"154 304 LINE",
"282 380 LINE",
"308 392 LINE",
"490 498 LINE",
"478 522 LINE",
"308 424 LINE",
"282 412 LINE",
"142 328 LINE"
);
}
);
width = 600;
}
);
unicode = 0142;
},
{
glyphname = napostrophe;
lastChange = "2018-01-30 22:59:42 +0000";
layers = (
{
components = (
{
name = quoteright;
transform = "{1, 0, 0, 1, -232, 0}";
}
);
layerId = "39876626-1A8B-482E-A4B0-28EC916B81A3";
paths = (
{
closed = 1;
nodes = (
"180 0 LINE",
"210 0 LINE",
"210 356 LINE",
"280 427 OFFCURVE",
"328 462 OFFCURVE",
"396 462 CURVE SMOOTH",
"490 462 OFFCURVE",
"530 410 OFFCURVE",
"530 304 CURVE SMOOTH",
"530 0 LINE",
"560 0 LINE",
"560 308 LINE SMOOTH",
"560 432 OFFCURVE",
"506 490 OFFCURVE",
"396 490 CURVE SMOOTH",
"322 490 OFFCURVE",
"268 448 OFFCURVE",
"214 392 CURVE",
"210 392 LINE",
"206 478 LINE",
"180 478 LINE"
);
}
);
width = 600;
}
);
unicode = 0149;
},
{
glyphname = oogonek;
lastChange = "2018-01-30 22:59:42 +0000";
layers = (
{
anchors = (
{
name = aboveLC;
position = "{300, 500}";
}
);
layerId = "39876626-1A8B-482E-A4B0-28EC916B81A3";
paths = (
{
closed = 1;
nodes = (
"328 -224 CURVE SMOOTH",
"366 -224 OFFCURVE",
"386 -208 OFFCURVE",
"406 -188 CURVE",
"388 -170 LINE",
"374 -184 OFFCURVE",
"356 -196 OFFCURVE",
"330 -196 CURVE SMOOTH",
"297 -196 OFFCURVE",
"266 -176 OFFCURVE",
"266 -134 CURVE SMOOTH",
"266 -86 OFFCURVE",
"304 -30 OFFCURVE",
"360 -6 CURVE SMOOTH",
"462 38 OFFCURVE",
"530 100 OFFCURVE",
"530 238 CURVE SMOOTH",
"530 398 OFFCURVE",
"425 490 OFFCURVE",
"300 490 CURVE SMOOTH",
"175 490 OFFCURVE",
"70 398 OFFCURVE",
"70 238 CURVE SMOOTH",
"70 86 OFFCURVE",
"166 -12 OFFCURVE",
"308 -12 CURVE",
"268 -44 OFFCURVE",
"236 -84 OFFCURVE",
"236 -136 CURVE SMOOTH",
"236 -196 OFFCURVE",
"275 -224 OFFCURVE"
);
},
{
closed = 1;
nodes = (
"300 16 CURVE SMOOTH",
"186 16 OFFCURVE",
"102 106 OFFCURVE",
"102 238 CURVE SMOOTH",
"102 370 OFFCURVE",
"186 462 OFFCURVE",
"300 462 CURVE SMOOTH",
"414 462 OFFCURVE",
"498 370 OFFCURVE",
"498 238 CURVE SMOOTH",
"498 106 OFFCURVE",
"414 16 OFFCURVE"
);
}
);
width = 600;
}
);
unicode = 01EB;
},
{
glyphname = ohorn;
lastChange = "2018-01-30 22:59:42 +0000";
layers = (
{
anchors = (
{
name = aboveLC;
position = "{300, 500}";
},
{
name = belowLC;
position = "{300, -20}";
}
);
components = (
{
name = o;
}
);
layerId = "39876626-1A8B-482E-A4B0-28EC916B81A3";
paths = (
{
closed = 1;
nodes = (
"423 446 LINE",
"474 460 OFFCURVE",
"532 492 OFFCURVE",
"532 570 CURVE SMOOTH",
"532 592 OFFCURVE",
"525 614 OFFCURVE",
"514 636 CURVE",
"486 620 LINE",
"496 603 OFFCURVE",
"500 583 OFFCURVE",
"500 568 CURVE SMOOTH",
"500 510 OFFCURVE",
"464 478 OFFCURVE",
"392 467 CURVE"
);
}
);
width = 600;
}
);
unicode = 01A1;
},
{
glyphname = oslash;
lastChange = "2018-01-30 22:59:42 +0000";
layers = (
{
anchors = (
{
name = aboveLC;
position = "{300, 500}";
},
{
name = baseLC;
position = "{300, 0}";
},
{
name = belowLC;
position = "{300, -20}";
}
);
layerId = "39876626-1A8B-482E-A4B0-28EC916B81A3";
paths = (
{
closed = 1;
nodes = (
"300 -12 CURVE SMOOTH",
"425 -12 OFFCURVE",
"530 80 OFFCURVE",
"530 238 CURVE SMOOTH",
"530 398 OFFCURVE",
"425 490 OFFCURVE",
"300 490 CURVE SMOOTH",
"175 490 OFFCURVE",
"70 398 OFFCURVE",
"70 238 CURVE SMOOTH",
"70 80 OFFCURVE",
"175 -12 OFFCURVE"
);
},
{
closed = 1;
nodes = (
"300 16 CURVE SMOOTH",
"186 16 OFFCURVE",
"102 106 OFFCURVE",
"102 238 CURVE SMOOTH",
"102 370 OFFCURVE",
"186 462 OFFCURVE",
"300 462 CURVE SMOOTH",
"414 462 OFFCURVE",
"498 370 OFFCURVE",
"498 238 CURVE SMOOTH",
"498 106 OFFCURVE",
"414 16 OFFCURVE"
);
},
{
closed = 1;
nodes = (
"92 -22 LINE",
"530 480 LINE",
"508 498 LINE",
"70 -4 LINE"
);
}
);
width = 600;
}
);
unicode = 00F8;
},
{
glyphname = oe;
lastChange = "2018-01-30 22:59:42 +0000";
layers = (
{
anchors = (
{
name = aboveLC;
position = "{320, 500}";
},
{
name = baseLC;
position = "{470, 0}";
},
{
name = belowLC;
position = "{310, -20}";
}
);
layerId = "39876626-1A8B-482E-A4B0-28EC916B81A3";
paths = (
{
closed = 1;
nodes = (
"174 16 CURVE SMOOTH",
"90 16 OFFCURVE",
"42 106 OFFCURVE",
"42 238 CURVE SMOOTH",
"42 372 OFFCURVE",
"90 462 OFFCURVE",
"174 462 CURVE SMOOTH",
"250 462 OFFCURVE",
"304 371 OFFCURVE",
"304 239 CURVE SMOOTH",
"304 107 OFFCURVE",
"250 16 OFFCURVE"
);
},
{
closed = 1;
nodes = (
"174 -12 CURVE SMOOTH",
"250 -12 OFFCURVE",
"302 48 OFFCURVE",
"327 168 CURVE",
"309 168 LINE",
"332 48 OFFCURVE",
"386 -12 OFFCURVE",
"475 -12 CURVE SMOOTH",
"526 -12 OFFCURVE",
"560 8 OFFCURVE",
"586 28 CURVE",
"572 52 LINE",
"546 34 OFFCURVE",
"517 16 OFFCURVE",
"476 16 CURVE SMOOTH",
"392 16 OFFCURVE",
"334 92 OFFCURVE",
"334 240 CURVE SMOOTH",
"334 382 OFFCURVE",
"386 462 OFFCURVE",
"464 462 CURVE SMOOTH",
"536 462 OFFCURVE",
"572 390 OFFCURVE",
"572 254 CURVE",
"580 266 LINE",
"320 266 LINE",
"320 238 LINE",
"598 238 LINE",
"600 258 OFFCURVE",
"600 270 OFFCURVE",
"600 282 CURVE SMOOTH",
"600 394 OFFCURVE",
"556 490 OFFCURVE",
"466 490 CURVE SMOOTH",
"386 490 OFFCURVE",
"332 430 OFFCURVE",
"310 310 CURVE",
"326 310 LINE",
"302 430 OFFCURVE",
"250 490 OFFCURVE",
"174 490 CURVE SMOOTH",
"78 490 OFFCURVE",
"10 398 OFFCURVE",
"10 238 CURVE SMOOTH",
"10 80 OFFCURVE",
"78 -12 OFFCURVE"
);
}
);
width = 600;
}
);
unicode = 0153;
},
{
glyphname = germandbls;
lastChange = "2018-01-30 22:59:42 +0000";
layers = (
{
layerId = "39876626-1A8B-482E-A4B0-28EC916B81A3";
paths = (
{
closed = 1;
nodes = (
"404 -12 CURVE SMOOTH",
"491 -12 OFFCURVE",
"558 46 OFFCURVE",
"558 124 CURVE SMOOTH",
"558 294 OFFCURVE",
"320 256 OFFCURVE",
"320 378 CURVE SMOOTH",
"320 462 OFFCURVE",
"434 498 OFFCURVE",
"434 602 CURVE SMOOTH",
"434 676 OFFCURVE",
"377 734 OFFCURVE",
"290 734 CURVE SMOOTH",
"187 734 OFFCURVE",
"110 660 OFFCURVE",
"110 538 CURVE SMOOTH",
"110 0 LINE",
"140 0 LINE",
"140 524 LINE SMOOTH",
"140 648 OFFCURVE",
"201 706 OFFCURVE",
"288 706 CURVE SMOOTH",
"362 706 OFFCURVE",
"402 660 OFFCURVE",
"402 600 CURVE SMOOTH",
"402 508 OFFCURVE",
"288 476 OFFCURVE",
"288 376 CURVE SMOOTH",
"288 230 OFFCURVE",
"526 270 OFFCURVE",
"526 122 CURVE SMOOTH",
"526 68 OFFCURVE",
"486 16 OFFCURVE",
"405 16 CURVE SMOOTH",
"356 16 OFFCURVE",
"318 32 OFFCURVE",
"276 64 CURVE",
"257 40 LINE",
"296 8 OFFCURVE",
"347 -12 OFFCURVE"
);
}
);
width = 600;
}
);
unicode = 00DF;
},
{
glyphname = longs;
lastChange = "2018-01-30 22:59:42 +0000";
layers = (
{
layerId = "39876626-1A8B-482E-A4B0-28EC916B81A3";
paths = (
{
closed = 1;
nodes = (
"266 0 LINE",
"294 0 LINE",
"294 546 LINE SMOOTH",
"294 640 OFFCURVE",
"334 706 OFFCURVE",
"440 706 CURVE SMOOTH",
"486 706 OFFCURVE",
"514 702 OFFCURVE",
"560 680 CURVE",
"572 704 LINE",
"522 728 OFFCURVE",
"481 734 OFFCURVE",
"440 734 CURVE SMOOTH",
"324 734 OFFCURVE",
"266 664 OFFCURVE",
"266 542 CURVE SMOOTH"
);
},
{
closed = 1;
nodes = (
"120 450 LINE",
"284 450 LINE",
"284 478 LINE",
"266 478 LINE",
"120 474 LINE"
);
}
);
width = 600;
}
);
unicode = 017F;
},
{
glyphname = tbar;
lastChange = "2018-01-30 22:59:42 +0000";
layers = (
{
anchors = (
{
name = aboveLC;
position = "{250, 630}";
},
{
name = belowLC;
position = "{390, -20}";
}
);
components = (
{
name = t;
}
);
layerId = "39876626-1A8B-482E-A4B0-28EC916B81A3";
paths = (
{
closed = 1;
nodes = (
"84 238 LINE",
"504 238 LINE",
"504 266 LINE",
"232 266 LINE",
"84 262 LINE"
);
}
);
width = 600;
}
);
unicode = 0167;
},
{
glyphname = uogonek;
lastChange = "2018-01-30 22:59:42 +0000";
layers = (
{
anchors = (
{
name = aboveLC;
position = "{294, 500}";
}
);
layerId = "39876626-1A8B-482E-A4B0-28EC916B81A3";
paths = (
{
closed = 1;
nodes = (
"454 -224 CURVE SMOOTH",
"492 -224 OFFCURVE",
"512 -208 OFFCURVE",
"532 -188 CURVE",
"514 -170 LINE",
"500 -184 OFFCURVE",
"482 -196 OFFCURVE",
"456 -196 CURVE SMOOTH",
"423 -196 OFFCURVE",
"392 -176 OFFCURVE",
"392 -134 CURVE SMOOTH",
"392 -90 OFFCURVE",
"420 -48 OFFCURVE",
"490 -8 CURVE",
"490 478 LINE",
"460 478 LINE",
"460 132 LINE",
"390 53 OFFCURVE",
"336 16 OFFCURVE",
"264 16 CURVE SMOOTH",
"163 16 OFFCURVE",
"120 71 OFFCURVE",
"120 184 CURVE SMOOTH",
"120 478 LINE",
"90 478 LINE",
"90 180 LINE SMOOTH",
"90 49 OFFCURVE",
"147 -12 OFFCURVE",
"264 -12 CURVE SMOOTH",
"342 -12 OFFCURVE",
"403 34 OFFCURVE",
"456 96 CURVE",
"460 96 LINE",
"464 2 LINE",
"400 -38 OFFCURVE",
"362 -82 OFFCURVE",
"362 -136 CURVE SMOOTH",
"362 -196 OFFCURVE",
"401 -224 OFFCURVE"
);
}
);
width = 600;
}
);
unicode = 0173;
},
{
glyphname = uhorn;
lastChange = "2018-01-30 22:59:42 +0000";
layers = (
{
anchors = (
{
name = aboveLC;
position = "{294, 500}";
},
{
name = belowLC;
position = "{290, -20}";
}
);
components = (
{
name = u;
}
);
layerId = "39876626-1A8B-482E-A4B0-28EC916B81A3";
paths = (
{
closed = 1;
nodes = (
"488 458 LINE",
"526 471 OFFCURVE",
"578 499 OFFCURVE",
"578 580 CURVE SMOOTH",
"578 602 OFFCURVE",
"572 624 OFFCURVE",
"560 646 CURVE",
"532 630 LINE",
"542 613 OFFCURVE",
"546 593 OFFCURVE",
"546 578 CURVE SMOOTH",
"546 520 OFFCURVE",
"515 489 OFFCURVE",
"462 478 CURVE"
);
}
);
width = 600;
}
);
unicode = 01B0;
},
{
glyphname = eth;
lastChange = "2018-01-30 22:59:42 +0000";
layers = (
{
anchors = (
{
name = aboveUC;
position = "{330, 740}";
},
{
name = belowLC;
position = "{310, -20}";
}
);
layerId = "39876626-1A8B-482E-A4B0-28EC916B81A3";
paths = (
{
closed = 1;
nodes = (
"300 -12 CURVE SMOOTH",
"434 -12 OFFCURVE",
"524 90 OFFCURVE",
"524 250 CURVE SMOOTH",
"524 510 OFFCURVE",
"386 638 OFFCURVE",
"206 722 CURVE",
"190 700 LINE",
"364 614 OFFCURVE",
"492 510 OFFCURVE",
"492 250 CURVE SMOOTH",
"492 122 OFFCURVE",
"437 16 OFFCURVE",
"300 16 CURVE SMOOTH",
"191 16 OFFCURVE",
"102 100 OFFCURVE",
"102 218 CURVE SMOOTH",
"102 320 OFFCURVE",
"166 412 OFFCURVE",
"302 412 CURVE SMOOTH",
"364 412 OFFCURVE",
"438 382 OFFCURVE",
"494 298 CURVE",
"494 336 LINE",
"452 394 OFFCURVE",
"380 440 OFFCURVE",
"304 440 CURVE SMOOTH",
"160 440 OFFCURVE",
"70 348 OFFCURVE",
"70 218 CURVE SMOOTH",
"70 74 OFFCURVE",
"181 -12 OFFCURVE"
);
},
{
closed = 1;
nodes = (
"200 520 LINE",
"502 678 LINE",
"490 700 LINE",
"188 542 LINE"
);
}
);
width = 600;
}
);
unicode = 00F0;
},
{
glyphname = thorn;
lastChange = "2018-01-30 22:59:42 +0000";
layers = (
{
anchors = (
{
name = aboveUC;
position = "{130, 740}";
},
{
name = belowLC;
position = "{130, -230}";
}
);
layerId = "39876626-1A8B-482E-A4B0-28EC916B81A3";
paths = (
{
closed = 1;
nodes = (
"110 -222 LINE",
"140 -222 LINE",
"140 -42 LINE",
"138 58 LINE",
"140 58 LINE",
"192 14 OFFCURVE",
"255 -12 OFFCURVE",
"304 -12 CURVE SMOOTH",
"423 -12 OFFCURVE",
"530 84 OFFCURVE",
"530 246 CURVE SMOOTH",
"530 394 OFFCURVE",
"461 490 OFFCURVE",
"324 490 CURVE SMOOTH",
"260 490 OFFCURVE",
"192 454 OFFCURVE",
"140 402 CURVE",
"138 402 LINE",
"140 498 LINE",
"140 722 LINE",
"110 722 LINE"
);
},
{
closed = 1;
nodes = (
"306 16 CURVE SMOOTH",
"265 16 OFFCURVE",
"200 37 OFFCURVE",
"140 92 CURVE",
"140 368 LINE",
"204 432 OFFCURVE",
"269 462 OFFCURVE",
"322 462 CURVE SMOOTH",
"447 462 OFFCURVE",
"498 368 OFFCURVE",
"498 246 CURVE SMOOTH",
"498 112 OFFCURVE",
"416 16 OFFCURVE"
);
}
);
width = 600;
}
);
unicode = 00FE;
},
{
glyphname = eng;
lastChange = "2018-01-30 22:59:42 +0000";
layers = (
{
anchors = (
{
name = aboveLC;
position = "{320, 500}";
},
{
name = belowLC;
position = "{390, -230}";
}
);
layerId = "39876626-1A8B-482E-A4B0-28EC916B81A3";
paths = (
{
closed = 1;
nodes = (
"402 -180 CURVE SMOOTH",
"475 -180 OFFCURVE",
"510 -137 OFFCURVE",
"510 -38 CURVE SMOOTH",
"510 -38 OFFCURVE",
"510 298 OFFCURVE",
"510 298 CURVE SMOOTH",
"510 429 OFFCURVE",
"453 490 OFFCURVE",
"336 490 CURVE SMOOTH",
"258 490 OFFCURVE",
"201 444 OFFCURVE",
"144 382 CURVE",
"140 382 LINE",
"136 478 LINE",
"110 478 LINE",
"110 0 LINE",
"140 0 LINE",
"140 346 LINE",
"214 424 OFFCURVE",
"264 462 OFFCURVE",
"336 462 CURVE SMOOTH",
"437 462 OFFCURVE",
"480 407 OFFCURVE",
"480 294 CURVE SMOOTH",
"480 294 OFFCURVE",
"480 -34 OFFCURVE",
"480 -34 CURVE SMOOTH",
"480 -102 OFFCURVE",
"468 -152 OFFCURVE",
"404 -152 CURVE SMOOTH",
"380 -152 OFFCURVE",
"356 -145 OFFCURVE",
"342 -140 CURVE",
"334 -166 LINE",
"350 -173 OFFCURVE",
"379 -180 OFFCURVE"
);
}
);
width = 600;
}
);
unicode = 014B;
},
{
glyphname = dotlessj;
lastChange = "2018-01-30 22:59:42 +0000";
layers = (
{
anchors = (
{
name = aboveLC;
position = "{350, 500}";
},
{
name = belowLC;
position = "{230, -230}";
}
);
layerId = "39876626-1A8B-482E-A4B0-28EC916B81A3";
paths = (
{
closed = 1;
nodes = (
"194 -234 CURVE SMOOTH",
"332 -234 OFFCURVE",
"376 -164 OFFCURVE",
"376 -46 CURVE SMOOTH",
"376 478 LINE",
"100 478 LINE",
"100 450 LINE",
"346 450 LINE",
"346 -52 LINE SMOOTH",
"346 -143 OFFCURVE",
"316 -206 OFFCURVE",
"199 -206 CURVE SMOOTH",
"156 -206 OFFCURVE",
"111 -192 OFFCURVE",
"80 -176 CURVE",
"66 -202 LINE",
"101 -220 OFFCURVE",
"151 -234 OFFCURVE"
);
}
);
width = 600;
}
);
unicode = 0237;
},
{
glyphname = ij;
lastChange = "2018-01-30 22:59:42 +0000";
layers = (
{
layerId = "39876626-1A8B-482E-A4B0-28EC916B81A3";
paths = (
{
closed = 1;
nodes = (
"140 0 LINE",
"170 0 LINE",
"170 478 LINE",
"140 478 LINE"
);
},
{
closed = 1;
nodes = (
"156 600 CURVE SMOOTH",
"178 600 OFFCURVE",
"196 616 OFFCURVE",
"196 642 CURVE SMOOTH",
"196 668 OFFCURVE",
"178 684 OFFCURVE",
"156 684 CURVE SMOOTH",
"134 684 OFFCURVE",
"116 668 OFFCURVE",
"116 642 CURVE SMOOTH",
"116 616 OFFCURVE",
"134 600 OFFCURVE"
);
},
{
closed = 1;
nodes = (
"382 -234 CURVE SMOOTH",
"448 -234 OFFCURVE",
"480 -194 OFFCURVE",
"480 -102 CURVE SMOOTH",
"480 478 LINE",
"450 478 LINE",
"450 -98 LINE SMOOTH",
"450 -160 OFFCURVE",
"440 -206 OFFCURVE",
"384 -206 CURVE SMOOTH",
"364 -206 OFFCURVE",
"344 -200 OFFCURVE",
"332 -196 CURVE",
"324 -222 LINE",
"338 -228 OFFCURVE",
"362 -234 OFFCURVE"
);
},
{
closed = 1;
nodes = (
"466 600 CURVE SMOOTH",
"488 600 OFFCURVE",
"506 616 OFFCURVE",
"506 642 CURVE SMOOTH",
"506 668 OFFCURVE",
"488 684 OFFCURVE",
"466 684 CURVE SMOOTH",
"444 684 OFFCURVE",
"426 668 OFFCURVE",
"426 642 CURVE SMOOTH",
"426 616 OFFCURVE",
"444 600 OFFCURVE"
);
}
);
width = 600;
}
);
unicode = 0133;
},
{
glyphname = lcat;
lastChange = "2018-01-30 22:59:42 +0000";
layers = (
{
layerId = "39876626-1A8B-482E-A4B0-28EC916B81A3";
paths = (
{
closed = 1;
nodes = (
"231 -12 CURVE SMOOTH",
"259 -12 OFFCURVE",
"279 0 OFFCURVE",
"302 9 CURVE",
"290 34 LINE",
"267 23 OFFCURVE",
"251 16 OFFCURVE",
"233 16 CURVE SMOOTH",
"184 16 OFFCURVE",
"160 54 OFFCURVE",
"160 132 CURVE SMOOTH",
"160 722 LINE",
"10 722 LINE",
"10 694 LINE",
"130 694 LINE",
"130 138 LINE SMOOTH",
"130 31 OFFCURVE",
"167 -12 OFFCURVE"
);
},
{
closed = 1;
nodes = (
"304 284 CURVE SMOOTH",
"330 284 OFFCURVE",
"356 304 OFFCURVE",
"356 342 CURVE SMOOTH",
"356 380 OFFCURVE",
"330 400 OFFCURVE",
"304 400 CURVE SMOOTH",
"278 400 OFFCURVE",
"252 380 OFFCURVE",
"252 342 CURVE SMOOTH",
"252 304 OFFCURVE",
"278 284 OFFCURVE"
);
},
{
closed = 1;
nodes = (
"541 -12 CURVE SMOOTH",
"569 -12 OFFCURVE",
"589 0 OFFCURVE",
"612 9 CURVE",
"600 34 LINE",
"577 23 OFFCURVE",
"561 16 OFFCURVE",
"543 16 CURVE SMOOTH",
"494 16 OFFCURVE",
"470 54 OFFCURVE",
"470 132 CURVE SMOOTH",
"470 722 LINE",
"320 722 LINE",
"320 694 LINE",
"440 694 LINE",
"440 138 LINE SMOOTH",
"440 31 OFFCURVE",
"477 -12 OFFCURVE"
);
}
);
width = 600;
}
);
},
{
glyphname = ijacute;
lastChange = "2018-01-30 22:59:42 +0000";
layers = (
{
components = (
{
name = acutecmb;
transform = "{1, 0, 0, 1, -156, 0}";
},
{
name = acutecmb;
transform = "{1, 0, 0, 1, 154, 0}";
}
);
layerId = "39876626-1A8B-482E-A4B0-28EC916B81A3";
paths = (
{
closed = 1;
nodes = (
"140 0 LINE",
"170 0 LINE",
"170 478 LINE",
"140 478 LINE"
);
},
{
closed = 1;
nodes = (
"382 -234 CURVE SMOOTH",
"448 -234 OFFCURVE",
"480 -194 OFFCURVE",
"480 -102 CURVE SMOOTH",
"480 478 LINE",
"450 478 LINE",
"450 -98 LINE SMOOTH",
"450 -160 OFFCURVE",
"440 -206 OFFCURVE",
"384 -206 CURVE SMOOTH",
"364 -206 OFFCURVE",
"344 -200 OFFCURVE",
"332 -196 CURVE",
"324 -222 LINE",
"338 -228 OFFCURVE",
"362 -234 OFFCURVE"
);
}
);
width = 600;
}
);
},
{
glyphname = aturned;
lastChange = "2018-01-30 22:59:42 +0000";
layers = (
{
anchors = (
{
name = aboveLC;
position = "{320, 500}";
},
{
name = belowLC;
position = "{310, -20}";
}
);
layerId = "39876626-1A8B-482E-A4B0-28EC916B81A3";
paths = (
{
closed = 1;
nodes = (
"288 -12 CURVE SMOOTH",
"374 -12 OFFCURVE",
"458 34 OFFCURVE",
"492 60 CURVE",
"476 84 LINE",
"439 56 OFFCURVE",
"366 16 OFFCURVE",
"290 16 CURVE SMOOTH",
"174 16 OFFCURVE",
"142 96 OFFCURVE",
"142 180 CURVE",
"406 204 OFFCURVE",
"516 254 OFFCURVE",
"516 361 CURVE SMOOTH",
"516 452 OFFCURVE",
"432 490 OFFCURVE",
"348 490 CURVE SMOOTH",
"276 490 OFFCURVE",
"200 449 OFFCURVE",
"144 404 CURVE",
"142 404 LINE",
"138 478 LINE",
"112 478 LINE",
"112 168 LINE SMOOTH",
"112 72 OFFCURVE",
"161 -12 OFFCURVE"
);
},
{
closed = 1;
nodes = (
"142 206 CURVE",
"142 370 LINE",
"214 431 OFFCURVE",
"282 462 OFFCURVE",
"346 462 CURVE SMOOTH",
"414 462 OFFCURVE",
"484 434 OFFCURVE",
"484 360 CURVE SMOOTH",
"484 278 OFFCURVE",
"400 230 OFFCURVE"
);
}
);
width = 600;
}
);
unicode = 0250;
},
{
glyphname = alphalatinturned;
lastChange = "2018-01-30 22:59:42 +0000";
layers = (
{
anchors = (
{
name = aboveLC;
position = "{320, 500}";
},
{
name = belowLC;
position = "{320, -20}";
}
);
layerId = "39876626-1A8B-482E-A4B0-28EC916B81A3";
paths = (
{
closed = 1;
nodes = (
"306 -12 CURVE SMOOTH",
"426 -12 OFFCURVE",
"530 84 OFFCURVE",
"530 246 CURVE SMOOTH",
"530 394 OFFCURVE",
"463 490 OFFCURVE",
"326 490 CURVE SMOOTH",
"256 490 OFFCURVE",
"185 449 OFFCURVE",
"142 404 CURVE",
"140 404 LINE",
"136 478 LINE",
"110 478 LINE",
"110 0 LINE",
"136 0 LINE",
"140 54 LINE",
"142 54 LINE",
"192 14 OFFCURVE",
"256 -12 OFFCURVE"
);
},
{
closed = 1;
nodes = (
"308 16 CURVE SMOOTH",
"266 16 OFFCURVE",
"202 36 OFFCURVE",
"140 92 CURVE",
"140 368 LINE",
"197 428 OFFCURVE",
"265 462 OFFCURVE",
"324 462 CURVE SMOOTH",
"449 462 OFFCURVE",
"498 368 OFFCURVE",
"498 246 CURVE SMOOTH",
"498 112 OFFCURVE",
"418 16 OFFCURVE"
);
}
);
width = 600;
}
);
unicode = 0252;
},
{
glyphname = bhook;
lastChange = "2018-01-30 22:59:42 +0000";
layers = (
{
anchors = (
{
name = aboveUC;
position = "{300, 740}";
},
{
name = belowLC;
position = "{320, -20}";
}
);
layerId = "39876626-1A8B-482E-A4B0-28EC916B81A3";
paths = (
{
closed = 1;
nodes = (
"306 -12 CURVE SMOOTH",
"425 -12 OFFCURVE",
"530 84 OFFCURVE",
"530 246 CURVE SMOOTH",
"530 394 OFFCURVE",
"463 490 OFFCURVE",
"326 490 CURVE SMOOTH",
"262 490 OFFCURVE",
"190 454 OFFCURVE",
"140 402 CURVE",
"136 402 LINE",
"140 562 LINE",
"140 646 OFFCURVE",
"175 706 OFFCURVE",
"258 706 CURVE SMOOTH",
"279 706 OFFCURVE",
"303 702 OFFCURVE",
"326 690 CURVE",
"338 716 LINE",
"313 727 OFFCURVE",
"283 734 OFFCURVE",
"260 734 CURVE SMOOTH",
"168 734 OFFCURVE",
"110 674 OFFCURVE",
"110 566 CURVE",
"110 0 LINE",
"136 0 LINE",
"140 54 LINE",
"142 54 LINE",
"191 14 OFFCURVE",
"257 -12 OFFCURVE"
);
},
{
closed = 1;
nodes = (
"308 16 CURVE SMOOTH",
"267 16 OFFCURVE",
"200 37 OFFCURVE",
"140 92 CURVE",
"140 368 LINE",
"204 432 OFFCURVE",
"271 462 OFFCURVE",
"324 462 CURVE SMOOTH",
"449 462 OFFCURVE",
"498 368 OFFCURVE",
"498 246 CURVE SMOOTH",
"498 112 OFFCURVE",
"418 16 OFFCURVE"
);
}
);
width = 600;
}
);
unicode = 0253;
},
{
glyphname = oopen;
lastChange = "2018-01-30 22:59:42 +0000";
layers = (
{
anchors = (
{
name = aboveLC;
position = "{290, 500}";
},
{
name = baseLC;
position = "{280, 0}";
},
{
name = belowLC;
position = "{280, -20}";
}
);
layerId = "39876626-1A8B-482E-A4B0-28EC916B81A3";
paths = (
{
closed = 1;
nodes = (
"260 -12 CURVE SMOOTH",
"402 -12 OFFCURVE",
"510 80 OFFCURVE",
"510 238 CURVE SMOOTH",
"510 398 OFFCURVE",
"400 490 OFFCURVE",
"266 490 CURVE SMOOTH",
"175 490 OFFCURVE",
"119 454 OFFCURVE",
"80 416 CURVE",
"100 394 LINE",
"141 434 OFFCURVE",
"194 462 OFFCURVE",
"266 462 CURVE SMOOTH",
"392 462 OFFCURVE",
"478 370 OFFCURVE",
"478 238 CURVE SMOOTH",
"478 106 OFFCURVE",
"390 16 OFFCURVE",
"260 16 CURVE SMOOTH",
"190 16 OFFCURVE",
"130 46 OFFCURVE",
"86 88 CURVE",
"68 66 LINE",
"116 20 OFFCURVE",
"182 -12 OFFCURVE"
);
}
);
width = 600;
}
);
unicode = 0254;
},
{
glyphname = ccurl;
lastChange = "2018-01-30 22:59:42 +0000";
layers = (
{
anchors = (
{
name = aboveLC;
position = "{340, 500}";
},
{
name = belowLC;
position = "{360, -20}";
}
);
layerId = "39876626-1A8B-482E-A4B0-28EC916B81A3";
paths = (
{
closed = 1;
nodes = (
"178 -106 LINE",
"218 30 OFFCURVE",
"338 134 OFFCURVE",
"422 134 CURVE SMOOTH",
"473 134 OFFCURVE",
"492 112 OFFCURVE",
"492 86 CURVE SMOOTH",
"492 44 OFFCURVE",
"446 16 OFFCURVE",
"356 16 CURVE SMOOTH",
"221 16 OFFCURVE",
"122 106 OFFCURVE",
"122 238 CURVE SMOOTH",
"122 370 OFFCURVE",
"217 462 OFFCURVE",
"338 462 CURVE SMOOTH",
"405 462 OFFCURVE",
"456 437 OFFCURVE",
"498 394 CURVE",
"518 416 LINE",
"478 458 OFFCURVE",
"423 490 OFFCURVE",
"338 490 CURVE SMOOTH",
"206 490 OFFCURVE",
"90 398 OFFCURVE",
"90 238 CURVE SMOOTH",
"90 80 OFFCURVE",
"210 -12 OFFCURVE",
"356 -12 CURVE SMOOTH",
"470 -12 OFFCURVE",
"522 32 OFFCURVE",
"522 88 CURVE SMOOTH",
"522 132 OFFCURVE",
"488 162 OFFCURVE",
"422 162 CURVE SMOOTH",
"320 162 OFFCURVE",
"204 58 OFFCURVE",
"150 -96 CURVE"
);
}
);
width = 600;
}
);
unicode = 0255;
},
{
glyphname = dtail;
lastChange = "2018-01-30 22:59:42 +0000";
layers = (
{
anchors = (
{
name = aboveUC;
position = "{300, 740}";
},
{
name = belowLC;
position = "{300, -230}";
}
);
layerId = "39876626-1A8B-482E-A4B0-28EC916B81A3";
paths = (
{
closed = 1;
nodes = (
"548 -180 CURVE SMOOTH",
"564 -180 OFFCURVE",
"586 -174 OFFCURVE",
"596 -168 CURVE",
"588 -142 LINE",
"578 -146 OFFCURVE",
"562 -152 OFFCURVE",
"546 -152 CURVE SMOOTH",
"502 -152 OFFCURVE",
"490 -110 OFFCURVE",
"490 -50 CURVE",
"490 722 LINE",
"460 722 LINE",
"460 520 LINE",
"462 420 LINE",
"460 420 LINE",
"410 464 OFFCURVE",
"359 490 OFFCURVE",
"298 490 CURVE SMOOTH",
"177 490 OFFCURVE",
"70 392 OFFCURVE",
"70 238 CURVE SMOOTH",
"70 76 OFFCURVE",
"156 -12 OFFCURVE",
"282 -12 CURVE SMOOTH",
"352 -12 OFFCURVE",
"418 28 OFFCURVE",
"460 74 CURVE",
"462 74 LINE",
"460 -54 LINE",
"460 -144 OFFCURVE",
"488 -180 OFFCURVE"
);
},
{
closed = 1;
nodes = (
"284 16 CURVE SMOOTH",
"170 16 OFFCURVE",
"102 106 OFFCURVE",
"102 238 CURVE SMOOTH",
"102 362 OFFCURVE",
"188 462 OFFCURVE",
"296 462 CURVE SMOOTH",
"349 462 OFFCURVE",
"402 441 OFFCURVE",
"460 386 CURVE",
"460 110 LINE",
"403 50 OFFCURVE",
"343 16 OFFCURVE"
);
}
);
width = 600;
}
);
unicode = 0256;
},
{
glyphname = dhook;
lastChange = "2018-01-30 22:59:42 +0000";
layers = (
{
anchors = (
{
name = aboveUC;
position = "{300, 740}";
},
{
name = belowLC;
position = "{300, -20}";
}
);
layerId = "39876626-1A8B-482E-A4B0-28EC916B81A3";
paths = (
{
closed = 1;
nodes = (
"282 -12 CURVE SMOOTH",
"352 -12 OFFCURVE",
"415 29 OFFCURVE",
"458 74 CURVE",
"460 74 LINE",
"464 0 LINE",
"490 0 LINE",
"490 600 LINE",
"490 662 OFFCURVE",
"506 708 OFFCURVE",
"554 708 CURVE SMOOTH",
"570 708 OFFCURVE",
"583 704 OFFCURVE",
"594 700 CURVE",
"602 726 LINE",
"589 732 OFFCURVE",
"572 736 OFFCURVE",
"556 736 CURVE SMOOTH",
"498 736 OFFCURVE",
"460 696 OFFCURVE",
"460 604 CURVE",
"460 520 LINE",
"462 420 LINE",
"460 420 LINE",
"410 464 OFFCURVE",
"359 490 OFFCURVE",
"298 490 CURVE SMOOTH",
"177 490 OFFCURVE",
"70 392 OFFCURVE",
"70 238 CURVE SMOOTH",
"70 76 OFFCURVE",
"156 -12 OFFCURVE"
);
},
{
closed = 1;
nodes = (
"284 16 CURVE SMOOTH",
"170 16 OFFCURVE",
"102 106 OFFCURVE",
"102 238 CURVE SMOOTH",
"102 362 OFFCURVE",
"188 462 OFFCURVE",
"296 462 CURVE SMOOTH",
"349 462 OFFCURVE",
"402 441 OFFCURVE",
"460 386 CURVE",
"460 110 LINE",
"403 50 OFFCURVE",
"343 16 OFFCURVE"
);
}
);
width = 600;
}
);
unicode = 0257;
},
{
glyphname = ereversed;
lastChange = "2018-01-30 22:59:42 +0000";
layers = (
{
anchors = (
{
name = aboveLC;
position = "{300, 500}";
},
{
name = belowLC;
position = "{290, -20}";
}
);
layerId = "39876626-1A8B-482E-A4B0-28EC916B81A3";
paths = (
{
closed = 1;
nodes = (
"270 -12 CURVE SMOOTH",
"406 -12 OFFCURVE",
"520 82 OFFCURVE",
"520 238 CURVE SMOOTH",
"520 394 OFFCURVE",
"418 490 OFFCURVE",
"294 490 CURVE SMOOTH",
"166 490 OFFCURVE",
"70 408 OFFCURVE",
"70 270 CURVE SMOOTH",
"70 260 OFFCURVE",
"70 250 OFFCURVE",
"72 238 CURVE",
"510 238 LINE",
"510 266 LINE",
"80 266 LINE",
"98 250 LINE",
"98 394 OFFCURVE",
"186 462 OFFCURVE",
"294 462 CURVE SMOOTH",
"398 462 OFFCURVE",
"488 380 OFFCURVE",
"488 240 CURVE SMOOTH",
"488 96 OFFCURVE",
"386 16 OFFCURVE",
"270 16 CURVE SMOOTH",
"202 16 OFFCURVE",
"149 38 OFFCURVE",
"104 70 CURVE",
"90 44 LINE",
"132 17 OFFCURVE",
"183 -12 OFFCURVE"
);
}
);
width = 600;
}
);
unicode = 0258;
},
{
glyphname = alphalatin;
lastChange = "2018-01-30 22:59:42 +0000";
layers = (
{
anchors = (
{
name = aboveLC;
position = "{300, 500}";
},
{
name = baseLC;
position = "{464, 0}";
},
{
name = belowLC;
position = "{300, -20}";
}
);
layerId = "39876626-1A8B-482E-A4B0-28EC916B81A3";
paths = (
{
closed = 1;
nodes = (
"282 -12 CURVE SMOOTH",
"352 -12 OFFCURVE",
"415 29 OFFCURVE",
"458 74 CURVE",
"460 74 LINE",
"464 0 LINE",
"490 0 LINE",
"490 478 LINE",
"464 478 LINE",
"460 422 LINE",
"458 422 LINE",
"409 464 OFFCURVE",
"360 490 OFFCURVE",
"298 490 CURVE SMOOTH",
"177 490 OFFCURVE",
"70 392 OFFCURVE",
"70 238 CURVE SMOOTH",
"70 76 OFFCURVE",
"156 -12 OFFCURVE"
);
},
{
closed = 1;
nodes = (
"284 16 CURVE SMOOTH",
"170 16 OFFCURVE",
"102 106 OFFCURVE",
"102 238 CURVE SMOOTH",
"102 362 OFFCURVE",
"188 462 OFFCURVE",
"296 462 CURVE SMOOTH",
"349 462 OFFCURVE",
"402 441 OFFCURVE",
"460 386 CURVE",
"460 110 LINE",
"403 50 OFFCURVE",
"343 16 OFFCURVE"
);
}
);
width = 600;
}
);
unicode = 0251;
},
{
glyphname = schwa;
lastChange = "2018-01-30 22:59:42 +0000";
layers = (
{
anchors = (
{
name = aboveLC;
position = "{310, 500}";
},
{
name = baseLC;
position = "{300, 0}";
},
{
name = belowLC;
position = "{300, -20}";
},
{
name = ogonekLC;
position = "{300, 0}";
}
);
layerId = "39876626-1A8B-482E-A4B0-28EC916B81A3";
paths = (
{
closed = 1;
nodes = (
"302 -12 CURVE SMOOTH",
"436 -12 OFFCURVE",
"530 80 OFFCURVE",
"530 240 CURVE SMOOTH",
"530 396 OFFCURVE",
"436 490 OFFCURVE",
"292 490 CURVE SMOOTH",
"205 490 OFFCURVE",
"154 461 OFFCURVE",
"112 434 CURVE",
"126 408 LINE",
"171 440 OFFCURVE",
"224 462 OFFCURVE",
"292 462 CURVE SMOOTH",
"416 462 OFFCURVE",
"498 382 OFFCURVE",
"498 238 CURVE SMOOTH",
"498 94 OFFCURVE",
"416 16 OFFCURVE",
"302 16 CURVE SMOOTH",
"184 16 OFFCURVE",
"108 92 OFFCURVE",
"108 240 CURVE",
"90 224 LINE",
"520 224 LINE",
"520 252 LINE",
"82 252 LINE",
"80 240 OFFCURVE",
"80 230 OFFCURVE",
"80 220 CURVE SMOOTH",
"80 78 OFFCURVE",
"164 -12 OFFCURVE"
);
}
);
width = 600;
}
);
unicode = 0259;
},
{
glyphname = schwahookrhotic;
lastChange = "2018-01-30 22:59:42 +0000";
layers = (
{
anchors = (
{
name = aboveLC;
position = "{240, 500}";
},
{
name = belowLC;
position = "{240, -20}";
}
);
layerId = "39876626-1A8B-482E-A4B0-28EC916B81A3";
paths = (
{
closed = 1;
nodes = (
"228 -12 CURVE SMOOTH",
"348 -12 OFFCURVE",
"426 94 OFFCURVE",
"426 234 CURVE SMOOTH",
"426 404 OFFCURVE",
"334 490 OFFCURVE",
"224 490 CURVE SMOOTH",
"148 490 OFFCURVE",
"107 466 OFFCURVE",
"70 440 CURVE",
"84 414 LINE",
"123 442 OFFCURVE",
"160 462 OFFCURVE",
"224 462 CURVE SMOOTH",
"315 462 OFFCURVE",
"394 388 OFFCURVE",
"394 234 CURVE SMOOTH",
"394 110 OFFCURVE",
"330 16 OFFCURVE",
"228 16 CURVE SMOOTH",
"144 16 OFFCURVE",
"84 70 OFFCURVE",
"68 176 CURVE",
"54 160 LINE",
"486 328 LINE",
"494 260 OFFCURVE",
"530 234 OFFCURVE",
"562 234 CURVE SMOOTH",
"589 234 OFFCURVE",
"607 247 OFFCURVE",
"620 258 CURVE",
"604 280 LINE",
"595 270 OFFCURVE",
"580 262 OFFCURVE",
"566 262 CURVE SMOOTH",
"540 262 OFFCURVE",
"522 272 OFFCURVE",
"512 348 CURVE",
"488 358 LINE",
"38 182 LINE",
"50 74 OFFCURVE",
"114 -12 OFFCURVE"
);
}
);
width = 600;
}
);
unicode = 025A;
},
{
glyphname = eopen;
lastChange = "2018-01-30 22:59:42 +0000";
layers = (
{
anchors = (
{
name = aboveLC;
position = "{330, 500}";
},
{
name = baseLC;
position = "{320, 0}";
},
{
name = belowLC;
position = "{320, -20}";
}
);
layerId = "39876626-1A8B-482E-A4B0-28EC916B81A3";
paths = (
{
closed = 1;
nodes = (
"319 -12 CURVE SMOOTH",
"397 -12 OFFCURVE",
"466 6 OFFCURVE",
"526 62 CURVE",
"508 84 LINE",
"451 31 OFFCURVE",
"391 16 OFFCURVE",
"320 16 CURVE SMOOTH",
"212 16 OFFCURVE",
"140 56 OFFCURVE",
"140 129 CURVE SMOOTH",
"140 201 OFFCURVE",
"213 238 OFFCURVE",
"338 238 CURVE SMOOTH",
"394 238 LINE",
"394 266 LINE",
"352 266 LINE SMOOTH",
"229 266 OFFCURVE",
"168 305 OFFCURVE",
"168 366 CURVE SMOOTH",
"168 432 OFFCURVE",
"228 462 OFFCURVE",
"320 462 CURVE SMOOTH",
"400 462 OFFCURVE",
"445 439 OFFCURVE",
"494 402 CURVE",
"512 424 LINE",
"464 462 OFFCURVE",
"408 490 OFFCURVE",
"320 490 CURVE SMOOTH",
"214 490 OFFCURVE",
"136 448 OFFCURVE",
"136 368 CURVE SMOOTH",
"136 314 OFFCURVE",
"172 280 OFFCURVE",
"222 256 CURVE",
"222 252 LINE",
"162 236 OFFCURVE",
"108 200 OFFCURVE",
"108 128 CURVE SMOOTH",
"108 42 OFFCURVE",
"188 -12 OFFCURVE"
);
}
);
width = 600;
}
);
unicode = 025B;
},
{
glyphname = eopenreversedclosed;
lastChange = "2018-01-30 22:59:42 +0000";
layers = (
{
anchors = (
{
name = aboveLC;
position = "{320, 500}";
},
{
name = belowLC;
position = "{300, -20}";
}
);
layerId = "39876626-1A8B-482E-A4B0-28EC916B81A3";
paths = (
{
closed = 1;
nodes = (
"332 -12 CURVE SMOOTH",
"461 -12 OFFCURVE",
"530 42 OFFCURVE",
"530 128 CURVE SMOOTH",
"530 200 OFFCURVE",
"472 238 OFFCURVE",
"420 252 CURVE",
"420 256 LINE",
"470 276 OFFCURVE",
"502 318 OFFCURVE",
"502 368 CURVE SMOOTH",
"502 448 OFFCURVE",
"430 490 OFFCURVE",
"328 490 CURVE SMOOTH",
"188 490 OFFCURVE",
"70 398 OFFCURVE",
"70 232 CURVE SMOOTH",
"70 72 OFFCURVE",
"178 -12 OFFCURVE"
);
},
{
closed = 1;
nodes = (
"330 16 CURVE SMOOTH",
"188 16 OFFCURVE",
"102 98 OFFCURVE",
"102 232 CURVE SMOOTH",
"102 368 OFFCURVE",
"200 462 OFFCURVE",
"328 462 CURVE SMOOTH",
"412 462 OFFCURVE",
"470 432 OFFCURVE",
"470 366 CURVE SMOOTH",
"470 310 OFFCURVE",
"416 266 OFFCURVE",
"322 266 CURVE SMOOTH",
"298 266 LINE",
"298 238 LINE",
"336 238 LINE SMOOTH",
"428 238 OFFCURVE",
"498 197 OFFCURVE",
"498 129 CURVE SMOOTH",
"498 56 OFFCURVE",
"441 16 OFFCURVE"
);
}
);
width = 600;
}
);
unicode = 025E;
},
{
glyphname = dotlessjstroke;
lastChange = "2018-01-30 22:59:42 +0000";
layers = (
{
anchors = (
{
name = aboveLC;
position = "{350, 500}";
},
{
name = belowLC;
position = "{230, -230}";
}
);
components = (
{
name = dotlessj;
}
);
layerId = "39876626-1A8B-482E-A4B0-28EC916B81A3";
paths = (
{
closed = 1;
nodes = (
"138 238 LINE",
"568 238 LINE",
"568 266 LINE",
"346 266 LINE",
"138 262 LINE"
);
}
);
width = 600;
}
);
unicode = 025F;
},
{
glyphname = ghook;
lastChange = "2018-01-30 22:59:42 +0000";
layers = (
{
anchors = (
{
name = aboveLC;
position = "{300, 500}";
},
{
name = belowLC;
position = "{290, -230}";
}
);
layerId = "39876626-1A8B-482E-A4B0-28EC916B81A3";
paths = (
{
closed = 1;
nodes = (
"288 -234 CURVE SMOOTH",
"412 -234 OFFCURVE",
"490 -160 OFFCURVE",
"490 -48 CURVE SMOOTH",
"490 474 LINE",
"490 536 OFFCURVE",
"506 582 OFFCURVE",
"554 582 CURVE SMOOTH",
"570 582 OFFCURVE",
"583 578 OFFCURVE",
"594 574 CURVE",
"602 600 LINE",
"589 606 OFFCURVE",
"572 610 OFFCURVE",
"556 610 CURVE SMOOTH",
"498 610 OFFCURVE",
"460 570 OFFCURVE",
"460 478 CURVE",
"462 420 LINE",
"460 420 LINE",
"414 462 OFFCURVE",
"360 490 OFFCURVE",
"298 490 CURVE SMOOTH",
"177 490 OFFCURVE",
"70 396 OFFCURVE",
"70 244 CURVE SMOOTH",
"70 84 OFFCURVE",
"156 -2 OFFCURVE",
"282 -2 CURVE SMOOTH",
"353 -2 OFFCURVE",
"418 38 OFFCURVE",
"460 84 CURVE",
"462 84 LINE",
"460 -40 LINE",
"460 -144 OFFCURVE",
"397 -207 OFFCURVE",
"288 -207 CURVE SMOOTH",
"233 -207 OFFCURVE",
"175 -192 OFFCURVE",
"124 -156 CURVE",
"108 -182 LINE",
"157 -214 OFFCURVE",
"218 -234 OFFCURVE"
);
},
{
closed = 1;
nodes = (
"284 26 CURVE SMOOTH",
"170 26 OFFCURVE",
"102 114 OFFCURVE",
"102 244 CURVE SMOOTH",
"102 366 OFFCURVE",
"188 462 OFFCURVE",
"296 462 CURVE SMOOTH",
"349 462 OFFCURVE",
"402 442 OFFCURVE",
"460 386 CURVE",
"460 120 LINE",
"403 60 OFFCURVE",
"343 26 OFFCURVE"
);
}
);
width = 600;
}
);
unicode = 0260;
},
{
glyphname = gscript;
lastChange = "2018-01-30 22:59:42 +0000";
layers = (
{
anchors = (
{
name = aboveLC;
position = "{310, 500}";
},
{
name = belowLC;
position = "{290, -230}";
}
);
layerId = "39876626-1A8B-482E-A4B0-28EC916B81A3";
paths = (
{
closed = 1;
nodes = (
"288 -234 CURVE SMOOTH",
"412 -234 OFFCURVE",
"490 -160 OFFCURVE",
"490 -48 CURVE SMOOTH",
"490 478 LINE",
"464 478 LINE",
"460 422 LINE",
"458 422 LINE",
"412 462 OFFCURVE",
"360 490 OFFCURVE",
"298 490 CURVE SMOOTH",
"177 490 OFFCURVE",
"70 396 OFFCURVE",
"70 244 CURVE SMOOTH",
"70 84 OFFCURVE",
"156 -2 OFFCURVE",
"282 -2 CURVE SMOOTH",
"352 -2 OFFCURVE",
"414 38 OFFCURVE",
"458 84 CURVE",
"460 84 LINE",
"460 -40 LINE SMOOTH",
"460 -144 OFFCURVE",
"397 -207 OFFCURVE",
"288 -207 CURVE SMOOTH",
"233 -207 OFFCURVE",
"175 -192 OFFCURVE",
"124 -156 CURVE",
"108 -182 LINE",
"157 -214 OFFCURVE",
"218 -234 OFFCURVE"
);
},
{
closed = 1;
nodes = (
"284 26 CURVE SMOOTH",
"170 26 OFFCURVE",
"102 114 OFFCURVE",
"102 244 CURVE SMOOTH",
"102 366 OFFCURVE",
"188 462 OFFCURVE",
"296 462 CURVE SMOOTH",
"349 462 OFFCURVE",
"402 441 OFFCURVE",
"460 386 CURVE",
"460 120 LINE",
"403 60 OFFCURVE",
"343 26 OFFCURVE"
);
}
);
width = 600;
}
);
unicode = 0261;
},
{
glyphname = gsmall;
lastChange = "2018-01-30 22:59:42 +0000";
layers = (
{
anchors = (
{
name = aboveLC;
position = "{330, 500}";
},
{
name = belowLC;
position = "{330, -20}";
}
);
layerId = "39876626-1A8B-482E-A4B0-28EC916B81A3";
paths = (
{
closed = 1;
nodes = (
"340 -12 CURVE SMOOTH",
"422 -12 OFFCURVE",
"482 19 OFFCURVE",
"522 58 CURVE",
"522 234 LINE",
"324 234 LINE",
"324 206 LINE",
"492 206 LINE",
"492 71 LINE",
"458 39 OFFCURVE",
"404 16 OFFCURVE",
"343 16 CURVE SMOOTH",
"218 16 OFFCURVE",
"122 102 OFFCURVE",
"122 242 CURVE SMOOTH",
"122 376 OFFCURVE",
"222 462 OFFCURVE",
"346 462 CURVE SMOOTH",
"416 462 OFFCURVE",
"465 428 OFFCURVE",
"498 394 CURVE",
"518 416 LINE",
"483 452 OFFCURVE",
"428 490 OFFCURVE",
"346 490 CURVE SMOOTH",
"202 490 OFFCURVE",
"90 393 OFFCURVE",
"90 242 CURVE SMOOTH",
"90 84 OFFCURVE",
"198 -12 OFFCURVE"
);
}
);
width = 600;
}
);
unicode = 0262;
},
{
glyphname = gammalatin;
lastChange = "2018-01-30 22:59:42 +0000";
layers = (
{
anchors = (
{
name = aboveLC;
position = "{300, 500}";
},
{
name = belowLC;
position = "{300, -230}";
}
);
layerId = "39876626-1A8B-482E-A4B0-28EC916B81A3";
paths = (
{
closed = 1;
nodes = (
"283 20 LINE",
"319 20 LINE",
"534 478 LINE",
"502 478 LINE",
"365 178 LINE",
"342 130 OFFCURVE",
"328 96 OFFCURVE",
"303 52 CURVE",
"299 52 LINE",
"274 96 OFFCURVE",
"260 130 OFFCURVE",
"237 178 CURVE",
"100 478 LINE",
"66 478 LINE"
);
},
{
closed = 1;
nodes = (
"301 -234 CURVE SMOOTH",
"356 -234 OFFCURVE",
"381 -194 OFFCURVE",
"381 -138 CURVE SMOOTH",
"381 -94 OFFCURVE",
"353 -45 OFFCURVE",
"319 32 CURVE",
"282 32 LINE",
"249 -45 OFFCURVE",
"221 -94 OFFCURVE",
"221 -138 CURVE SMOOTH",
"221 -194 OFFCURVE",
"246 -234 OFFCURVE"
);
},
{
closed = 1;
nodes = (
"301 -206 CURVE SMOOTH",
"266 -206 OFFCURVE",
"253 -176 OFFCURVE",
"253 -140 CURVE SMOOTH",
"253 -103 OFFCURVE",
"275 -48 OFFCURVE",
"299 0 CURVE",
"303 0 LINE",
"327 -48 OFFCURVE",
"349 -99 OFFCURVE",
"349 -140 CURVE SMOOTH",
"349 -176 OFFCURVE",
"336 -206 OFFCURVE"
);
}
);
width = 600;
}
);
unicode = 0263;
},
{
glyphname = ramshorn;
lastChange = "2018-01-30 22:59:42 +0000";
layers = (
{
anchors = (
{
name = aboveLC;
position = "{300, 500}";
},
{
name = belowLC;
position = "{300, -20}";
}
);
layerId = "39876626-1A8B-482E-A4B0-28EC916B81A3";
paths = (
{
closed = 1;
nodes = (
"300 -12 CURVE SMOOTH",
"410 -12 OFFCURVE",
"474 52 OFFCURVE",
"474 146 CURVE SMOOTH",
"474 232 OFFCURVE",
"408 304 OFFCURVE",
"322 376 CURVE",
"376 432 OFFCURVE",
"409 462 OFFCURVE",
"455 462 CURVE SMOOTH",
"473 462 OFFCURVE",
"489 458 OFFCURVE",
"503 448 CURVE",
"516 471 LINE",
"498 483 OFFCURVE",
"476 490 OFFCURVE",
"452 490 CURVE SMOOTH",
"398 490 OFFCURVE",
"355 452 OFFCURVE",
"300 396 CURVE",
"244 452 OFFCURVE",
"202 490 OFFCURVE",
"148 490 CURVE SMOOTH",
"124 490 OFFCURVE",
"102 483 OFFCURVE",
"84 471 CURVE",
"97 448 LINE",
"111 458 OFFCURVE",
"127 462 OFFCURVE",
"145 462 CURVE SMOOTH",
"190 462 OFFCURVE",
"224 432 OFFCURVE",
"278 376 CURVE",
"190 304 OFFCURVE",
"126 232 OFFCURVE",
"126 146 CURVE SMOOTH",
"126 52 OFFCURVE",
"190 -12 OFFCURVE"
);
},
{
closed = 1;
nodes = (
"300 16 CURVE SMOOTH",
"212 16 OFFCURVE",
"158 72 OFFCURVE",
"158 146 CURVE SMOOTH",
"158 224 OFFCURVE",
"218 290 OFFCURVE",
"300 358 CURVE",
"382 290 OFFCURVE",
"442 224 OFFCURVE",
"442 146 CURVE SMOOTH",
"442 72 OFFCURVE",
"388 16 OFFCURVE"
);
}
);
width = 600;
}
);
unicode = 0264;
},
{
glyphname = hturned;
lastChange = "2018-01-30 22:59:42 +0000";
layers = (
{
anchors = (
{
name = aboveLC;
position = "{290, 500}";
},
{
name = belowLC;
position = "{300, -20}";
}
);
layerId = "39876626-1A8B-482E-A4B0-28EC916B81A3";
paths = (
{
closed = 1;
nodes = (
"460 -222 LINE",
"490 -222 LINE",
"490 478 LINE",
"460 478 LINE",
"460 132 LINE",
"386 54 OFFCURVE",
"336 16 OFFCURVE",
"264 16 CURVE SMOOTH",
"163 16 OFFCURVE",
"120 71 OFFCURVE",
"120 184 CURVE SMOOTH",
"120 478 LINE",
"90 478 LINE",
"90 180 LINE SMOOTH",
"90 49 OFFCURVE",
"147 -12 OFFCURVE",
"264 -12 CURVE SMOOTH",
"342 -12 OFFCURVE",
"399 34 OFFCURVE",
"462 100 CURVE",
"460 -30 LINE"
);
}
);
width = 600;
}
);
unicode = 0265;
},
{
glyphname = hhook;
lastChange = "2018-01-30 22:59:42 +0000";
layers = (
{
anchors = (
{
name = aboveUC;
position = "{260, 740}";
},
{
name = belowLC;
position = "{320, -20}";
}
);
layerId = "39876626-1A8B-482E-A4B0-28EC916B81A3";
paths = (
{
closed = 1;
nodes = (
"110 0 LINE",
"140 0 LINE",
"140 346 LINE",
"214 424 OFFCURVE",
"264 462 OFFCURVE",
"336 462 CURVE SMOOTH",
"437 462 OFFCURVE",
"480 407 OFFCURVE",
"480 294 CURVE SMOOTH",
"480 0 LINE",
"510 0 LINE",
"510 298 LINE SMOOTH",
"510 429 OFFCURVE",
"453 490 OFFCURVE",
"336 490 CURVE SMOOTH",
"259 490 OFFCURVE",
"200 444 OFFCURVE",
"140 378 CURVE",
"136 378 LINE",
"140 562 LINE",
"141 646 OFFCURVE",
"175 706 OFFCURVE",
"258 706 CURVE SMOOTH",
"279 706 OFFCURVE",
"303 702 OFFCURVE",
"326 690 CURVE",
"338 716 LINE",
"313 727 OFFCURVE",
"283 734 OFFCURVE",
"260 734 CURVE SMOOTH",
"168 734 OFFCURVE",
"110 674 OFFCURVE",
"110 566 CURVE"
);
}
);
width = 600;
}
);
unicode = 0266;
},
{
glyphname = henghook;
lastChange = "2018-01-30 22:59:42 +0000";
layers = (
{
anchors = (
{
name = aboveUC;
position = "{260, 740}";
},
{
name = belowLC;
position = "{390, -230}";
}
);
layerId = "39876626-1A8B-482E-A4B0-28EC916B81A3";
paths = (
{
closed = 1;
nodes = (
"402 -180 CURVE SMOOTH",
"475 -180 OFFCURVE",
"510 -137 OFFCURVE",
"510 -38 CURVE",
"510 298 LINE SMOOTH",
"510 429 OFFCURVE",
"453 490 OFFCURVE",
"336 490 CURVE SMOOTH",
"259 490 OFFCURVE",
"200 444 OFFCURVE",
"140 378 CURVE",
"136 378 LINE",
"140 562 LINE",
"141 646 OFFCURVE",
"175 706 OFFCURVE",
"258 706 CURVE SMOOTH",
"279 706 OFFCURVE",
"302 701 OFFCURVE",
"326 690 CURVE",
"338 716 LINE",
"312 727 OFFCURVE",
"283 734 OFFCURVE",
"260 734 CURVE SMOOTH",
"168 734 OFFCURVE",
"110 674 OFFCURVE",
"110 566 CURVE",
"110 0 LINE",
"140 0 LINE",
"140 346 LINE",
"214 424 OFFCURVE",
"264 462 OFFCURVE",
"336 462 CURVE SMOOTH",
"437 462 OFFCURVE",
"480 407 OFFCURVE",
"480 294 CURVE SMOOTH",
"480 -34 LINE",
"480 -102 OFFCURVE",
"468 -152 OFFCURVE",
"404 -152 CURVE SMOOTH",
"380 -152 OFFCURVE",
"356 -145 OFFCURVE",
"342 -140 CURVE",
"334 -166 LINE",
"350 -173 OFFCURVE",
"379 -180 OFFCURVE"
);
}
);
width = 600;
}
);
unicode = 0267;
},
{
glyphname = ismall;
lastChange = "2018-01-30 22:59:42 +0000";
layers = (
{
anchors = (
{
name = aboveLC;
position = "{300, 500}";
},
{
name = belowLC;
position = "{300, -20}";
}
);
layerId = "39876626-1A8B-482E-A4B0-28EC916B81A3";
paths = (
{
closed = 1;
nodes = (
"92 0 LINE",
"508 0 LINE",
"508 28 LINE",
"314 28 LINE",
"314 450 LINE",
"508 450 LINE",
"508 478 LINE",
"92 478 LINE",
"92 450 LINE",
"284 450 LINE",
"284 28 LINE",
"92 28 LINE"
);
}
);
width = 600;
}
);
unicode = 026A;
},
{
glyphname = kturned;
lastChange = "2018-01-30 22:59:42 +0000";
layers = (
{
anchors = (
{
name = aboveLC;
position = "{274, 500}";
},
{
name = belowLC;
position = "{450, -230}";
}
);
layerId = "39876626-1A8B-482E-A4B0-28EC916B81A3";
paths = (
{
closed = 1;
nodes = (
"440 -222 LINE",
"470 -222 LINE",
"470 478 LINE",
"440 478 LINE",
"440 340 LINE",
"38 0 LINE",
"80 0 LINE",
"436 302 LINE",
"440 302 LINE"
);
},
{
closed = 1;
nodes = (
"280 170 LINE",
"300 192 LINE",
"106 478 LINE",
"72 478 LINE"
);
}
);
width = 600;
}
);
unicode = 029E;
},
{
glyphname = lbelt;
lastChange = "2018-01-30 22:59:42 +0000";
layers = (
{
anchors = (
{
name = aboveUC;
position = "{294, 740}";
},
{
name = belowLC;
position = "{400, -20}";
}
);
components = (
{
name = l;
}
);
layerId = "39876626-1A8B-482E-A4B0-28EC916B81A3";
paths = (
{
closed = 1;
nodes = (
"248 340 CURVE SMOOTH",
"458 340 LINE",
"458 368 LINE",
"242 368 LINE SMOOTH",
"170 368 OFFCURVE",
"150 389 OFFCURVE",
"150 414 CURVE SMOOTH",
"150 433 OFFCURVE",
"164 450 OFFCURVE",
"198 450 CURVE SMOOTH",
"250 450 OFFCURVE",
"280 414 OFFCURVE",
"280 378 CURVE",
"300 370 LINE",
"300 406 OFFCURVE",
"282 478 OFFCURVE",
"194 478 CURVE SMOOTH",
"148 478 OFFCURVE",
"118 451 OFFCURVE",
"118 416 CURVE SMOOTH",
"118 372 OFFCURVE",
"154 340 OFFCURVE"
);
}
);
width = 600;
}
);
unicode = 026C;
},
{
glyphname = lretroflex;
lastChange = "2018-01-30 22:59:42 +0000";
layers = (
{
anchors = (
{
name = aboveUC;
position = "{294, 740}";
},
{
name = belowLC;
position = "{400, -230}";
}
);
layerId = "39876626-1A8B-482E-A4B0-28EC916B81A3";
paths = (
{
closed = 1;
nodes = (
"415 -180 CURVE SMOOTH",
"461 -180 OFFCURVE",
"494 -165 OFFCURVE",
"532 -150 CURVE",
"520 -125 LINE",
"480 -144 OFFCURVE",
"449 -152 OFFCURVE",
"417 -152 CURVE SMOOTH",
"345 -152 OFFCURVE",
"310 -114 OFFCURVE",
"310 -36 CURVE SMOOTH",
"310 722 LINE",
"94 722 LINE",
"94 694 LINE",
"280 694 LINE",
"280 -30 LINE SMOOTH",
"280 -137 OFFCURVE",
"329 -180 OFFCURVE"
);
}
);
width = 600;
}
);
unicode = 026D;
},
{
glyphname = lezh;
lastChange = "2018-01-30 22:59:42 +0000";
layers = (
{
anchors = (
{
name = aboveUC;
position = "{130, 740}";
},
{
name = belowLC;
position = "{350, -230}";
}
);
layerId = "39876626-1A8B-482E-A4B0-28EC916B81A3";
paths = (
{
closed = 1;
nodes = (
"110 0 LINE",
"140 0 LINE",
"140 722 LINE",
"110 722 LINE"
);
},
{
closed = 1;
nodes = (
"348 -234 CURVE SMOOTH",
"448 -234 OFFCURVE",
"548 -158 OFFCURVE",
"548 -22 CURVE SMOOTH",
"548 106 OFFCURVE",
"446 206 OFFCURVE",
"272 154 CURVE",
"284 138 LINE",
"528 462 LINE",
"528 478 LINE",
"136 478 LINE",
"136 450 LINE",
"484 450 LINE",
"254 146 LINE",
"276 122 LINE",
"298 134 OFFCURVE",
"316 140 OFFCURVE",
"354 140 CURVE SMOOTH",
"456 140 OFFCURVE",
"516 78 OFFCURVE",
"516 -24 CURVE SMOOTH",
"516 -132 OFFCURVE",
"439 -206 OFFCURVE",
"350 -206 CURVE SMOOTH",
"258 -206 OFFCURVE",
"207 -173 OFFCURVE",
"170 -137 CURVE",
"150 -159 LINE",
"189 -195 OFFCURVE",
"246 -234 OFFCURVE"
);
}
);
width = 600;
}
);
unicode = 026E;
},
{
glyphname = lsmall;
lastChange = "2018-01-30 22:59:42 +0000";
layers = (
{
anchors = (
{
name = aboveLC;
position = "{190, 500}";
},
{
name = belowLC;
position = "{350, -20}";
}
);
layerId = "39876626-1A8B-482E-A4B0-28EC916B81A3";
paths = (
{
closed = 1;
nodes = (
"170 0 LINE",
"528 0 LINE",
"528 28 LINE",
"200 28 LINE",
"200 478 LINE",
"170 478 LINE"
);
}
);
width = 600;
}
);
unicode = 029F;
},
{
glyphname = mlonglegturned;
lastChange = "2018-01-30 22:59:42 +0000";
layers = (
{
anchors = (
{
name = aboveLC;
position = "{300, 500}";
},
{
name = belowLC;
position = "{500, -230}";
}
);
layerId = "39876626-1A8B-482E-A4B0-28EC916B81A3";
paths = (
{
closed = 1;
nodes = (
"490 -222 LINE",
"520 -222 LINE",
"520 478 LINE",
"490 478 LINE",
"490 112 LINE",
"456 48 OFFCURVE",
"426 16 OFFCURVE",
"379 16 CURVE SMOOTH",
"329 16 OFFCURVE",
"304 56 OFFCURVE",
"304 134 CURVE SMOOTH",
"304 478 LINE",
"274 478 LINE",
"274 112 LINE",
"240 48 OFFCURVE",
"210 16 OFFCURVE",
"163 16 CURVE SMOOTH",
"113 16 OFFCURVE",
"88 56 OFFCURVE",
"88 134 CURVE SMOOTH",
"88 478 LINE",
"58 478 LINE",
"58 130 LINE SMOOTH",
"58 34 OFFCURVE",
"95 -12 OFFCURVE",
"161 -12 CURVE SMOOTH",
"214 -12 OFFCURVE",
"243 18 OFFCURVE",
"280 74 CURVE",
"293 16 OFFCURVE",
"323 -12 OFFCURVE",
"377 -12 CURVE SMOOTH",
"428 -12 OFFCURVE",
"459 16 OFFCURVE",
"490 70 CURVE",
"494 70 LINE",
"490 -32 LINE"
);
}
);
width = 600;
}
);
unicode = 0270;
},
{
glyphname = mhook;
lastChange = "2018-01-30 22:59:42 +0000";
layers = (
{
anchors = (
{
name = aboveLC;
position = "{300, 500}";
},
{
name = belowLC;
position = "{300, -230}";
}
);
layerId = "39876626-1A8B-482E-A4B0-28EC916B81A3";
paths = (
{
closed = 1;
nodes = (
"444 -180 CURVE SMOOTH",
"510 -180 OFFCURVE",
"542 -140 OFFCURVE",
"542 -48 CURVE",
"542 348 LINE SMOOTH",
"542 444 OFFCURVE",
"505 490 OFFCURVE",
"439 490 CURVE SMOOTH",
"386 490 OFFCURVE",
"357 460 OFFCURVE",
"320 404 CURVE",
"307 462 OFFCURVE",
"277 490 OFFCURVE",
"223 490 CURVE SMOOTH",
"170 490 OFFCURVE",
"141 460 OFFCURVE",
"112 412 CURVE",
"110 412 LINE",
"106 478 LINE",
"80 478 LINE",
"80 0 LINE",
"110 0 LINE",
"110 366 LINE",
"144 430 OFFCURVE",
"174 462 OFFCURVE",
"221 462 CURVE SMOOTH",
"271 462 OFFCURVE",
"296 422 OFFCURVE",
"296 344 CURVE SMOOTH",
"296 0 LINE",
"326 0 LINE",
"326 366 LINE",
"360 430 OFFCURVE",
"390 462 OFFCURVE",
"437 462 CURVE SMOOTH",
"487 462 OFFCURVE",
"512 422 OFFCURVE",
"512 344 CURVE SMOOTH",
"512 -44 LINE",
"512 -106 OFFCURVE",
"502 -152 OFFCURVE",
"446 -152 CURVE SMOOTH",
"426 -152 OFFCURVE",
"406 -146 OFFCURVE",
"394 -142 CURVE",
"386 -168 LINE",
"400 -174 OFFCURVE",
"424 -180 OFFCURVE"
);
}
);
width = 600;
}
);
unicode = 0271;
},
{
glyphname = nhookleft;
lastChange = "2018-01-30 22:59:42 +0000";
layers = (
{
anchors = (
{
name = aboveLC;
position = "{320, 500}";
},
{
name = belowLC;
position = "{100, -230}";
}
);
layerId = "39876626-1A8B-482E-A4B0-28EC916B81A3";
paths = (
{
closed = 1;
nodes = (
"52 -180 CURVE SMOOTH",
"112 -180 OFFCURVE",
"140 -144 OFFCURVE",
"140 -54 CURVE",
"140 346 LINE",
"214 424 OFFCURVE",
"264 462 OFFCURVE",
"336 462 CURVE SMOOTH",
"437 462 OFFCURVE",
"480 407 OFFCURVE",
"480 294 CURVE SMOOTH",
"480 0 LINE",
"510 0 LINE",
"510 298 LINE SMOOTH",
"510 429 OFFCURVE",
"453 490 OFFCURVE",
"336 490 CURVE SMOOTH",
"258 490 OFFCURVE",
"201 444 OFFCURVE",
"144 382 CURVE",
"140 382 LINE",
"136 478 LINE",
"110 478 LINE",
"110 -50 LINE",
"110 -110 OFFCURVE",
"98 -152 OFFCURVE",
"54 -152 CURVE SMOOTH",
"38 -152 OFFCURVE",
"22 -146 OFFCURVE",
"12 -142 CURVE",
"4 -168 LINE",
"14 -174 OFFCURVE",
"36 -180 OFFCURVE"
);
}
);
width = 600;
}
);
unicode = 0272;
},
{
glyphname = nretroflex;
lastChange = "2018-01-30 22:59:42 +0000";
layers = (
{
anchors = (
{
name = aboveLC;
position = "{320, 500}";
},
{
name = belowLC;
position = "{500, -230}";
}
);
layerId = "39876626-1A8B-482E-A4B0-28EC916B81A3";
paths = (
{
closed = 1;
nodes = (
"568 -180 CURVE SMOOTH",
"584 -180 OFFCURVE",
"606 -174 OFFCURVE",
"616 -168 CURVE",
"608 -142 LINE",
"598 -146 OFFCURVE",
"582 -152 OFFCURVE",
"566 -152 CURVE SMOOTH",
"522 -152 OFFCURVE",
"510 -110 OFFCURVE",
"510 -50 CURVE",
"510 298 LINE SMOOTH",
"510 429 OFFCURVE",
"453 490 OFFCURVE",
"336 490 CURVE SMOOTH",
"258 490 OFFCURVE",
"201 444 OFFCURVE",
"144 382 CURVE",
"140 382 LINE",
"136 478 LINE",
"110 478 LINE",
"110 0 LINE",
"140 0 LINE",
"140 346 LINE",
"214 424 OFFCURVE",
"264 462 OFFCURVE",
"336 462 CURVE SMOOTH",
"437 462 OFFCURVE",
"480 407 OFFCURVE",
"480 294 CURVE SMOOTH",
"480 -54 LINE",
"480 -144 OFFCURVE",
"508 -180 OFFCURVE"
);
}
);
width = 600;
}
);
unicode = 0273;
},
{
glyphname = nsmall;
lastChange = "2018-01-30 22:59:42 +0000";
layers = (
{
anchors = (
{
name = aboveLC;
position = "{310, 500}";
},
{
name = belowLC;
position = "{300, -20}";
}
);
layerId = "39876626-1A8B-482E-A4B0-28EC916B81A3";
paths = (
{
closed = 1;
nodes = (
"114 0 LINE",
"144 0 LINE",
"144 254 LINE SMOOTH",
"144 307 OFFCURVE",
"142 368 OFFCURVE",
"140 432 CURVE",
"144 432 LINE",
"168 400 OFFCURVE",
"198 359 OFFCURVE",
"220 328 CURVE SMOOTH",
"454 0 LINE",
"486 0 LINE",
"486 478 LINE",
"456 478 LINE",
"456 224 LINE SMOOTH",
"456 171 OFFCURVE",
"458 110 OFFCURVE",
"460 46 CURVE",
"456 46 LINE",
"430 78 OFFCURVE",
"402 119 OFFCURVE",
"380 150 CURVE SMOOTH",
"146 478 LINE",
"114 478 LINE"
);
}
);
width = 600;
}
);
unicode = 0274;
},
{
glyphname = obar;
lastChange = "2018-01-30 22:59:42 +0000";
layers = (
{
anchors = (
{
name = aboveLC;
position = "{300, 500}";
},
{
name = belowLC;
position = "{300, -20}";
}
);
layerId = "39876626-1A8B-482E-A4B0-28EC916B81A3";
paths = (
{
closed = 1;
nodes = (
"300 -12 CURVE SMOOTH",
"426 -12 OFFCURVE",
"530 74 OFFCURVE",
"530 238 CURVE SMOOTH",
"530 404 OFFCURVE",
"426 490 OFFCURVE",
"300 490 CURVE SMOOTH",
"174 490 OFFCURVE",
"70 404 OFFCURVE",
"70 238 CURVE SMOOTH",
"70 74 OFFCURVE",
"174 -12 OFFCURVE"
);
},
{
closed = 1;
nodes = (
"300 16 CURVE SMOOTH",
"186 16 OFFCURVE",
"100 100 OFFCURVE",
"100 238 CURVE SMOOTH",
"100 376 OFFCURVE",
"186 462 OFFCURVE",
"300 462 CURVE SMOOTH",
"414 462 OFFCURVE",
"500 376 OFFCURVE",
"500 238 CURVE SMOOTH",
"500 100 OFFCURVE",
"414 16 OFFCURVE"
);
},
{
closed = 1;
nodes = (
"90 238 LINE",
"506 238 LINE",
"506 266 LINE",
"90 266 LINE"
);
}
);
width = 600;
}
);
unicode = 0275;
},
{
glyphname = oesmall;
lastChange = "2018-01-30 22:59:42 +0000";
layers = (
{
anchors = (
{
name = aboveLC;
position = "{350, 500}";
},
{
name = belowLC;
position = "{350, -20}";
}
);
layerId = "39876626-1A8B-482E-A4B0-28EC916B81A3";
paths = (
{
closed = 1;
nodes = (
"236 -12 CURVE SMOOTH",
"264 -12 OFFCURVE",
"294 -10 OFFCURVE",
"328 0 CURVE",
"582 0 LINE",
"582 28 LINE",
"356 28 LINE",
"356 238 LINE",
"530 238 LINE",
"530 266 LINE",
"356 266 LINE",
"356 450 LINE",
"572 450 LINE",
"572 478 LINE",
"328 478 LINE",
"294 488 OFFCURVE",
"264 490 OFFCURVE",
"236 490 CURVE SMOOTH",
"124 490 OFFCURVE",
"44 400 OFFCURVE",
"44 240 CURVE SMOOTH",
"44 80 OFFCURVE",
"124 -12 OFFCURVE"
);
},
{
closed = 1;
nodes = (
"238 16 CURVE SMOOTH",
"145 16 OFFCURVE",
"76 96 OFFCURVE",
"76 240 CURVE SMOOTH",
"76 384 OFFCURVE",
"145 462 OFFCURVE",
"238 462 CURVE SMOOTH",
"264 462 OFFCURVE",
"297 454 OFFCURVE",
"324 446 CURVE",
"324 32 LINE",
"297 24 OFFCURVE",
"264 16 OFFCURVE"
);
}
);
width = 600;
}
);
unicode = 0276;
},
{
glyphname = philatin;
lastChange = "2018-01-30 22:59:42 +0000";
layers = (
{
anchors = (
{
name = aboveUC;
position = "{300, 740}";
},
{
name = belowLC;
position = "{300, -230}";
}
);
layerId = "39876626-1A8B-482E-A4B0-28EC916B81A3";
paths = (
{
closed = 1;
nodes = (
"291 -10 CURVE",
"291 16 LINE",
"173 16 OFFCURVE",
"90 104 OFFCURVE",
"90 240 CURVE SMOOTH",
"90 376 OFFCURVE",
"173 462 OFFCURVE",
"291 462 CURVE",
"291 488 LINE",
"161 488 OFFCURVE",
"58 400 OFFCURVE",
"58 240 CURVE SMOOTH",
"58 80 OFFCURVE",
"161 -10 OFFCURVE"
);
},
{
closed = 1;
nodes = (
"309 -10 LINE",
"439 -10 OFFCURVE",
"542 80 OFFCURVE",
"542 240 CURVE SMOOTH",
"542 400 OFFCURVE",
"439 488 OFFCURVE",
"309 488 CURVE",
"309 462 LINE",
"427 462 OFFCURVE",
"510 376 OFFCURVE",
"510 240 CURVE SMOOTH",
"510 104 OFFCURVE",
"427 16 OFFCURVE",
"309 16 CURVE"
);
},
{
closed = 1;
nodes = (
"285 -222 LINE",
"315 -222 LINE",
"315 722 LINE",
"285 722 LINE"
);
}
);
width = 600;
}
);
unicode = 0278;
},
{
glyphname = rlonglegturned;
lastChange = "2018-01-30 22:59:42 +0000";
layers = (
{
anchors = (
{
name = aboveUC;
position = "{410, 740}";
},
{
name = belowLC;
position = "{260, -20}";
}
);
layerId = "39876626-1A8B-482E-A4B0-28EC916B81A3";
paths = (
{
closed = 1;
nodes = (
"169 -12 CURVE SMOOTH",
"267 -12 OFFCURVE",
"346 44 OFFCURVE",
"398 120 CURVE",
"400 120 LINE",
"404 0 LINE",
"430 0 LINE",
"430 722 LINE",
"400 722 LINE",
"400 172 LINE",
"330 60 OFFCURVE",
"256 18 OFFCURVE",
"173 18 CURVE SMOOTH",
"135 18 OFFCURVE",
"118 23 OFFCURVE",
"82 36 CURVE",
"72 8 LINE",
"103 -8 OFFCURVE",
"138 -12 OFFCURVE"
);
}
);
width = 600;
}
);
unicode = 027A;
},
{
glyphname = rhookturned;
lastChange = "2018-01-30 22:59:42 +0000";
layers = (
{
anchors = (
{
name = aboveLC;
position = "{300, 500}";
},
{
name = belowLC;
position = "{300, -230}";
}
);
layerId = "39876626-1A8B-482E-A4B0-28EC916B81A3";
paths = (
{
closed = 1;
nodes = (
"412 -180 CURVE SMOOTH",
"434 -180 OFFCURVE",
"469 -172 OFFCURVE",
"486 -162 CURVE",
"478 -136 LINE",
"460 -143 OFFCURVE",
"433 -152 OFFCURVE",
"410 -152 CURVE SMOOTH",
"350 -152 OFFCURVE",
"330 -114 OFFCURVE",
"330 -30 CURVE",
"330 478 LINE",
"300 478 LINE",
"300 146 LINE",
"262 52 OFFCURVE",
"218 18 OFFCURVE",
"166 18 CURVE SMOOTH",
"130 18 OFFCURVE",
"115 24 OFFCURVE",
"82 36 CURVE",
"72 8 LINE",
"104 -7 OFFCURVE",
"131 -12 OFFCURVE",
"162 -12 CURVE SMOOTH",
"228 -12 OFFCURVE",
"268 32 OFFCURVE",
"298 90 CURVE",
"300 90 LINE",
"300 -34 LINE SMOOTH",
"300 -138 OFFCURVE",
"334 -180 OFFCURVE"
);
}
);
width = 600;
}
);
unicode = 027B;
},
{
glyphname = rtail;
lastChange = "2018-01-30 22:59:42 +0000";
layers = (
{
anchors = (
{
name = aboveLC;
position = "{360, 500}";
},
{
name = belowLC;
position = "{350, -230}";
}
);
layerId = "39876626-1A8B-482E-A4B0-28EC916B81A3";
paths = (
{
closed = 1;
nodes = (
"336 -180 CURVE SMOOTH",
"396 -180 OFFCURVE",
"436 -168 OFFCURVE",
"480 -150 CURVE",
"470 -126 LINE",
"430 -142 OFFCURVE",
"392 -152 OFFCURVE",
"338 -152 CURVE SMOOTH",
"226 -152 OFFCURVE",
"200 -92 OFFCURVE",
"200 4 CURVE",
"200 306 LINE",
"270 418 OFFCURVE",
"344 460 OFFCURVE",
"427 460 CURVE SMOOTH",
"465 460 OFFCURVE",
"482 455 OFFCURVE",
"518 442 CURVE",
"528 470 LINE",
"497 486 OFFCURVE",
"462 490 OFFCURVE",
"431 490 CURVE SMOOTH",
"333 490 OFFCURVE",
"254 434 OFFCURVE",
"202 358 CURVE",
"200 358 LINE",
"196 478 LINE",
"170 478 LINE",
"170 8 LINE",
"170 -104 OFFCURVE",
"208 -180 OFFCURVE"
);
}
);
width = 600;
}
);
unicode = 027D;
},
{
glyphname = rfishhook;
lastChange = "2018-01-30 22:59:42 +0000";
layers = (
{
anchors = (
{
name = aboveLC;
position = "{360, 500}";
},
{
name = belowLC;
position = "{190, -20}";
}
);
layerId = "39876626-1A8B-482E-A4B0-28EC916B81A3";
paths = (
{
closed = 1;
nodes = (
"170 0 LINE",
"200 0 LINE",
"200 238 LINE SMOOTH",
"200 388 OFFCURVE",
"290 460 OFFCURVE",
"414 460 CURVE SMOOTH",
"446 460 OFFCURVE",
"482 456 OFFCURVE",
"518 442 CURVE",
"528 470 LINE",
"494 484 OFFCURVE",
"455 490 OFFCURVE",
"416 490 CURVE SMOOTH",
"284 490 OFFCURVE",
"170 420 OFFCURVE",
"170 242 CURVE SMOOTH"
);
}
);
width = 600;
}
);
unicode = 027E;
},
{
glyphname = rsmall;
lastChange = "2018-01-30 22:59:42 +0000";
layers = (
{
anchors = (
{
name = aboveLC;
position = "{320, 500}";
},
{
name = belowLC;
position = "{320, -20}";
}
);
layerId = "39876626-1A8B-482E-A4B0-28EC916B81A3";
paths = (
{
closed = 1;
nodes = (
"120 0 LINE",
"150 0 LINE",
"150 216 LINE",
"358 216 LINE",
"446 216 OFFCURVE",
"517 256 OFFCURVE",
"517 350 CURVE SMOOTH",
"517 444 OFFCURVE",
"448 478 OFFCURVE",
"350 478 CURVE SMOOTH",
"120 478 LINE"
);
},
{
closed = 1;
nodes = (
"150 244 LINE",
"150 450 LINE",
"340 450 LINE SMOOTH",
"429 450 OFFCURVE",
"485 421 OFFCURVE",
"485 350 CURVE SMOOTH",
"485 279 OFFCURVE",
"429 244 OFFCURVE",
"340 244 CURVE SMOOTH"
);
},
{
closed = 1;
nodes = (
"492 0 LINE",
"528 0 LINE",
"356 230 LINE",
"330 218 LINE"
);
}
);
width = 600;
}
);
unicode = 0280;
},
{
glyphname = shook;
lastChange = "2018-01-30 22:59:42 +0000";
layers = (
{
anchors = (
{
name = aboveLC;
position = "{296, 500}";
},
{
name = belowLC;
position = "{310, -230}";
}
);
components = (
{
name = s;
}
);
layerId = "39876626-1A8B-482E-A4B0-28EC916B81A3";
paths = (
{
closed = 1;
nodes = (
"184 -180 CURVE SMOOTH",
"204 -180 OFFCURVE",
"228 -174 OFFCURVE",
"242 -168 CURVE",
"234 -142 LINE",
"222 -146 OFFCURVE",
"202 -152 OFFCURVE",
"182 -152 CURVE SMOOTH",
"126 -152 OFFCURVE",
"116 -106 OFFCURVE",
"116 -44 CURVE",
"116 64 LINE",
"86 64 LINE",
"86 -48 LINE SMOOTH",
"86 -140 OFFCURVE",
"118 -180 OFFCURVE"
);
}
);
width = 600;
}
);
unicode = 0282;
},
{
glyphname = esh;
lastChange = "2018-01-30 22:59:42 +0000";
layers = (
{
anchors = (
{
name = aboveUC;
position = "{340, 740}";
},
{
name = belowLC;
position = "{280, -230}";
}
);
layerId = "39876626-1A8B-482E-A4B0-28EC916B81A3";
paths = (
{
closed = 1;
nodes = (
"188 -234 CURVE SMOOTH",
"274 -234 OFFCURVE",
"316 -182 OFFCURVE",
"316 -62 CURVE SMOOTH",
"316 560 LINE SMOOTH",
"316 644 OFFCURVE",
"333 708 OFFCURVE",
"422 708 CURVE SMOOTH",
"457 708 OFFCURVE",
"482 696 OFFCURVE",
"514 678 CURVE",
"526 704 LINE",
"487 725 OFFCURVE",
"461 736 OFFCURVE",
"424 736 CURVE SMOOTH",
"330 736 OFFCURVE",
"286 684 OFFCURVE",
"286 564 CURVE SMOOTH",
"286 -58 LINE SMOOTH",
"286 -142 OFFCURVE",
"271 -206 OFFCURVE",
"190 -206 CURVE SMOOTH",
"148 -206 OFFCURVE",
"112 -191 OFFCURVE",
"80 -176 CURVE",
"66 -202 LINE",
"106 -223 OFFCURVE",
"145 -234 OFFCURVE"
);
}
);
width = 600;
}
);
unicode = 0283;
},
{
glyphname = dotlessjstrokehook;
lastChange = "2018-01-30 22:59:42 +0000";
layers = (
{
anchors = (
{
name = aboveUC;
position = "{340, 740}";
},
{
name = belowLC;
position = "{280, -230}";
}
);
components = (
{
name = esh;
}
);
layerId = "39876626-1A8B-482E-A4B0-28EC916B81A3";
paths = (
{
closed = 1;
nodes = (
"88 238 LINE",
"508 238 LINE",
"508 266 LINE",
"286 266 LINE",
"88 262 LINE"
);
}
);
width = 600;
}
);
unicode = 0284;
},
{
glyphname = tretroflex;
lastChange = "2018-01-30 22:59:42 +0000";
layers = (
{
anchors = (
{
name = aboveLC;
position = "{250, 630}";
},
{
name = belowLC;
position = "{390, -230}";
}
);
layerId = "39876626-1A8B-482E-A4B0-28EC916B81A3";
paths = (
{
closed = 1;
nodes = (
"397 -180 CURVE SMOOTH",
"441 -180 OFFCURVE",
"499 -168 OFFCURVE",
"542 -150 CURVE",
"532 -126 LINE",
"493 -142 OFFCURVE",
"452 -152 OFFCURVE",
"399 -152 CURVE SMOOTH",
"288 -152 OFFCURVE",
"262 -92 OFFCURVE",
"262 4 CURVE SMOOTH",
"262 450 LINE",
"524 450 LINE",
"524 478 LINE",
"262 478 LINE",
"262 638 LINE",
"236 638 LINE",
"232 478 LINE",
"84 474 LINE",
"84 450 LINE",
"232 450 LINE",
"232 8 LINE SMOOTH",
"232 -104 OFFCURVE",
"270 -180 OFFCURVE"
);
}
);
width = 600;
}
);
unicode = 0288;
},
{
glyphname = ubar;
lastChange = "2018-01-30 22:59:42 +0000";
layers = (
{
anchors = (
{
name = aboveLC;
position = "{294, 500}";
},
{
name = baseLC;
position = "{436, 0}";
},
{
name = belowLC;
position = "{290, -20}";
}
);
layerId = "39876626-1A8B-482E-A4B0-28EC916B81A3";
paths = (
{
closed = 1;
nodes = (
"264 -12 CURVE SMOOTH",
"330 -12 OFFCURVE",
"380 26 OFFCURVE",
"428 82 CURVE",
"430 82 LINE",
"434 0 LINE",
"460 0 LINE",
"460 478 LINE",
"430 478 LINE",
"430 120 LINE",
"370 48 OFFCURVE",
"326 16 OFFCURVE",
"266 16 CURVE SMOOTH",
"184 16 OFFCURVE",
"150 68 OFFCURVE",
"150 174 CURVE SMOOTH",
"150 478 LINE",
"120 478 LINE",
"120 170 LINE SMOOTH",
"120 46 OFFCURVE",
"166 -12 OFFCURVE"
);
},
{
closed = 1;
nodes = (
"12 258 LINE",
"572 258 LINE",
"572 286 LINE",
"120 286 LINE",
"12 282 LINE"
);
}
);
width = 600;
}
);
unicode = 0289;
},
{
glyphname = upsilonlatin;
lastChange = "2018-01-30 22:59:42 +0000";
layers = (
{
anchors = (
{
name = aboveLC;
position = "{300, 500}";
},
{
name = belowLC;
position = "{300, -20}";
}
);
layerId = "39876626-1A8B-482E-A4B0-28EC916B81A3";
paths = (
{
closed = 1;
nodes = (
"300 -12 CURVE SMOOTH",
"445 -12 OFFCURVE",
"528 96 OFFCURVE",
"528 216 CURVE SMOOTH",
"528 330 OFFCURVE",
"469 403 OFFCURVE",
"420 448 CURVE",
"420 450 LINE",
"540 450 LINE",
"540 478 LINE",
"368 478 LINE",
"368 458 LINE",
"438 411 OFFCURVE",
"496 334 OFFCURVE",
"496 222 CURVE SMOOTH",
"496 114 OFFCURVE",
"427 16 OFFCURVE",
"300 16 CURVE SMOOTH",
"173 16 OFFCURVE",
"104 114 OFFCURVE",
"104 222 CURVE SMOOTH",
"104 334 OFFCURVE",
"162 411 OFFCURVE",
"232 458 CURVE",
"232 478 LINE",
"60 478 LINE",
"60 450 LINE",
"180 450 LINE",
"180 448 LINE",
"131 403 OFFCURVE",
"72 330 OFFCURVE",
"72 216 CURVE SMOOTH",
"72 96 OFFCURVE",
"155 -12 OFFCURVE"
);
}
);
width = 600;
}
);
unicode = 028A;
},
{
glyphname = vhook;
lastChange = "2018-01-30 22:59:42 +0000";
layers = (
{
anchors = (
{
name = aboveLC;
position = "{300, 500}";
},
{
name = belowLC;
position = "{300, -20}";
}
);
layerId = "39876626-1A8B-482E-A4B0-28EC916B81A3";
paths = (
{
closed = 1;
nodes = (
"296 -12 CURVE SMOOTH",
"449 -12 OFFCURVE",
"530 120 OFFCURVE",
"530 286 CURVE SMOOTH",
"530 423 OFFCURVE",
"480 490 OFFCURVE",
"388 490 CURVE SMOOTH",
"358 490 OFFCURVE",
"347 487 OFFCURVE",
"328 482 CURVE",
"338 454 LINE",
"356 460 OFFCURVE",
"359 462 OFFCURVE",
"384 462 CURVE SMOOTH",
"460 462 OFFCURVE",
"498 396 OFFCURVE",
"498 282 CURVE SMOOTH",
"498 137 OFFCURVE",
"426 16 OFFCURVE",
"297 16 CURVE SMOOTH",
"204 16 OFFCURVE",
"120 69 OFFCURVE",
"120 211 CURVE SMOOTH",
"120 478 LINE",
"90 478 LINE",
"90 201 LINE SMOOTH",
"90 47 OFFCURVE",
"185 -12 OFFCURVE"
);
}
);
width = 600;
}
);
unicode = 028B;
},
{
glyphname = yturned;
lastChange = "2018-01-30 22:59:42 +0000";
layers = (
{
anchors = (
{
name = aboveUC;
position = "{430, 740}";
},
{
name = belowLC;
position = "{310, -20}";
}
);
layerId = "39876626-1A8B-482E-A4B0-28EC916B81A3";
paths = (
{
closed = 1;
nodes = (
"64 0 LINE",
"94 0 LINE",
"226 314 LINE SMOOTH",
"243 354 OFFCURVE",
"264 406 OFFCURVE",
"284 448 CURVE",
"288 448 LINE",
"312 406 OFFCURVE",
"337 354 OFFCURVE",
"356 314 CURVE SMOOTH",
"504 0 LINE",
"536 0 LINE",
"300 490 LINE",
"334 568 LINE",
"363 646 OFFCURVE",
"410 704 OFFCURVE",
"481 704 CURVE SMOOTH",
"500 704 OFFCURVE",
"516 700 OFFCURVE",
"528 696 CURVE",
"538 724 LINE",
"524 730 OFFCURVE",
"502 734 OFFCURVE",
"484 734 CURVE SMOOTH",
"392 734 OFFCURVE",
"335 654 OFFCURVE",
"310 580 CURVE"
);
}
);
width = 600;
}
);
unicode = 028E;
},
{
glyphname = ysmall;
lastChange = "2018-01-30 22:59:42 +0000";
layers = (
{
anchors = (
{
name = aboveLC;
position = "{300, 500}";
},
{
name = belowLC;
position = "{300, -20}";
}
);
layerId = "39876626-1A8B-482E-A4B0-28EC916B81A3";
paths = (
{
closed = 1;
nodes = (
"286 0 LINE",
"316 0 LINE",
"316 176 LINE",
"526 478 LINE",
"490 478 LINE",
"380 316 LINE SMOOTH",
"353 276 OFFCURVE",
"327 244 OFFCURVE",
"304 204 CURVE",
"300 204 LINE",
"276 244 OFFCURVE",
"248 277 OFFCURVE",
"222 316 CURVE SMOOTH",
"112 478 LINE",
"76 478 LINE",
"286 176 LINE"
);
}
);
width = 600;
}
);
unicode = 028F;
},
{
glyphname = zretroflex;
lastChange = "2018-01-30 22:59:42 +0000";
layers = (
{
anchors = (
{
name = aboveLC;
position = "{318, 500}";
}
);
layerId = "39876626-1A8B-482E-A4B0-28EC916B81A3";
paths = (
{
closed = 1;
nodes = (
"560 -180 CURVE SMOOTH",
"576 -180 OFFCURVE",
"598 -174 OFFCURVE",
"608 -168 CURVE",
"600 -142 LINE",
"590 -146 OFFCURVE",
"574 -152 OFFCURVE",
"558 -152 CURVE SMOOTH",
"514 -152 OFFCURVE",
"502 -110 OFFCURVE",
"502 -50 CURVE",
"502 28 LINE",
"120 28 LINE",
"502 462 LINE",
"502 478 LINE",
"114 478 LINE",
"114 450 LINE",
"454 450 LINE",
"72 16 LINE",
"72 0 LINE",
"472 0 LINE",
"472 -54 LINE SMOOTH",
"472 -144 OFFCURVE",
"500 -180 OFFCURVE"
);
}
);
width = 600;
}
);
unicode = 0290;
},
{
glyphname = zcurl;
lastChange = "2018-01-30 22:59:42 +0000";
layers = (
{
anchors = (
{
name = aboveLC;
position = "{318, 500}";
}
);
layerId = "39876626-1A8B-482E-A4B0-28EC916B81A3";
paths = (
{
closed = 1;
nodes = (
"346 -120 LINE",
"376 78 OFFCURVE",
"438 150 OFFCURVE",
"490 150 CURVE SMOOTH",
"527 150 OFFCURVE",
"540 128 OFFCURVE",
"540 100 CURVE SMOOTH",
"540 64 OFFCURVE",
"504 28 OFFCURVE",
"438 28 CURVE SMOOTH",
"331 28 OFFCURVE",
"227 28 OFFCURVE",
"120 28 CURVE",
"512 462 LINE",
"512 478 LINE",
"114 478 LINE",
"114 450 LINE",
"464 450 LINE",
"72 16 LINE",
"72 0 LINE",
"432 0 LINE SMOOTH",
"522 0 OFFCURVE",
"570 45 OFFCURVE",
"570 100 CURVE SMOOTH",
"570 148 OFFCURVE",
"542 178 OFFCURVE",
"492 178 CURVE SMOOTH",
"418 178 OFFCURVE",
"354 96 OFFCURVE",
"316 -114 CURVE"
);
}
);
width = 600;
}
);
unicode = 0291;
},
{
glyphname = ezh;
lastChange = "2018-01-30 22:59:42 +0000";
layers = (
{
anchors = (
{
name = aboveLC;
position = "{310, 500}";
},
{
name = belowLC;
position = "{290, -230}";
}
);
layerId = "39876626-1A8B-482E-A4B0-28EC916B81A3";
paths = (
{
closed = 1;
nodes = (
"292 -234 CURVE SMOOTH",
"407 -234 OFFCURVE",
"522 -157 OFFCURVE",
"522 -18 CURVE SMOOTH",
"522 109 OFFCURVE",
"440 180 OFFCURVE",
"296 180 CURVE SMOOTH",
"277 180 OFFCURVE",
"240 178 OFFCURVE",
"202 162 CURVE",
"204 156 LINE",
"502 462 LINE",
"502 478 LINE",
"110 478 LINE",
"110 450 LINE",
"452 450 LINE",
"158 148 LINE",
"178 122 LINE",
"218 142 OFFCURVE",
"238 152 OFFCURVE",
"286 152 CURVE SMOOTH",
"420 152 OFFCURVE",
"490 86 OFFCURVE",
"490 -20 CURVE SMOOTH",
"490 -130 OFFCURVE",
"398 -206 OFFCURVE",
"294 -206 CURVE SMOOTH",
"187 -206 OFFCURVE",
"130 -162 OFFCURVE",
"84 -116 CURVE",
"64 -139 LINE",
"112 -183 OFFCURVE",
"174 -234 OFFCURVE"
);
}
);
width = 600;
}
);
unicode = 0292;
},
{
glyphname = dezh;
lastChange = "2018-01-30 22:59:42 +0000";
layers = (
{
anchors = (
{
name = aboveUC;
position = "{280, 730}";
},
{
name = belowLC;
position = "{330, -230}";
}
);
layerId = "39876626-1A8B-482E-A4B0-28EC916B81A3";
paths = (
{
closed = 1;
nodes = (
"162 -12 CURVE SMOOTH",
"218 -12 OFFCURVE",
"260 34 OFFCURVE",
"278 74 CURVE",
"280 74 LINE",
"284 0 LINE",
"310 0 LINE",
"310 722 LINE",
"280 722 LINE SMOOTH",
"280 520 LINE",
"282 420 LINE",
"280 420 LINE",
"260 456 OFFCURVE",
"226 490 OFFCURVE",
"178 490 CURVE SMOOTH",
"90 490 OFFCURVE",
"10 392 OFFCURVE",
"10 238 CURVE SMOOTH",
"10 76 OFFCURVE",
"72 -12 OFFCURVE"
);
},
{
closed = 1;
nodes = (
"164 16 CURVE SMOOTH",
"88 16 OFFCURVE",
"42 106 OFFCURVE",
"42 238 CURVE SMOOTH",
"42 362 OFFCURVE",
"100 462 OFFCURVE",
"176 462 CURVE SMOOTH",
"220 462 OFFCURVE",
"250 432 OFFCURVE",
"280 386 CURVE",
"280 110 LINE",
"250 58 OFFCURVE",
"212 16 OFFCURVE"
);
},
{
closed = 1;
nodes = (
"468 -234 CURVE SMOOTH",
"544 -234 OFFCURVE",
"618 -168 OFFCURVE",
"618 -22 CURVE SMOOTH",
"618 96 OFFCURVE",
"558 168 OFFCURVE",
"464 168 CURVE SMOOTH",
"446 168 OFFCURVE",
"420 164 OFFCURVE",
"392 152 CURVE",
"406 138 LINE",
"598 462 LINE",
"598 478 LINE",
"306 478 LINE",
"306 450 LINE",
"554 450 LINE",
"376 146 LINE",
"396 120 LINE",
"418 132 OFFCURVE",
"434 140 OFFCURVE",
"462 140 CURVE SMOOTH",
"539 140 OFFCURVE",
"586 78 OFFCURVE",
"586 -24 CURVE SMOOTH",
"586 -142 OFFCURVE",
"534 -206 OFFCURVE",
"470 -206 CURVE SMOOTH",
"404 -206 OFFCURVE",
"372 -180 OFFCURVE",
"340 -147 CURVE",
"320 -169 LINE",
"354 -204 OFFCURVE",
"392 -234 OFFCURVE"
);
}
);
width = 600;
}
);
unicode = 02A4;
},
{
glyphname = ts;
lastChange = "2018-01-30 22:59:42 +0000";
layers = (
{
anchors = (
{
name = aboveLC;
position = "{330, 630}";
},
{
name = belowLC;
position = "{330, -20}";
}
);
layerId = "39876626-1A8B-482E-A4B0-28EC916B81A3";
paths = (
{
closed = 1;
nodes = (
"325 -12 CURVE SMOOTH",
"492 -12 OFFCURVE",
"554 38 OFFCURVE",
"554 122 CURVE SMOOTH",
"554 302 OFFCURVE",
"342 264 OFFCURVE",
"342 386 CURVE SMOOTH",
"342 435 OFFCURVE",
"376 462 OFFCURVE",
"426 462 CURVE SMOOTH",
"468 462 OFFCURVE",
"498 446 OFFCURVE",
"526 422 CURVE",
"544 444 LINE",
"512 472 OFFCURVE",
"474 490 OFFCURVE",
"428 490 CURVE SMOOTH",
"360 490 OFFCURVE",
"310 459 OFFCURVE",
"310 384 CURVE SMOOTH",
"310 242 OFFCURVE",
"522 280 OFFCURVE",
"522 120 CURVE SMOOTH",
"522 58 OFFCURVE",
"472 16 OFFCURVE",
"322 16 CURVE SMOOTH",
"180 16 OFFCURVE",
"146 62 OFFCURVE",
"146 162 CURVE SMOOTH",
"146 450 LINE",
"372 450 LINE",
"372 478 LINE",
"146 478 LINE",
"146 638 LINE",
"120 638 LINE",
"116 478 LINE",
"40 474 LINE",
"40 450 LINE",
"116 450 LINE",
"116 166 LINE SMOOTH",
"116 46 OFFCURVE",
"162 -12 OFFCURVE"
);
}
);
width = 600;
}
);
unicode = 02A6;
},
{
glyphname = tesh;
lastChange = "2018-01-30 22:59:42 +0000";
layers = (
{
anchors = (
{
name = aboveUC;
position = "{315, 730}";
},
{
name = belowLC;
position = "{331, -230}";
}
);
layerId = "39876626-1A8B-482E-A4B0-28EC916B81A3";
paths = (
{
closed = 1;
nodes = (
"270 -12 CURVE SMOOTH",
"286 -12 OFFCURVE",
"316 -4 OFFCURVE",
"344 6 CURVE",
"334 32 LINE",
"316 24 OFFCURVE",
"290 16 OFFCURVE",
"272 16 CURVE SMOOTH",
"202 16 OFFCURVE",
"188 60 OFFCURVE",
"188 122 CURVE SMOOTH",
"188 450 LINE",
"420 450 LINE",
"420 478 LINE",
"188 478 LINE",
"188 638 LINE",
"162 638 LINE",
"158 478 LINE",
"82 474 LINE",
"82 450 LINE",
"158 450 LINE",
"158 126 LINE SMOOTH",
"158 44 OFFCURVE",
"182 -12 OFFCURVE"
);
},
{
closed = 1;
nodes = (
"340 -234 CURVE SMOOTH",
"406 -234 OFFCURVE",
"438 -194 OFFCURVE",
"438 -102 CURVE SMOOTH",
"438 600 LINE SMOOTH",
"438 662 OFFCURVE",
"450 708 OFFCURVE",
"514 708 CURVE SMOOTH",
"530 708 OFFCURVE",
"546 702 OFFCURVE",
"556 698 CURVE",
"564 724 LINE",
"552 730 OFFCURVE",
"533 736 OFFCURVE",
"516 736 CURVE SMOOTH",
"443 736 OFFCURVE",
"408 696 OFFCURVE",
"408 604 CURVE SMOOTH",
"408 -98 LINE",
"408 -160 OFFCURVE",
"398 -206 OFFCURVE",
"342 -206 CURVE SMOOTH",
"322 -206 OFFCURVE",
"302 -200 OFFCURVE",
"290 -196 CURVE",
"282 -222 LINE",
"296 -228 OFFCURVE",
"320 -234 OFFCURVE"
);
}
);
width = 600;
}
);
unicode = 02A7;
},
{
glyphname = glottalstop;
lastChange = "2018-01-30 22:59:42 +0000";
layers = (
{
anchors = (
{
name = aboveUC;
position = "{300, 740}";
},
{
name = belowLC;
position = "{280, -20}";
}
);
layerId = "39876626-1A8B-482E-A4B0-28EC916B81A3";
paths = (
{
closed = 1;
nodes = (
"266 0 LINE",
"296 0 LINE",
"296 288 LINE",
"410 356 OFFCURVE",
"496 419 OFFCURVE",
"496 542 CURVE SMOOTH",
"496 666 OFFCURVE",
"407 734 OFFCURVE",
"290 734 CURVE SMOOTH",
"188 734 OFFCURVE",
"128 683 OFFCURVE",
"88 638 CURVE",
"108 616 LINE",
"146 661 OFFCURVE",
"200 706 OFFCURVE",
"292 706 CURVE SMOOTH",
"403 706 OFFCURVE",
"464 640 OFFCURVE",
"464 544 CURVE SMOOTH",
"464 440 OFFCURVE",
"396 379 OFFCURVE",
"266 310 CURVE"
);
}
);
width = 600;
}
);
unicode = 0294;
},
{
glyphname = glottalstopreversed;
lastChange = "2018-01-30 22:59:42 +0000";
layers = (
{
anchors = (
{
name = aboveUC;
position = "{310, 740}";
},
{
name = belowLC;
position = "{320, -20}";
}
);
layerId = "39876626-1A8B-482E-A4B0-28EC916B81A3";
paths = (
{
closed = 1;
nodes = (
"304 0 LINE",
"334 0 LINE",
"334 310 LINE",
"204 379 OFFCURVE",
"136 440 OFFCURVE",
"136 544 CURVE SMOOTH",
"136 640 OFFCURVE",
"197 706 OFFCURVE",
"308 706 CURVE SMOOTH",
"400 706 OFFCURVE",
"454 661 OFFCURVE",
"492 616 CURVE",
"512 638 LINE",
"472 683 OFFCURVE",
"412 734 OFFCURVE",
"310 734 CURVE SMOOTH",
"193 734 OFFCURVE",
"104 666 OFFCURVE",
"104 542 CURVE SMOOTH",
"104 419 OFFCURVE",
"190 356 OFFCURVE",
"304 288 CURVE"
);
}
);
width = 600;
}
);
unicode = 0295;
},
{
glyphname = glottalstopstroke;
lastChange = "2018-01-30 22:59:42 +0000";
layers = (
{
anchors = (
{
name = aboveUC;
position = "{300, 740}";
},
{
name = belowLC;
position = "{280, -20}";
}
);
layerId = "39876626-1A8B-482E-A4B0-28EC916B81A3";
paths = (
{
closed = 1;
nodes = (
"266 0 LINE",
"296 0 LINE",
"296 286 LINE",
"500 286 LINE",
"500 314 LINE",
"332 314 LINE",
"418 369 OFFCURVE",
"496 430 OFFCURVE",
"496 542 CURVE SMOOTH",
"496 666 OFFCURVE",
"408 734 OFFCURVE",
"290 734 CURVE SMOOTH",
"188 734 OFFCURVE",
"128 682 OFFCURVE",
"88 638 CURVE",
"108 616 LINE",
"146 660 OFFCURVE",
"200 706 OFFCURVE",
"292 706 CURVE SMOOTH",
"404 706 OFFCURVE",
"464 640 OFFCURVE",
"464 544 CURVE SMOOTH",
"464 446 OFFCURVE",
"388 376 OFFCURVE",
"276 314 CURVE",
"166 314 LINE",
"90 310 LINE",
"90 286 LINE",
"266 286 LINE"
);
}
);
width = 600;
}
);
unicode = 02A1;
},
{
glyphname = glottalstopstrokereversed;
lastChange = "2018-01-30 22:59:42 +0000";
layers = (
{
anchors = (
{
name = aboveUC;
position = "{310, 740}";
},
{
name = belowLC;
position = "{320, -20}";
}
);
layerId = "39876626-1A8B-482E-A4B0-28EC916B81A3";
paths = (
{
closed = 1;
nodes = (
"306 0 LINE",
"336 0 LINE",
"336 286 LINE",
"512 286 LINE",
"512 314 LINE",
"326 314 LINE",
"214 376 OFFCURVE",
"138 446 OFFCURVE",
"138 544 CURVE SMOOTH",
"138 640 OFFCURVE",
"198 706 OFFCURVE",
"310 706 CURVE SMOOTH",
"402 706 OFFCURVE",
"456 660 OFFCURVE",
"494 616 CURVE",
"514 638 LINE",
"474 682 OFFCURVE",
"414 734 OFFCURVE",
"312 734 CURVE SMOOTH",
"194 734 OFFCURVE",
"106 666 OFFCURVE",
"106 542 CURVE SMOOTH",
"106 430 OFFCURVE",
"184 369 OFFCURVE",
"270 314 CURVE",
"178 314 LINE",
"102 310 LINE",
"102 286 LINE",
"306 286 LINE"
);
}
);
width = 600;
}
);
unicode = 02A2;
},
{
glyphname = clickalveolar;
lastChange = "2018-01-30 22:59:42 +0000";
layers = (
{
layerId = "39876626-1A8B-482E-A4B0-28EC916B81A3";
paths = (
{
closed = 1;
nodes = (
"286 -222 LINE",
"314 -222 LINE",
"314 722 LINE",
"286 722 LINE"
);
},
{
closed = 1;
nodes = (
"100 332 LINE",
"500 332 LINE",
"500 360 LINE",
"286 360 LINE",
"100 356 LINE"
);
},
{
closed = 1;
nodes = (
"100 182 LINE",
"500 182 LINE",
"500 210 LINE",
"286 210 LINE",
"100 206 LINE"
);
}
);
width = 600;
}
);
unicode = 01C2;
},
{
glyphname = clickbilabial;
lastChange = "2018-01-30 22:59:42 +0000";
layers = (
{
layerId = "39876626-1A8B-482E-A4B0-28EC916B81A3";
paths = (
{
closed = 1;
nodes = (
"300 -12 CURVE SMOOTH",
"446 -12 OFFCURVE",
"530 98 OFFCURVE",
"530 364 CURVE SMOOTH",
"530 598 OFFCURVE",
"446 734 OFFCURVE",
"300 734 CURVE SMOOTH",
"154 734 OFFCURVE",
"70 598 OFFCURVE",
"70 364 CURVE SMOOTH",
"70 98 OFFCURVE",
"154 -12 OFFCURVE"
);
},
{
closed = 1;
nodes = (
"300 16 CURVE SMOOTH",
"184 16 OFFCURVE",
"102 114 OFFCURVE",
"102 364 CURVE SMOOTH",
"102 586 OFFCURVE",
"184 706 OFFCURVE",
"300 706 CURVE SMOOTH",
"416 706 OFFCURVE",
"498 586 OFFCURVE",
"498 364 CURVE SMOOTH",
"498 114 OFFCURVE",
"416 16 OFFCURVE"
);
},
{
closed = 1;
nodes = (
"300 308 CURVE SMOOTH",
"328 308 OFFCURVE",
"354 331 OFFCURVE",
"354 364 CURVE SMOOTH",
"354 400 OFFCURVE",
"328 420 OFFCURVE",
"300 420 CURVE SMOOTH",
"272 420 OFFCURVE",
"246 400 OFFCURVE",
"246 364 CURVE SMOOTH",
"246 331 OFFCURVE",
"272 308 OFFCURVE"
);
}
);
width = 600;
}
);
unicode = 0298;
},
{
glyphname = Eng.a;
lastChange = "2018-01-30 22:59:42 +0000";
layers = (
{
anchors = (
{
name = aboveUC;
position = "{310, 680}";
}
);
layerId = "39876626-1A8B-482E-A4B0-28EC916B81A3";
paths = (
{
closed = 1;
nodes = (
"412 -152 CURVE SMOOTH",
"474 -152 OFFCURVE",
"504 -113 OFFCURVE",
"504 -20 CURVE",
"504 660 LINE",
"474 660 LINE",
"474 231 LINE SMOOTH",
"474 169 OFFCURVE",
"477 109 OFFCURVE",
"478 46 CURVE",
"476 46 LINE",
"403 174 LINE",
"129 660 LINE",
"96 660 LINE",
"96 0 LINE",
"126 0 LINE",
"126 433 LINE SMOOTH",
"126 495 OFFCURVE",
"123 551 OFFCURVE",
"122 614 CURVE",
"124 614 LINE",
"197 486 LINE",
"471 0 LINE",
"476 0 LINE",
"476 -76 OFFCURVE",
"466 -120 OFFCURVE",
"414 -120 CURVE SMOOTH",
"396 -120 OFFCURVE",
"377 -114 OFFCURVE",
"366 -110 CURVE",
"358 -140 LINE",
"371 -146 OFFCURVE",
"393 -152 OFFCURVE"
);
}
);
width = 600;
}
);
},
{
glyphname = aringacute.a;
lastChange = "2018-01-30 22:59:42 +0000";
layers = (
{
components = (
{
name = aring.a;
}
);
layerId = "39876626-1A8B-482E-A4B0-28EC916B81A3";
paths = (
{
closed = 1;
nodes = (
"264 722 LINE",
"388 784 LINE",
"372 814 LINE",
"246 734 LINE"
);
}
);
width = 600;
}
);
},
{
glyphname = aogonek.a;
lastChange = "2018-01-30 22:59:42 +0000";
layers = (
{
anchors = (
{
name = aboveLC;
position = "{300, 500}";
}
);
layerId = "39876626-1A8B-482E-A4B0-28EC916B81A3";
paths = (
{
closed = 1;
nodes = (
"454 -224 CURVE SMOOTH",
"492 -224 OFFCURVE",
"512 -208 OFFCURVE",
"532 -188 CURVE",
"514 -170 LINE",
"500 -184 OFFCURVE",
"482 -196 OFFCURVE",
"456 -196 CURVE SMOOTH",
"423 -196 OFFCURVE",
"392 -176 OFFCURVE",
"392 -134 CURVE SMOOTH",
"392 -90 OFFCURVE",
"420 -48 OFFCURVE",
"490 -8 CURVE",
"490 478 LINE",
"464 478 LINE",
"460 422 LINE",
"458 422 LINE",
"409 464 OFFCURVE",
"360 490 OFFCURVE",
"298 490 CURVE SMOOTH",
"177 490 OFFCURVE",
"70 392 OFFCURVE",
"70 238 CURVE SMOOTH",
"70 76 OFFCURVE",
"156 -12 OFFCURVE",
"282 -12 CURVE SMOOTH",
"352 -12 OFFCURVE",
"415 29 OFFCURVE",
"458 74 CURVE",
"460 74 LINE",
"464 2 LINE",
"400 -38 OFFCURVE",
"362 -82 OFFCURVE",
"362 -136 CURVE SMOOTH",
"362 -196 OFFCURVE",
"401 -224 OFFCURVE"
);
},
{
closed = 1;
nodes = (
"284 16 CURVE SMOOTH",
"170 16 OFFCURVE",
"102 106 OFFCURVE",
"102 238 CURVE SMOOTH",
"102 362 OFFCURVE",
"188 462 OFFCURVE",
"296 462 CURVE SMOOTH",
"349 462 OFFCURVE",
"402 441 OFFCURVE",
"460 386 CURVE",
"460 110 LINE",
"403 50 OFFCURVE",
"343 16 OFFCURVE"
);
}
);
width = 600;
}
);
},
{
glyphname = dotlessi.a;
lastChange = "2018-01-30 22:59:42 +0000";
layers = (
{
anchors = (
{
name = aboveLC;
position = "{330, 500}";
},
{
name = baseLC;
position = "{334, 0}";
},
{
name = belowLC;
position = "{330, -20}";
},
{
name = ogonekLC;
position = "{340, 0}";
}
);
layerId = "39876626-1A8B-482E-A4B0-28EC916B81A3";
paths = (
{
closed = 1;
nodes = (
"326 0 LINE",
"356 0 LINE",
"356 478 LINE",
"140 478 LINE",
"140 450 LINE",
"326 450 LINE"
);
},
{
closed = 1;
nodes = (
"114 0 LINE",
"564 0 LINE",
"564 28 LINE",
"114 28 LINE"
);
}
);
width = 600;
}
);
},
{
glyphname = iogonek.d;
lastChange = "2018-01-30 22:59:42 +0000";
layers = (
{
anchors = (
{
name = aboveLC;
position = "{350, 500}";
}
);
layerId = "39876626-1A8B-482E-A4B0-28EC916B81A3";
paths = (
{
closed = 1;
nodes = (
"354 -224 CURVE SMOOTH",
"392 -224 OFFCURVE",
"412 -208 OFFCURVE",
"432 -188 CURVE",
"414 -170 LINE",
"400 -184 OFFCURVE",
"382 -196 OFFCURVE",
"356 -196 CURVE SMOOTH",
"323 -196 OFFCURVE",
"292 -176 OFFCURVE",
"292 -134 CURVE SMOOTH",
"292 -89 OFFCURVE",
"324 -42 OFFCURVE",
"376 -8 CURVE",
"376 478 LINE",
"100 478 LINE",
"100 450 LINE",
"346 450 LINE",
"346 0 LINE",
"348 0 LINE",
"296 -38 OFFCURVE",
"262 -84 OFFCURVE",
"262 -136 CURVE SMOOTH",
"262 -196 OFFCURVE",
"301 -224 OFFCURVE"
);
}
);
width = 600;
}
);
},
{
glyphname = iogonek.da;
lastChange = "2018-01-30 22:59:42 +0000";
layers = (
{
anchors = (
{
name = aboveLC;
position = "{330, 520}";
}
);
layerId = "39876626-1A8B-482E-A4B0-28EC916B81A3";
paths = (
{
closed = 1;
nodes = (
"354 -224 CURVE SMOOTH",
"392 -224 OFFCURVE",
"412 -208 OFFCURVE",
"432 -188 CURVE",
"414 -170 LINE",
"400 -184 OFFCURVE",
"382 -196 OFFCURVE",
"356 -196 CURVE SMOOTH",
"323 -196 OFFCURVE",
"292 -176 OFFCURVE",
"292 -134 CURVE SMOOTH",
"292 -94 OFFCURVE",
"318 -50 OFFCURVE",
"364 0 CURVE",
"564 0 LINE",
"564 28 LINE",
"356 28 LINE",
"356 478 LINE",
"140 478 LINE",
"140 450 LINE",
"326 450 LINE",
"326 28 LINE",
"114 28 LINE",
"114 0 LINE",
"330 0 LINE",
"294 -40 OFFCURVE",
"262 -86 OFFCURVE",
"262 -136 CURVE SMOOTH",
"262 -196 OFFCURVE",
"301 -224 OFFCURVE"
);
}
);
width = 600;
}
);
},
{
glyphname = istroke.d;
lastChange = "2018-01-30 22:59:42 +0000";
layers = (
{
anchors = (
{
name = aboveLC;
position = "{350, 500}";
},
{
name = belowLC;
position = "{350, -20}";
}
);
components = (
{
name = dotlessi;
}
);
layerId = "39876626-1A8B-482E-A4B0-28EC916B81A3";
paths = (
{
closed = 1;
nodes = (
"148 238 LINE",
"568 238 LINE",
"568 266 LINE",
"346 266 LINE",
"148 262 LINE"
);
}
);
width = 600;
}
);
},
{
glyphname = istroke.da;
lastChange = "2018-01-30 22:59:42 +0000";
layers = (
{
anchors = (
{
name = aboveLC;
position = "{330, 500}";
},
{
name = belowLC;
position = "{330, -20}";
}
);
components = (
{
name = dotlessi.a;
}
);
layerId = "39876626-1A8B-482E-A4B0-28EC916B81A3";
paths = (
{
closed = 1;
nodes = (
"128 238 LINE",
"548 238 LINE",
"548 266 LINE",
"326 266 LINE",
"128 262 LINE"
);
}
);
width = 600;
}
);
},
{
glyphname = jcrossedtail.d;
lastChange = "2018-01-30 22:59:42 +0000";
layers = (
{
anchors = (
{
name = aboveLC;
position = "{350, 500}";
},
{
name = belowLC;
position = "{230, -230}";
}
);
layerId = "39876626-1A8B-482E-A4B0-28EC916B81A3";
paths = (
{
closed = 1;
nodes = (
"422 -268 CURVE",
"446 -254 LINE",
"367 -127 OFFCURVE",
"268 -80 OFFCURVE",
"180 -80 CURVE SMOOTH",
"114 -80 OFFCURVE",
"80 -110 OFFCURVE",
"80 -152 CURVE SMOOTH",
"80 -194 OFFCURVE",
"120 -234 OFFCURVE",
"198 -234 CURVE SMOOTH",
"322 -234 OFFCURVE",
"376 -164 OFFCURVE",
"376 -52 CURVE SMOOTH",
"376 478 LINE",
"100 478 LINE",
"100 450 LINE",
"346 450 LINE",
"346 -58 LINE SMOOTH",
"346 -124 OFFCURVE",
"321 -206 OFFCURVE",
"200 -206 CURVE SMOOTH",
"146 -206 OFFCURVE",
"112 -184 OFFCURVE",
"112 -154 CURVE SMOOTH",
"112 -128 OFFCURVE",
"133 -108 OFFCURVE",
"180 -108 CURVE SMOOTH",
"254 -108 OFFCURVE",
"342 -145 OFFCURVE"
);
}
);
width = 600;
}
);
},
{
glyphname = l.a;
lastChange = "2018-01-30 22:59:42 +0000";
layers = (
{
anchors = (
{
name = aboveUC;
position = "{340, 740}";
},
{
name = baseLC;
position = "{334, 0}";
},
{
name = belowLC;
position = "{330, -20}";
},
{
name = center;
position = "{342, 400}";
}
);
layerId = "39876626-1A8B-482E-A4B0-28EC916B81A3";
paths = (
{
closed = 1;
nodes = (
"326 0 LINE",
"356 0 LINE",
"356 722 LINE",
"140 722 LINE",
"140 694 LINE",
"326 694 LINE"
);
},
{
closed = 1;
nodes = (
"114 0 LINE",
"564 0 LINE",
"564 28 LINE",
"114 28 LINE"
);
}
);
width = 600;
}
);
},
{
glyphname = lslash.a;
lastChange = "2018-01-30 22:59:42 +0000";
layers = (
{
anchors = (
{
name = aboveUC;
position = "{340, 740}";
},
{
name = baseLC;
position = "{334, 0}";
},
{
name = belowLC;
position = "{330, -20}";
}
);
layerId = "39876626-1A8B-482E-A4B0-28EC916B81A3";
paths = (
{
closed = 1;
nodes = (
"326 0 LINE",
"356 0 LINE",
"356 722 LINE",
"140 722 LINE",
"140 694 LINE",
"326 694 LINE"
);
},
{
closed = 1;
nodes = (
"114 0 LINE",
"564 0 LINE",
"564 28 LINE",
"114 28 LINE"
);
},
{
closed = 1;
nodes = (
"200 304 LINE",
"328 380 LINE",
"354 392 LINE",
"536 498 LINE",
"524 522 LINE",
"354 424 LINE",
"328 412 LINE",
"188 328 LINE"
);
}
);
width = 600;
}
);
},
{
glyphname = lcat.a;
lastChange = "2018-01-30 22:59:42 +0000";
layers = (
{
layerId = "39876626-1A8B-482E-A4B0-28EC916B81A3";
paths = (
{
closed = 1;
nodes = (
"132 0 LINE",
"162 0 LINE",
"162 722 LINE",
"12 722 LINE",
"12 694 LINE",
"132 694 LINE"
);
},
{
closed = 1;
nodes = (
"6 0 LINE",
"284 0 LINE",
"284 28 LINE",
"6 28 LINE"
);
},
{
closed = 1;
nodes = (
"442 0 LINE",
"472 0 LINE",
"472 722 LINE",
"322 722 LINE",
"322 694 LINE",
"442 694 LINE"
);
},
{
closed = 1;
nodes = (
"316 0 LINE",
"594 0 LINE",
"594 28 LINE",
"316 28 LINE"
);
},
{
closed = 1;
nodes = (
"306 284 CURVE SMOOTH",
"332 284 OFFCURVE",
"358 304 OFFCURVE",
"358 342 CURVE SMOOTH",
"358 380 OFFCURVE",
"332 400 OFFCURVE",
"306 400 CURVE SMOOTH",
"280 400 OFFCURVE",
"254 380 OFFCURVE",
"254 342 CURVE SMOOTH",
"254 304 OFFCURVE",
"280 284 OFFCURVE"
);
}
);
width = 600;
}
);
},
{
glyphname = lbelt.a;
lastChange = "2018-01-30 22:59:42 +0000";
layers = (
{
anchors = (
{
name = aboveUC;
position = "{340, 740}";
},
{
name = baseLC;
position = "{334, 0}";
},
{
name = belowLC;
position = "{330, -20}";
}
);
components = (
{
name = l.a;
}
);
layerId = "39876626-1A8B-482E-A4B0-28EC916B81A3";
paths = (
{
closed = 1;
nodes = (
"294 340 CURVE SMOOTH",
"504 340 LINE",
"504 368 LINE",
"288 368 LINE SMOOTH",
"216 368 OFFCURVE",
"196 389 OFFCURVE",
"196 414 CURVE SMOOTH",
"196 433 OFFCURVE",
"210 450 OFFCURVE",
"244 450 CURVE SMOOTH",
"296 450 OFFCURVE",
"326 414 OFFCURVE",
"326 378 CURVE",
"346 370 LINE",
"346 406 OFFCURVE",
"328 478 OFFCURVE",
"240 478 CURVE SMOOTH",
"194 478 OFFCURVE",
"164 451 OFFCURVE",
"164 416 CURVE SMOOTH",
"164 372 OFFCURVE",
"200 340 OFFCURVE"
);
}
);
width = 600;
}
);
},
{
glyphname = Gamma;
lastChange = "2018-01-30 22:59:42 +0000";
layers = (
{
layerId = "39876626-1A8B-482E-A4B0-28EC916B81A3";
paths = (
{
closed = 1;
nodes = (
"156 0 LINE",
"188 0 LINE",
"188 632 LINE",
"534 632 LINE",
"534 660 LINE",
"156 660 LINE"
);
}
);
width = 600;
}
);
unicode = 0393;
},
{
glyphname = Delta;
lastChange = "2018-01-30 22:59:42 +0000";
layers = (
{
layerId = "39876626-1A8B-482E-A4B0-28EC916B81A3";
paths = (
{
closed = 1;
nodes = (
"53 0 LINE",
"547 0 LINE",
"547 18 LINE",
"315 660 LINE",
"285 660 LINE",
"53 18 LINE"
);
},
{
closed = 1;
nodes = (
"89 28 LINE",
"219 392 LINE SMOOTH",
"246 468 OFFCURVE",
"270 540 OFFCURVE",
"299 622 CURVE",
"303 622 LINE",
"330 540 OFFCURVE",
"354 468 OFFCURVE",
"381 392 CURVE SMOOTH",
"511 28 LINE"
);
}
);
width = 600;
}
);
unicode = 0394;
},
{
glyphname = Theta;
lastChange = "2018-01-30 22:59:42 +0000";
layers = (
{
layerId = "39876626-1A8B-482E-A4B0-28EC916B81A3";
paths = (
{
closed = 1;
nodes = (
"300 -12 CURVE SMOOTH",
"442 -12 OFFCURVE",
"544 124 OFFCURVE",
"544 332 CURVE SMOOTH",
"544 540 OFFCURVE",
"442 672 OFFCURVE",
"300 672 CURVE SMOOTH",
"158 672 OFFCURVE",
"56 540 OFFCURVE",
"56 332 CURVE SMOOTH",
"56 124 OFFCURVE",
"158 -12 OFFCURVE"
);
},
{
closed = 1;
nodes = (
"300 18 CURVE SMOOTH",
"175 18 OFFCURVE",
"90 142 OFFCURVE",
"90 332 CURVE SMOOTH",
"90 522 OFFCURVE",
"175 642 OFFCURVE",
"300 642 CURVE SMOOTH",
"425 642 OFFCURVE",
"510 522 OFFCURVE",
"510 332 CURVE SMOOTH",
"510 142 OFFCURVE",
"425 18 OFFCURVE"
);
},
{
closed = 1;
nodes = (
"176 338 LINE",
"424 338 LINE",
"424 366 LINE",
"176 366 LINE"
);
}
);
width = 600;
}
);
unicode = 0398;
},
{
glyphname = Lambda;
lastChange = "2018-01-30 22:59:42 +0000";
layers = (
{
layerId = "39876626-1A8B-482E-A4B0-28EC916B81A3";
paths = (
{
closed = 1;
nodes = (
"65 0 LINE",
"97 0 LINE",
"225 396 LINE SMOOTH",
"251 478 OFFCURVE",
"269 538 OFFCURVE",
"297 619 CURVE",
"301 619 LINE",
"329 538 OFFCURVE",
"347 478 OFFCURVE",
"373 396 CURVE SMOOTH",
"501 0 LINE",
"535 0 LINE",
"315 660 LINE",
"283 660 LINE"
);
}
);
width = 600;
}
);
unicode = 039B;
},
{
glyphname = Xi;
lastChange = "2018-01-30 22:59:42 +0000";
layers = (
{
layerId = "39876626-1A8B-482E-A4B0-28EC916B81A3";
paths = (
{
closed = 1;
nodes = (
"74 0 LINE",
"526 0 LINE",
"526 28 LINE",
"74 28 LINE"
);
},
{
closed = 1;
nodes = (
"154 338 LINE",
"446 338 LINE",
"446 366 LINE",
"154 366 LINE"
);
},
{
closed = 1;
nodes = (
"84 632 LINE",
"516 632 LINE",
"516 660 LINE",
"84 660 LINE"
);
}
);
width = 600;
}
);
unicode = 039E;
},
{
glyphname = Pi;
lastChange = "2018-01-30 22:59:42 +0000";
layers = (
{
layerId = "39876626-1A8B-482E-A4B0-28EC916B81A3";
paths = (
{
closed = 1;
nodes = (
"92 0 LINE",
"124 0 LINE",
"124 632 LINE",
"476 632 LINE",
"476 0 LINE",
"508 0 LINE",
"508 660 LINE",
"92 660 LINE"
);
}
);
width = 600;
}
);
unicode = 03A0;
},
{
glyphname = Sigma;
lastChange = "2018-01-30 22:59:42 +0000";
layers = (
{
layerId = "39876626-1A8B-482E-A4B0-28EC916B81A3";
paths = (
{
closed = 1;
nodes = (
"84 0 LINE",
"526 0 LINE",
"526 28 LINE",
"128 28 LINE",
"364 336 LINE",
"132 632 LINE",
"494 632 LINE",
"494 660 LINE",
"90 660 LINE",
"90 642 LINE",
"330 336 LINE",
"84 18 LINE"
);
}
);
width = 600;
}
);
unicode = 03A3;
},
{
glyphname = Phi;
lastChange = "2018-01-30 22:59:42 +0000";
layers = (
{
layerId = "39876626-1A8B-482E-A4B0-28EC916B81A3";
paths = (
{
closed = 1;
nodes = (
"290 68 CURVE",
"310 68 LINE SMOOTH",
"464 68 OFFCURVE",
"564 172 OFFCURVE",
"564 332 CURVE SMOOTH",
"564 492 OFFCURVE",
"464 592 OFFCURVE",
"310 592 CURVE SMOOTH",
"290 592 LINE SMOOTH",
"136 592 OFFCURVE",
"36 492 OFFCURVE",
"36 332 CURVE SMOOTH",
"36 172 OFFCURVE",
"136 68 OFFCURVE"
);
},
{
closed = 1;
nodes = (
"290 96 LINE SMOOTH",
"154 96 OFFCURVE",
"70 192 OFFCURVE",
"70 332 CURVE SMOOTH",
"70 472 OFFCURVE",
"154 564 OFFCURVE",
"290 564 CURVE SMOOTH",
"310 564 LINE SMOOTH",
"445 564 OFFCURVE",
"530 472 OFFCURVE",
"530 332 CURVE SMOOTH",
"530 192 OFFCURVE",
"445 96 OFFCURVE",
"310 96 CURVE SMOOTH"
);
},
{
closed = 1;
nodes = (
"286 -22 LINE",
"314 -22 LINE",
"314 682 LINE",
"286 682 LINE"
);
}
);
width = 600;
}
);
unicode = 03A6;
},
{
glyphname = Psi;
lastChange = "2018-01-30 22:59:42 +0000";
layers = (
{
layerId = "39876626-1A8B-482E-A4B0-28EC916B81A3";
paths = (
{
closed = 1;
nodes = (
"288 262 CURVE",
"312 262 LINE SMOOTH",
"453 262 OFFCURVE",
"536 337 OFFCURVE",
"536 504 CURVE SMOOTH",
"536 660 LINE",
"504 660 LINE",
"504 504 LINE SMOOTH",
"504 363 OFFCURVE",
"440 290 OFFCURVE",
"312 290 CURVE SMOOTH",
"288 290 LINE SMOOTH",
"160 290 OFFCURVE",
"96 363 OFFCURVE",
"96 504 CURVE SMOOTH",
"96 660 LINE",
"64 660 LINE",
"64 504 LINE SMOOTH",
"64 337 OFFCURVE",
"147 262 OFFCURVE"
);
},
{
closed = 1;
nodes = (
"284 0 LINE",
"316 0 LINE",
"316 660 LINE",
"284 660 LINE"
);
}
);
width = 600;
}
);
unicode = 03A8;
},
{
glyphname = Omega;
lastChange = "2018-01-30 22:59:42 +0000";
layers = (
{
anchors = (
{
name = aboveUC;
position = "{300, 680}";
},
{
name = belowLC;
position = "{300, -20}";
}
);
layerId = "39876626-1A8B-482E-A4B0-28EC916B81A3";
paths = (
{
closed = 1;
nodes = (
"44 0 LINE",
"240 0 LINE",
"240 24 LINE",
"161 78 OFFCURVE",
"90 182 OFFCURVE",
"90 348 CURVE SMOOTH",
"90 514 OFFCURVE",
"164 642 OFFCURVE",
"300 642 CURVE SMOOTH",
"436 642 OFFCURVE",
"510 514 OFFCURVE",
"510 348 CURVE SMOOTH",
"510 182 OFFCURVE",
"439 78 OFFCURVE",
"360 24 CURVE",
"360 0 LINE",
"556 0 LINE",
"556 28 LINE",
"418 28 LINE",
"418 32 LINE",
"483 94 OFFCURVE",
"544 194 OFFCURVE",
"544 346 CURVE SMOOTH",
"544 532 OFFCURVE",
"452 672 OFFCURVE",
"300 672 CURVE SMOOTH",
"148 672 OFFCURVE",
"56 532 OFFCURVE",
"56 346 CURVE SMOOTH",
"56 194 OFFCURVE",
"117 94 OFFCURVE",
"182 32 CURVE",
"182 28 LINE",
"44 28 LINE"
);
}
);
width = 600;
}
);
unicode = 03A9;
},
{
glyphname = Alphatonos;
lastChange = "2018-01-30 22:59:42 +0000";
layers = (
{
components = (
{
name = tonos.cap;
transform = "{1, 0, 0, 1, -200, 0}";
}
);
layerId = "39876626-1A8B-482E-A4B0-28EC916B81A3";
paths = (
{
closed = 1;
nodes = (
"50 0 LINE",
"82 0 LINE",
"222 396 LINE SMOOTH",
"250 476 OFFCURVE",
"274 544 OFFCURVE",
"298 626 CURVE",
"302 626 LINE",
"326 544 OFFCURVE",
"350 476 OFFCURVE",
"378 396 CURVE SMOOTH",
"516 0 LINE",
"550 0 LINE",
"314 660 LINE",
"286 660 LINE"
);
},
{
closed = 1;
nodes = (
"152 236 LINE",
"445 236 LINE",
"445 264 LINE",
"152 264 LINE"
);
}
);
width = 600;
}
);
unicode = 0386;
},
{
glyphname = Epsilontonos;
lastChange = "2018-01-30 22:59:42 +0000";
layers = (
{
components = (
{
name = tonos.cap;
transform = "{1, 0, 0, 1, -220, 0}";
}
);
layerId = "39876626-1A8B-482E-A4B0-28EC916B81A3";
paths = (
{
closed = 1;
nodes = (
"192 0 LINE",
"526 0 LINE",
"526 28 LINE",
"224 28 LINE",
"224 338 LINE",
"460 338 LINE",
"460 366 LINE",
"224 366 LINE",
"224 632 LINE",
"516 632 LINE",
"516 660 LINE",
"192 660 LINE"
);
}
);
width = 600;
}
);
unicode = 0388;
},
{
glyphname = Etatonos;
lastChange = "2018-01-30 22:59:42 +0000";
layers = (
{
components = (
{
name = tonos.cap;
transform = "{1, 0, 0, 1, -220, 0}";
}
);
layerId = "39876626-1A8B-482E-A4B0-28EC916B81A3";
paths = (
{
closed = 1;
nodes = (
"192 0 LINE",
"224 0 LINE",
"224 338 LINE",
"476 338 LINE",
"476 0 LINE",
"508 0 LINE",
"508 660 LINE",
"476 660 LINE",
"476 366 LINE",
"224 366 LINE",
"224 660 LINE",
"192 660 LINE"
);
}
);
width = 600;
}
);
unicode = 0389;
},
{
glyphname = Iotatonos;
lastChange = "2018-01-30 22:59:42 +0000";
layers = (
{
components = (
{
name = tonos.cap;
transform = "{1, 0, 0, 1, -220, 0}";
}
);
layerId = "39876626-1A8B-482E-A4B0-28EC916B81A3";
paths = (
{
closed = 1;
nodes = (
"172 0 LINE",
"488 0 LINE",
"488 28 LINE",
"346 28 LINE",
"346 632 LINE",
"488 632 LINE",
"488 660 LINE",
"172 660 LINE",
"172 632 LINE",
"314 632 LINE",
"314 28 LINE",
"172 28 LINE"
);
}
);
width = 600;
}
);
unicode = 038A;
},
{
glyphname = Omicrontonos;
lastChange = "2018-01-30 22:59:42 +0000";
layers = (
{
components = (
{
name = tonos.cap;
transform = "{1, 0, 0, 1, -220, 0}";
}
);
layerId = "39876626-1A8B-482E-A4B0-28EC916B81A3";
paths = (
{
closed = 1;
nodes = (
"344 -12 CURVE SMOOTH",
"460 -12 OFFCURVE",
"544 114 OFFCURVE",
"544 332 CURVE SMOOTH",
"544 550 OFFCURVE",
"460 672 OFFCURVE",
"344 672 CURVE SMOOTH",
"227 672 OFFCURVE",
"144 550 OFFCURVE",
"144 332 CURVE SMOOTH",
"144 114 OFFCURVE",
"227 -12 OFFCURVE"
);
},
{
closed = 1;
nodes = (
"344 18 CURVE SMOOTH",
"245 18 OFFCURVE",
"178 132 OFFCURVE",
"178 332 CURVE SMOOTH",
"178 532 OFFCURVE",
"245 642 OFFCURVE",
"344 642 CURVE SMOOTH",
"442 642 OFFCURVE",
"510 532 OFFCURVE",
"510 332 CURVE SMOOTH",
"510 132 OFFCURVE",
"442 18 OFFCURVE"
);
}
);
width = 600;
}
);
unicode = 038C;
},
{
glyphname = Upsilontonos;
lastChange = "2018-01-30 22:59:42 +0000";
layers = (
{
components = (
{
name = tonos.cap;
transform = "{1, 0, 0, 1, -200, 0}";
}
);
layerId = "39876626-1A8B-482E-A4B0-28EC916B81A3";
paths = (
{
closed = 1;
nodes = (
"364 0 LINE",
"396 0 LINE",
"396 245 LINE",
"584 660 LINE",
"554 660 LINE",
"452 434 LINE SMOOTH",
"429 383 OFFCURVE",
"406 328 OFFCURVE",
"384 278 CURVE",
"380 278 LINE",
"356 328 OFFCURVE",
"333 378 OFFCURVE",
"308 434 CURVE SMOOTH",
"208 660 LINE",
"176 660 LINE",
"364 245 LINE"
);
}
);
width = 600;
}
);
unicode = 038E;
},
{
glyphname = Omegatonos;
lastChange = "2018-01-30 22:59:42 +0000";
layers = (
{
components = (
{
name = tonos.cap;
transform = "{1, 0, 0, 1, -220, 0}";
}
);
layerId = "39876626-1A8B-482E-A4B0-28EC916B81A3";
paths = (
{
closed = 1;
nodes = (
"132 0 LINE",
"288 0 LINE",
"288 24 LINE",
"220 98 OFFCURVE",
"178 208 OFFCURVE",
"178 358 CURVE SMOOTH",
"178 518 OFFCURVE",
"238 642 OFFCURVE",
"342 642 CURVE SMOOTH",
"446 642 OFFCURVE",
"506 518 OFFCURVE",
"506 358 CURVE SMOOTH",
"506 208 OFFCURVE",
"464 98 OFFCURVE",
"396 24 CURVE",
"396 0 LINE",
"552 0 LINE",
"552 28 LINE",
"440 28 LINE",
"440 32 LINE",
"506 122 OFFCURVE",
"540 220 OFFCURVE",
"540 356 CURVE SMOOTH",
"540 536 OFFCURVE",
"464 672 OFFCURVE",
"342 672 CURVE SMOOTH",
"220 672 OFFCURVE",
"144 536 OFFCURVE",
"144 356 CURVE SMOOTH",
"144 220 OFFCURVE",
"178 122 OFFCURVE",
"244 32 CURVE",
"244 28 LINE",
"132 28 LINE"
);
}
);
width = 600;
}
);
unicode = 038F;
},
{
glyphname = alpha;
lastChange = "2018-01-30 22:59:42 +0000";
layers = (
{
anchors = (
{
name = aboveLC;
position = "{320, 500}";
},
{
name = belowLC;
position = "{260, -20}";
}
);
layerId = "39876626-1A8B-482E-A4B0-28EC916B81A3";
paths = (
{
closed = 1;
nodes = (
"266 -12 CURVE SMOOTH",
"339 -12 OFFCURVE",
"396 24 OFFCURVE",
"446 100 CURVE",
"448 100 LINE",
"434 26 OFFCURVE",
"470 -12 OFFCURVE",
"518 -12 CURVE SMOOTH",
"538 -12 OFFCURVE",
"552 -6 OFFCURVE",
"562 -2 CURVE",
"555 24 LINE",
"546 20 OFFCURVE",
"532 16 OFFCURVE",
"520 16 CURVE SMOOTH",
"494 16 OFFCURVE",
"472 38 OFFCURVE",
"472 70 CURVE SMOOTH",
"472 170 OFFCURVE",
"504 340 OFFCURVE",
"530 478 CURVE",
"500 478 LINE",
"476 340 LINE",
"474 340 LINE",
"450 451 OFFCURVE",
"367 490 OFFCURVE",
"296 490 CURVE SMOOTH",
"176 490 OFFCURVE",
"70 394 OFFCURVE",
"70 225 CURVE SMOOTH",
"70 67 OFFCURVE",
"151 -12 OFFCURVE"
);
},
{
closed = 1;
nodes = (
"268 16 CURVE SMOOTH",
"163 16 OFFCURVE",
"102 99 OFFCURVE",
"102 225 CURVE SMOOTH",
"102 376 OFFCURVE",
"195 462 OFFCURVE",
"294 462 CURVE SMOOTH",
"349 462 OFFCURVE",
"428 443 OFFCURVE",
"460 298 CURVE",
"452 202 LINE SMOOTH",
"444 101 OFFCURVE",
"357 16 OFFCURVE"
);
}
);
width = 600;
}
);
unicode = 03B1;
},
{
glyphname = beta;
lastChange = "2018-01-30 22:59:42 +0000";
layers = (
{
layerId = "39876626-1A8B-482E-A4B0-28EC916B81A3";
paths = (
{
closed = 1;
nodes = (
"110 -180 LINE",
"140 -180 LINE",
"140 -94 OFFCURVE",
"140 -16 OFFCURVE",
"138 68 CURVE",
"190 9 OFFCURVE",
"263 -12 OFFCURVE",
"334 -12 CURVE SMOOTH",
"442 -12 OFFCURVE",
"532 68 OFFCURVE",
"532 188 CURVE SMOOTH",
"532 296 OFFCURVE",
"463 370 OFFCURVE",
"344 384 CURVE",
"344 388 LINE",
"425 432 OFFCURVE",
"468 492 OFFCURVE",
"468 568 CURVE SMOOTH",
"468 678 OFFCURVE",
"387 734 OFFCURVE",
"298 734 CURVE SMOOTH",
"172 734 OFFCURVE",
"110 640 OFFCURVE",
"110 512 CURVE SMOOTH"
);
},
{
closed = 1;
nodes = (
"334 16 CURVE SMOOTH",
"269 16 OFFCURVE",
"196 33 OFFCURVE",
"140 104 CURVE",
"140 236 OFFCURVE",
"140 366 OFFCURVE",
"140 498 CURVE SMOOTH",
"140 638 OFFCURVE",
"204 706 OFFCURVE",
"300 706 CURVE SMOOTH",
"374 706 OFFCURVE",
"436 660 OFFCURVE",
"436 568 CURVE SMOOTH",
"436 496 OFFCURVE",
"382 410 OFFCURVE",
"248 380 CURVE",
"256 352 LINE",
"276 356 OFFCURVE",
"296 358 OFFCURVE",
"314 358 CURVE SMOOTH",
"439 358 OFFCURVE",
"500 286 OFFCURVE",
"500 188 CURVE SMOOTH",
"500 84 OFFCURVE",
"426 16 OFFCURVE"
);
}
);
width = 600;
}
);
unicode = 03B2;
},
{
glyphname = gamma;
lastChange = "2018-01-30 22:59:42 +0000";
layers = (
{
layerId = "39876626-1A8B-482E-A4B0-28EC916B81A3";
paths = (
{
closed = 1;
nodes = (
"284 -180 CURVE",
"314 -180 LINE",
"314 -124 OFFCURVE",
"312 -56 OFFCURVE",
"306 -2 CURVE",
"432 194 OFFCURVE",
"486 316 OFFCURVE",
"520 478 CURVE",
"488 478 LINE",
"464 330 OFFCURVE",
"391 183 OFFCURVE",
"305 41 CURVE",
"301 41 LINE",
"268 203 OFFCURVE",
"186 388 OFFCURVE",
"98 490 CURVE",
"70 478 LINE",
"176 360 OFFCURVE",
"286 108 OFFCURVE",
"286 -72 CURVE SMOOTH",
"286 -114 OFFCURVE",
"286 -134 OFFCURVE"
);
}
);
width = 600;
}
);
unicode = 03B3;
},
{
glyphname = delta;
lastChange = "2018-01-30 22:59:42 +0000";
layers = (
{
layerId = "39876626-1A8B-482E-A4B0-28EC916B81A3";
paths = (
{
closed = 1;
nodes = (
"303 -12 CURVE SMOOTH",
"444 -12 OFFCURVE",
"525 80 OFFCURVE",
"525 216 CURVE SMOOTH",
"525 340 OFFCURVE",
"431 409 OFFCURVE",
"337 466 CURVE SMOOTH",
"230 531 OFFCURVE",
"163 570 OFFCURVE",
"163 636 CURVE SMOOTH",
"163 672 OFFCURVE",
"197 706 OFFCURVE",
"275 706 CURVE SMOOTH",
"329 706 OFFCURVE",
"395 699 OFFCURVE",
"511 658 CURVE",
"521 688 LINE",
"411 725 OFFCURVE",
"341 734 OFFCURVE",
"277 734 CURVE SMOOTH",
"175 734 OFFCURVE",
"131 686 OFFCURVE",
"131 634 CURVE SMOOTH",
"131 558 OFFCURVE",
"212 508 OFFCURVE",
"323 440 CURVE SMOOTH",
"412 385 OFFCURVE",
"493 322 OFFCURVE",
"493 214 CURVE SMOOTH",
"493 104 OFFCURVE",
"435 16 OFFCURVE",
"303 16 CURVE SMOOTH",
"202 16 OFFCURVE",
"107 92 OFFCURVE",
"107 206 CURVE SMOOTH",
"107 319 OFFCURVE",
"193 405 OFFCURVE",
"343 436 CURVE",
"323 458 LINE",
"184 428 OFFCURVE",
"75 339 OFFCURVE",
"75 204 CURVE SMOOTH",
"75 68 OFFCURVE",
"192 -12 OFFCURVE"
);
}
);
width = 600;
}
);
unicode = 03B4;
},
{
glyphname = epsilon;
lastChange = "2018-01-30 22:59:42 +0000";
layers = (
{
anchors = (
{
name = aboveLC;
position = "{340, 500}";
}
);
layerId = "39876626-1A8B-482E-A4B0-28EC916B81A3";
paths = (
{
closed = 1;
nodes = (
"312 -12 CURVE SMOOTH",
"401 -12 OFFCURVE",
"458 6 OFFCURVE",
"525 60 CURVE",
"508 84 LINE",
"444 30 OFFCURVE",
"392 16 OFFCURVE",
"316 16 CURVE SMOOTH",
"202 16 OFFCURVE",
"140 60 OFFCURVE",
"140 129 CURVE SMOOTH",
"140 198 OFFCURVE",
"204 238 OFFCURVE",
"326 238 CURVE SMOOTH",
"348 238 OFFCURVE",
"367 238 OFFCURVE",
"395 236 CURVE",
"395 268 LINE",
"370 266 OFFCURVE",
"358 266 OFFCURVE",
"340 266 CURVE SMOOTH",
"216 266 OFFCURVE",
"166 310 OFFCURVE",
"166 366 CURVE SMOOTH",
"166 432 OFFCURVE",
"229 462 OFFCURVE",
"316 462 CURVE SMOOTH",
"381 462 OFFCURVE",
"434 443 OFFCURVE",
"488 402 CURVE",
"504 425 LINE",
"451 467 OFFCURVE",
"392 490 OFFCURVE",
"318 490 CURVE SMOOTH",
"211 490 OFFCURVE",
"134 448 OFFCURVE",
"134 368 CURVE SMOOTH",
"134 318 OFFCURVE",
"164 277 OFFCURVE",
"216 256 CURVE",
"216 252 LINE",
"162 237 OFFCURVE",
"108 200 OFFCURVE",
"108 128 CURVE SMOOTH",
"108 46 OFFCURVE",
"180 -12 OFFCURVE"
);
}
);
width = 600;
}
);
unicode = 03B5;
},
{
glyphname = zeta;
lastChange = "2018-01-30 22:59:42 +0000";
layers = (
{
layerId = "39876626-1A8B-482E-A4B0-28EC916B81A3";
paths = (
{
closed = 1;
nodes = (
"462 -182 LINE",
"500 -134 OFFCURVE",
"516 -98 OFFCURVE",
"516 -72 CURVE SMOOTH",
"516 -14 OFFCURVE",
"461 0 OFFCURVE",
"360 18 CURVE SMOOTH",
"260 36 OFFCURVE",
"172 76 OFFCURVE",
"172 218 CURVE SMOOTH",
"172 394 OFFCURVE",
"366 590 OFFCURVE",
"516 694 CURVE",
"520 694 LINE",
"520 722 LINE",
"170 722 LINE",
"170 694 LINE",
"248 696 OFFCURVE",
"398 696 OFFCURVE",
"477 696 CURVE",
"343 607 OFFCURVE",
"140 404 OFFCURVE",
"140 218 CURVE SMOOTH",
"140 62 OFFCURVE",
"229 13 OFFCURVE",
"342 -8 CURVE SMOOTH",
"457 -30 OFFCURVE",
"486 -42 OFFCURVE",
"486 -74 CURVE SMOOTH",
"486 -102 OFFCURVE",
"476 -116 OFFCURVE",
"436 -164 CURVE"
);
}
);
width = 600;
}
);
unicode = 03B6;
},
{
glyphname = eta;
lastChange = "2018-01-30 22:59:42 +0000";
layers = (
{
anchors = (
{
name = aboveLC;
position = "{330, 500}";
},
{
name = belowLC;
position = "{130, -20}";
}
);
layerId = "39876626-1A8B-482E-A4B0-28EC916B81A3";
paths = (
{
closed = 1;
nodes = (
"470 -180 CURVE",
"500 -180 LINE",
"500 308 LINE SMOOTH",
"500 432 OFFCURVE",
"456 490 OFFCURVE",
"360 490 CURVE SMOOTH",
"275 490 OFFCURVE",
"215 464 OFFCURVE",
"152 374 CURVE",
"150 374 LINE",
"146 478 LINE",
"116 478 LINE",
"120 430 OFFCURVE",
"120 398 OFFCURVE",
"120 360 CURVE SMOOTH",
"120 0 LINE",
"150 0 LINE",
"150 334 LINE",
"230 440 OFFCURVE",
"280 462 OFFCURVE",
"357 462 CURVE SMOOTH",
"438 462 OFFCURVE",
"472 410 OFFCURVE",
"472 304 CURVE SMOOTH",
"472 143 OFFCURVE",
"472 -19 OFFCURVE"
);
}
);
width = 600;
}
);
unicode = 03B7;
},
{
glyphname = theta;
lastChange = "2018-01-30 22:59:42 +0000";
layers = (
{
layerId = "39876626-1A8B-482E-A4B0-28EC916B81A3";
paths = (
{
closed = 1;
nodes = (
"300 -12 CURVE SMOOTH",
"436 -12 OFFCURVE",
"514 98 OFFCURVE",
"514 364 CURVE SMOOTH",
"514 598 OFFCURVE",
"436 734 OFFCURVE",
"300 734 CURVE SMOOTH",
"164 734 OFFCURVE",
"86 598 OFFCURVE",
"86 364 CURVE SMOOTH",
"86 98 OFFCURVE",
"164 -12 OFFCURVE"
);
},
{
closed = 1;
nodes = (
"300 16 CURVE SMOOTH",
"193 16 OFFCURVE",
"118 114 OFFCURVE",
"118 364 CURVE SMOOTH",
"118 586 OFFCURVE",
"193 706 OFFCURVE",
"300 706 CURVE SMOOTH",
"407 706 OFFCURVE",
"482 586 OFFCURVE",
"482 364 CURVE SMOOTH",
"482 114 OFFCURVE",
"407 16 OFFCURVE"
);
},
{
closed = 1;
nodes = (
"104 352 LINE",
"496 352 LINE",
"496 380 LINE",
"104 380 LINE"
);
}
);
width = 600;
}
);
unicode = 03B8;
},
{
glyphname = iota;
lastChange = "2018-01-30 22:59:42 +0000";
layers = (
{
anchors = (
{
name = aboveLC;
position = "{286, 500}";
}
);
layerId = "39876626-1A8B-482E-A4B0-28EC916B81A3";
paths = (
{
closed = 1;
nodes = (
"406 -12 CURVE SMOOTH",
"448 -12 OFFCURVE",
"478 -2 OFFCURVE",
"512 14 CURVE",
"500 38 LINE",
"466 22 OFFCURVE",
"436 16 OFFCURVE",
"408 16 CURVE SMOOTH",
"342 16 OFFCURVE",
"308 54 OFFCURVE",
"308 132 CURVE SMOOTH",
"308 247 OFFCURVE",
"310 363 OFFCURVE",
"310 478 CURVE",
"96 478 LINE",
"96 450 LINE",
"280 450 LINE",
"280 138 LINE SMOOTH",
"280 31 OFFCURVE",
"326 -12 OFFCURVE"
);
}
);
width = 600;
}
);
unicode = 03B9;
},
{
glyphname = kappa;
lastChange = "2018-01-30 22:59:42 +0000";
layers = (
{
layerId = "39876626-1A8B-482E-A4B0-28EC916B81A3";
paths = (
{
closed = 1;
nodes = (
"130 0 LINE",
"158 0 LINE",
"158 22 LINE SMOOTH",
"158 75 OFFCURVE",
"169 126 OFFCURVE",
"192 166 CURVE SMOOTH",
"272 308 OFFCURVE",
"426 422 OFFCURVE",
"546 460 CURVE",
"540 490 LINE",
"414 448 OFFCURVE",
"249 329 OFFCURVE",
"164 172 CURVE",
"160 172 LINE",
"160 372 LINE SMOOTH",
"160 412 OFFCURVE",
"158 456 OFFCURVE",
"152 478 CURVE",
"122 478 LINE",
"130 442 OFFCURVE",
"130 398 OFFCURVE",
"130 360 CURVE SMOOTH"
);
},
{
closed = 1;
nodes = (
"536 -6 CURVE",
"570 0 LINE",
"476 101 OFFCURVE",
"366 225 OFFCURVE",
"312 333 CURVE",
"288 315 LINE",
"343 210 OFFCURVE",
"458 80 OFFCURVE"
);
}
);
width = 600;
}
);
unicode = 03BA;
},
{
glyphname = lambda;
lastChange = "2018-01-30 22:59:42 +0000";
layers = (
{
layerId = "39876626-1A8B-482E-A4B0-28EC916B81A3";
paths = (
{
closed = 1;
nodes = (
"106 -6 LINE",
"316 458 LINE",
"320 458 LINE",
"502 0 LINE",
"534 0 LINE",
"322 530 LINE SMOOTH",
"267 667 OFFCURVE",
"233 734 OFFCURVE",
"142 734 CURVE SMOOTH",
"112 734 OFFCURVE",
"88 726 OFFCURVE",
"72 718 CURVE",
"84 690 LINE",
"98 698 OFFCURVE",
"116 706 OFFCURVE",
"140 706 CURVE SMOOTH",
"214 706 OFFCURVE",
"245 653 OFFCURVE",
"292 526 CURVE",
"304 496 LINE",
"74 0 LINE"
);
}
);
width = 600;
}
);
unicode = 03BB;
},
{
glyphname = mu;
lastChange = "2018-01-30 22:59:42 +0000";
layers = (
{
layerId = "39876626-1A8B-482E-A4B0-28EC916B81A3";
paths = (
{
closed = 1;
nodes = (
"100 -180 LINE",
"130 -180 LINE",
"126 -94 OFFCURVE",
"126 -55 OFFCURVE",
"126 64 CURVE",
"159 3 OFFCURVE",
"206 -12 OFFCURVE",
"266 -12 CURVE SMOOTH",
"334 -12 OFFCURVE",
"399 22 OFFCURVE",
"448 102 CURVE",
"450 102 LINE",
"444 10 OFFCURVE",
"458 -12 OFFCURVE",
"498 -12 CURVE SMOOTH",
"509 -12 OFFCURVE",
"516 -10 OFFCURVE",
"524 -8 CURVE",
"518 18 LINE",
"508 16 OFFCURVE",
"504 16 OFFCURVE",
"500 16 CURVE SMOOTH",
"488 16 OFFCURVE",
"478 26 OFFCURVE",
"478 46 CURVE SMOOTH",
"478 190 OFFCURVE",
"479 334 OFFCURVE",
"480 478 CURVE",
"450 478 LINE",
"450 144 LINE",
"382 29 OFFCURVE",
"320 16 OFFCURVE",
"262 16 CURVE SMOOTH",
"168 16 OFFCURVE",
"130 80 OFFCURVE",
"130 184 CURVE SMOOTH",
"130 478 LINE",
"100 478 LINE"
);
}
);
width = 600;
}
);
unicode = 03BC;
},
{
glyphname = nu;
lastChange = "2018-01-30 22:59:42 +0000";
layers = (
{
layerId = "39876626-1A8B-482E-A4B0-28EC916B81A3";
paths = (
{
closed = 1;
nodes = (
"285 0 CURVE",
"319 0 LINE",
"419 162 OFFCURVE",
"502 314 OFFCURVE",
"525 478 CURVE",
"493 478 LINE",
"479 334 OFFCURVE",
"387 166 OFFCURVE",
"309 32 CURVE",
"305 32 LINE",
"271 204 OFFCURVE",
"182 374 OFFCURVE",
"93 490 CURVE",
"65 478 LINE",
"160 352 OFFCURVE",
"243 194 OFFCURVE"
);
}
);
width = 600;
}
);
unicode = 03BD;
},
{
glyphname = xi;
lastChange = "2018-01-30 22:59:42 +0000";
layers = (
{
layerId = "39876626-1A8B-482E-A4B0-28EC916B81A3";
paths = (
{
closed = 1;
nodes = (
"466 -182 LINE",
"504 -134 OFFCURVE",
"520 -98 OFFCURVE",
"520 -72 CURVE SMOOTH",
"520 -14 OFFCURVE",
"465 0 OFFCURVE",
"364 18 CURVE SMOOTH",
"264 36 OFFCURVE",
"166 68 OFFCURVE",
"166 186 CURVE SMOOTH",
"166 308 OFFCURVE",
"277 374 OFFCURVE",
"378 374 CURVE SMOOTH",
"406 374 OFFCURVE",
"422 375 OFFCURVE",
"448 370 CURVE",
"448 404 LINE",
"420 399 OFFCURVE",
"408 400 OFFCURVE",
"380 400 CURVE SMOOTH",
"312 400 OFFCURVE",
"216 458 OFFCURVE",
"216 548 CURVE SMOOTH",
"216 642 OFFCURVE",
"295 694 OFFCURVE",
"373 694 CURVE SMOOTH",
"520 694 LINE",
"520 722 LINE",
"118 722 LINE",
"118 694 LINE",
"187 696 OFFCURVE",
"218 696 OFFCURVE",
"287 696 CURVE",
"224 667 OFFCURVE",
"184 620 OFFCURVE",
"184 548 CURVE SMOOTH",
"184 470 OFFCURVE",
"239 422 OFFCURVE",
"304 394 CURVE",
"304 390 LINE",
"213 366 OFFCURVE",
"134 290 OFFCURVE",
"134 186 CURVE SMOOTH",
"134 56 OFFCURVE",
"233 13 OFFCURVE",
"346 -8 CURVE SMOOTH",
"462 -29 OFFCURVE",
"490 -42 OFFCURVE",
"490 -74 CURVE SMOOTH",
"490 -102 OFFCURVE",
"480 -116 OFFCURVE",
"440 -164 CURVE"
);
}
);
width = 600;
}
);
unicode = 03BE;
},
{
glyphname = omicron;
lastChange = "2018-01-30 22:59:42 +0000";
layers = (
{
anchors = (
{
name = aboveLC;
position = "{300, 500}";
}
);
layerId = "39876626-1A8B-482E-A4B0-28EC916B81A3";
paths = (
{
closed = 1;
nodes = (
"300 -12 CURVE SMOOTH",
"425 -12 OFFCURVE",
"526 80 OFFCURVE",
"526 238 CURVE SMOOTH",
"526 398 OFFCURVE",
"425 490 OFFCURVE",
"300 490 CURVE SMOOTH",
"175 490 OFFCURVE",
"74 398 OFFCURVE",
"74 238 CURVE SMOOTH",
"74 80 OFFCURVE",
"175 -12 OFFCURVE"
);
},
{
closed = 1;
nodes = (
"300 16 CURVE SMOOTH",
"186 16 OFFCURVE",
"106 106 OFFCURVE",
"106 238 CURVE SMOOTH",
"106 370 OFFCURVE",
"186 462 OFFCURVE",
"300 462 CURVE SMOOTH",
"414 462 OFFCURVE",
"494 370 OFFCURVE",
"494 238 CURVE SMOOTH",
"494 106 OFFCURVE",
"414 16 OFFCURVE"
);
}
);
width = 600;
}
);
unicode = 03BF;
},
{
glyphname = pi;
lastChange = "2018-01-30 22:59:42 +0000";
layers = (
{
layerId = "39876626-1A8B-482E-A4B0-28EC916B81A3";
paths = (
{
closed = 1;
nodes = (
"496 -12 CURVE SMOOTH",
"513 -12 OFFCURVE",
"522 -8 OFFCURVE",
"534 -4 CURVE",
"528 22 LINE",
"512 18 OFFCURVE",
"504 16 OFFCURVE",
"498 16 CURVE SMOOTH",
"466 16 OFFCURVE",
"452 32 OFFCURVE",
"452 66 CURVE SMOOTH",
"452 132 OFFCURVE",
"454 319 OFFCURVE",
"460 448 CURVE",
"560 448 LINE",
"560 478 LINE",
"106 478 LINE",
"40 474 LINE",
"40 448 LINE",
"144 448 LINE",
"144 300 OFFCURVE",
"142 150 OFFCURVE",
"128 0 CURVE",
"158 -2 LINE",
"168 148 OFFCURVE",
"172 298 OFFCURVE",
"172 448 CURVE",
"430 448 LINE",
"428 323 OFFCURVE",
"424 138 OFFCURVE",
"424 72 CURVE SMOOTH",
"424 12 OFFCURVE",
"447 -12 OFFCURVE"
);
}
);
width = 600;
}
);
unicode = 03C0;
},
{
glyphname = rho;
lastChange = "2018-01-30 22:59:42 +0000";
layers = (
{
anchors = (
{
name = aboveLC;
position = "{340, 500}";
}
);
layerId = "39876626-1A8B-482E-A4B0-28EC916B81A3";
paths = (
{
closed = 1;
nodes = (
"110 -180 LINE",
"140 -180 LINE",
"140 -84 OFFCURVE",
"140 -28 OFFCURVE",
"138 68 CURVE",
"192 5 OFFCURVE",
"252 -12 OFFCURVE",
"318 -12 CURVE SMOOTH",
"426 -12 OFFCURVE",
"530 84 OFFCURVE",
"530 246 CURVE SMOOTH",
"530 394 OFFCURVE",
"461 490 OFFCURVE",
"322 490 CURVE SMOOTH",
"210 490 OFFCURVE",
"110 410 OFFCURVE",
"110 257 CURVE SMOOTH"
);
},
{
closed = 1;
nodes = (
"320 16 CURVE SMOOTH",
"263 16 OFFCURVE",
"200 27 OFFCURVE",
"140 102 CURVE",
"140 244 LINE SMOOTH",
"140 396 OFFCURVE",
"228 462 OFFCURVE",
"320 462 CURVE SMOOTH",
"447 462 OFFCURVE",
"498 368 OFFCURVE",
"498 246 CURVE SMOOTH",
"498 112 OFFCURVE",
"419 16 OFFCURVE"
);
}
);
width = 600;
}
);
unicode = 03C1;
},
{
glyphname = sigma;
lastChange = "2018-01-30 22:59:42 +0000";
layers = (
{
layerId = "39876626-1A8B-482E-A4B0-28EC916B81A3";
paths = (
{
closed = 1;
nodes = (
"294 -12 CURVE SMOOTH",
"413 -12 OFFCURVE",
"514 76 OFFCURVE",
"514 234 CURVE SMOOTH",
"514 338 OFFCURVE",
"470 410 OFFCURVE",
"398 450 CURVE",
"398 454 LINE",
"456 454 OFFCURVE",
"510 452 OFFCURVE",
"568 448 CURVE",
"568 478 LINE",
"296 478 LINE SMOOTH",
"178 478 OFFCURVE",
"70 404 OFFCURVE",
"70 234 CURVE SMOOTH",
"70 76 OFFCURVE",
"175 -12 OFFCURVE"
);
},
{
closed = 1;
nodes = (
"294 16 CURVE SMOOTH",
"187 16 OFFCURVE",
"102 102 OFFCURVE",
"102 234 CURVE SMOOTH",
"102 376 OFFCURVE",
"189 450 OFFCURVE",
"296 450 CURVE SMOOTH",
"415 450 OFFCURVE",
"482 346 OFFCURVE",
"482 234 CURVE SMOOTH",
"482 102 OFFCURVE",
"401 16 OFFCURVE"
);
}
);
width = 600;
}
);
unicode = 03C3;
},
{
glyphname = tau;
lastChange = "2018-01-30 22:59:42 +0000";
layers = (
{
layerId = "39876626-1A8B-482E-A4B0-28EC916B81A3";
paths = (
{
closed = 1;
nodes = (
"369 -12 CURVE SMOOTH",
"395 -12 OFFCURVE",
"421 -7 OFFCURVE",
"433 -2 CURVE",
"427 24 LINE",
"411 19 OFFCURVE",
"390 16 OFFCURVE",
"371 16 CURVE SMOOTH",
"330 16 OFFCURVE",
"313 38 OFFCURVE",
"313 86 CURVE SMOOTH",
"313 208 OFFCURVE",
"313 328 OFFCURVE",
"315 450 CURVE",
"521 450 LINE",
"521 478 LINE",
"145 478 LINE",
"79 474 LINE",
"79 450 LINE",
"285 450 LINE",
"285 92 LINE SMOOTH",
"285 18 OFFCURVE",
"307 -12 OFFCURVE"
);
}
);
width = 600;
}
);
unicode = 03C4;
},
{
glyphname = upsilon;
lastChange = "2018-01-30 22:59:42 +0000";
layers = (
{
anchors = (
{
name = aboveLC;
position = "{300, 500}";
}
);
layerId = "39876626-1A8B-482E-A4B0-28EC916B81A3";
paths = (
{
closed = 1;
nodes = (
"294 -12 CURVE SMOOTH",
"413 -12 OFFCURVE",
"518 74 OFFCURVE",
"518 249 CURVE SMOOTH",
"518 331 OFFCURVE",
"502 408 OFFCURVE",
"470 490 CURVE",
"440 480 LINE",
"474 398 OFFCURVE",
"486 325 OFFCURVE",
"486 250 CURVE SMOOTH",
"486 90 OFFCURVE",
"400 16 OFFCURVE",
"296 16 CURVE SMOOTH",
"205 16 OFFCURVE",
"122 57 OFFCURVE",
"122 186 CURVE SMOOTH",
"122 237 OFFCURVE",
"128 312 OFFCURVE",
"128 372 CURVE SMOOTH",
"128 412 OFFCURVE",
"128 444 OFFCURVE",
"122 478 CURVE",
"92 478 LINE",
"98 430 OFFCURVE",
"98 398 OFFCURVE",
"98 360 CURVE SMOOTH",
"98 302 OFFCURVE",
"94 243 OFFCURVE",
"94 185 CURVE SMOOTH",
"94 39 OFFCURVE",
"184 -12 OFFCURVE"
);
}
);
width = 600;
}
);
unicode = 03C5;
},
{
glyphname = phi;
lastChange = "2018-01-30 22:59:42 +0000";
layers = (
{
layerId = "39876626-1A8B-482E-A4B0-28EC916B81A3";
paths = (
{
closed = 1;
nodes = (
"291 -10 CURVE",
"291 16 LINE",
"173 16 OFFCURVE",
"90 104 OFFCURVE",
"90 240 CURVE SMOOTH",
"90 376 OFFCURVE",
"173 462 OFFCURVE",
"291 462 CURVE",
"291 488 LINE",
"161 488 OFFCURVE",
"58 400 OFFCURVE",
"58 240 CURVE SMOOTH",
"58 80 OFFCURVE",
"161 -10 OFFCURVE"
);
},
{
closed = 1;
nodes = (
"309 -10 LINE",
"439 -10 OFFCURVE",
"542 80 OFFCURVE",
"542 240 CURVE SMOOTH",
"542 400 OFFCURVE",
"439 488 OFFCURVE",
"309 488 CURVE",
"309 462 LINE",
"427 462 OFFCURVE",
"510 376 OFFCURVE",
"510 240 CURVE SMOOTH",
"510 104 OFFCURVE",
"427 16 OFFCURVE",
"309 16 CURVE"
);
},
{
closed = 1;
nodes = (
"285 -180 LINE",
"315 -180 LINE",
"315 618 LINE",
"285 618 LINE"
);
}
);
width = 600;
}
);
unicode = 03C6;
},
{
glyphname = chi;
lastChange = "2018-01-30 22:59:42 +0000";
layers = (
{
layerId = "39876626-1A8B-482E-A4B0-28EC916B81A3";
paths = (
{
closed = 1;
nodes = (
"96 -192 LINE",
"298 134 LINE",
"302 134 LINE",
"516 -192 LINE",
"544 -180 LINE",
"316 160 LINE",
"510 478 LINE",
"476 478 LINE",
"302 190 LINE",
"298 190 LINE",
"104 490 LINE",
"74 478 LINE",
"284 162 LINE",
"68 -180 LINE"
);
}
);
width = 600;
}
);
unicode = 03C7;
},
{
glyphname = psi;
lastChange = "2018-01-30 22:59:42 +0000";
layers = (
{
layerId = "39876626-1A8B-482E-A4B0-28EC916B81A3";
paths = (
{
closed = 1;
nodes = (
"287 -12 CURVE",
"289 16 LINE",
"176 16 OFFCURVE",
"109 86 OFFCURVE",
"109 212 CURVE SMOOTH",
"109 238 OFFCURVE",
"111 308 OFFCURVE",
"111 372 CURVE SMOOTH",
"111 412 OFFCURVE",
"111 444 OFFCURVE",
"107 478 CURVE",
"77 478 LINE",
"81 430 OFFCURVE",
"81 398 OFFCURVE",
"81 360 CURVE SMOOTH",
"81 211 LINE SMOOTH",
"81 68 OFFCURVE",
"158 -12 OFFCURVE"
);
},
{
closed = 1;
nodes = (
"299 -12 LINE",
"438 -12 OFFCURVE",
"530 84 OFFCURVE",
"530 254 CURVE SMOOTH",
"530 343 OFFCURVE",
"515 402 OFFCURVE",
"481 490 CURVE",
"451 480 LINE",
"487 392 OFFCURVE",
"498 337 OFFCURVE",
"498 254 CURVE SMOOTH",
"498 100 OFFCURVE",
"424 16 OFFCURVE",
"301 16 CURVE"
);
},
{
closed = 1;
nodes = (
"286 -180 LINE",
"314 -180 LINE",
"314 618 LINE",
"286 618 LINE"
);
}
);
width = 600;
}
);
unicode = 03C8;
},
{
glyphname = omega;
lastChange = "2018-01-30 22:59:42 +0000";
layers = (
{
anchors = (
{
name = aboveLC;
position = "{300, 500}";
},
{
name = belowLC;
position = "{300, -20}";
}
);
layerId = "39876626-1A8B-482E-A4B0-28EC916B81A3";
paths = (
{
closed = 1;
nodes = (
"186 -12 CURVE SMOOTH",
"234 -12 OFFCURVE",
"276 17 OFFCURVE",
"298 72 CURVE",
"302 72 LINE",
"324 17 OFFCURVE",
"366 -12 OFFCURVE",
"414 -12 CURVE SMOOTH",
"494 -12 OFFCURVE",
"554 55 OFFCURVE",
"554 212 CURVE SMOOTH",
"554 334 OFFCURVE",
"516 408 OFFCURVE",
"458 490 CURVE",
"432 474 LINE",
"492 389 OFFCURVE",
"522 326 OFFCURVE",
"522 212 CURVE SMOOTH",
"522 75 OFFCURVE",
"476 16 OFFCURVE",
"412 16 CURVE SMOOTH",
"366 16 OFFCURVE",
"314 48 OFFCURVE",
"314 160 CURVE SMOOTH",
"314 196 OFFCURVE",
"314 242 OFFCURVE",
"318 290 CURVE",
"280 290 LINE",
"284 242 OFFCURVE",
"284 196 OFFCURVE",
"284 160 CURVE SMOOTH",
"284 48 OFFCURVE",
"234 16 OFFCURVE",
"188 16 CURVE SMOOTH",
"129 16 OFFCURVE",
"76 80 OFFCURVE",
"76 206 CURVE SMOOTH",
"76 324 OFFCURVE",
"110 393 OFFCURVE",
"170 472 CURVE",
"146 490 LINE",
"90 411 OFFCURVE",
"46 330 OFFCURVE",
"46 210 CURVE SMOOTH",
"46 58 OFFCURVE",
"112 -12 OFFCURVE"
);
}
);
width = 600;
}
);
unicode = 03C9;
},
{
glyphname = sigma.end;
lastChange = "2018-01-30 22:59:42 +0000";
layers = (
{
layerId = "39876626-1A8B-482E-A4B0-28EC916B81A3";
paths = (
{
closed = 1;
nodes = (
"420 -176 LINE",
"458 -128 OFFCURVE",
"480 -84 OFFCURVE",
"480 -52 CURVE SMOOTH",
"480 4 OFFCURVE",
"452 25 OFFCURVE",
"344 46 CURVE SMOOTH",
"235 67 OFFCURVE",
"136 112 OFFCURVE",
"136 252 CURVE SMOOTH",
"136 378 OFFCURVE",
"223 462 OFFCURVE",
"338 462 CURVE SMOOTH",
"406 462 OFFCURVE",
"449 438 OFFCURVE",
"492 398 CURVE",
"512 420 LINE",
"471 458 OFFCURVE",
"424 490 OFFCURVE",
"338 490 CURVE SMOOTH",
"213 490 OFFCURVE",
"104 406 OFFCURVE",
"104 252 CURVE SMOOTH",
"104 98 OFFCURVE",
"208 42 OFFCURVE",
"326 20 CURVE SMOOTH",
"438 -1 OFFCURVE",
"450 -22 OFFCURVE",
"450 -54 CURVE SMOOTH",
"450 -85 OFFCURVE",
"434 -110 OFFCURVE",
"394 -158 CURVE"
);
}
);
width = 600;
}
);
unicode = 03C2;
},
{
glyphname = beta.a;
lastChange = "2018-01-30 22:59:42 +0000";
layers = (
{
layerId = "39876626-1A8B-482E-A4B0-28EC916B81A3";
paths = (
{
closed = 1;
nodes = (
"330 -12 CURVE SMOOTH",
"445 -12 OFFCURVE",
"532 72 OFFCURVE",
"532 182 CURVE SMOOTH",
"532 296 OFFCURVE",
"464 374 OFFCURVE",
"334 384 CURVE",
"334 388 LINE",
"419 432 OFFCURVE",
"468 492 OFFCURVE",
"468 568 CURVE SMOOTH",
"468 679 OFFCURVE",
"385 734 OFFCURVE",
"300 734 CURVE SMOOTH",
"172 734 OFFCURVE",
"110 641 OFFCURVE",
"110 512 CURVE SMOOTH",
"110 212 LINE SMOOTH",
"110 42 OFFCURVE",
"237 -12 OFFCURVE"
);
},
{
closed = 1;
nodes = (
"330 16 CURVE SMOOTH",
"268 16 OFFCURVE",
"140 50 OFFCURVE",
"140 224 CURVE SMOOTH",
"140 320 OFFCURVE",
"140 366 OFFCURVE",
"140 498 CURVE SMOOTH",
"140 641 OFFCURVE",
"204 706 OFFCURVE",
"302 706 CURVE SMOOTH",
"374 706 OFFCURVE",
"436 660 OFFCURVE",
"436 568 CURVE SMOOTH",
"436 464 OFFCURVE",
"343 389 OFFCURVE",
"126 357 CURVE",
"134 329 LINE",
"240 356 OFFCURVE",
"296 358 OFFCURVE",
"316 358 CURVE SMOOTH",
"442 358 OFFCURVE",
"500 283 OFFCURVE",
"500 182 CURVE SMOOTH",
"500 90 OFFCURVE",
"431 16 OFFCURVE"
);
}
);
width = 600;
}
);
unicode = 03D0;
},
{
glyphname = theta.a;
lastChange = "2018-01-30 22:59:42 +0000";
layers = (
{
layerId = "39876626-1A8B-482E-A4B0-28EC916B81A3";
paths = (
{
closed = 1;
nodes = (
"296 -12 CURVE SMOOTH",
"413 -12 OFFCURVE",
"514 64 OFFCURVE",
"514 368 CURVE SMOOTH",
"514 614 OFFCURVE",
"438 734 OFFCURVE",
"280 734 CURVE SMOOTH",
"182 734 OFFCURVE",
"97 670 OFFCURVE",
"97 561 CURVE SMOOTH",
"97 444 OFFCURVE",
"197 312 OFFCURVE",
"490 360 CURVE",
"492 388 LINE",
"209 340 OFFCURVE",
"131 458 OFFCURVE",
"131 563 CURVE SMOOTH",
"131 655 OFFCURVE",
"198 706 OFFCURVE",
"280 706 CURVE SMOOTH",
"408 706 OFFCURVE",
"482 608 OFFCURVE",
"482 368 CURVE SMOOTH",
"482 90 OFFCURVE",
"400 16 OFFCURVE",
"298 16 CURVE SMOOTH",
"220 16 OFFCURVE",
"144 57 OFFCURVE",
"144 186 CURVE SMOOTH",
"144 245 OFFCURVE",
"145 274 OFFCURVE",
"138 298 CURVE",
"110 298 LINE",
"115 266 OFFCURVE",
"116 242 OFFCURVE",
"116 185 CURVE SMOOTH",
"116 39 OFFCURVE",
"199 -12 OFFCURVE"
);
}
);
width = 600;
}
);
unicode = 03D1;
},
{
glyphname = phi.a;
lastChange = "2018-01-30 22:59:42 +0000";
layers = (
{
layerId = "39876626-1A8B-482E-A4B0-28EC916B81A3";
paths = (
{
closed = 1;
nodes = (
"286 -180 LINE",
"314 -180 LINE",
"312 -15 OFFCURVE",
"312 149 OFFCURVE",
"312 314 CURVE SMOOTH",
"312 424 OFFCURVE",
"353 462 OFFCURVE",
"404 462 CURVE SMOOTH",
"471 462 OFFCURVE",
"520 368 OFFCURVE",
"520 246 CURVE SMOOTH",
"520 112 OFFCURVE",
"427 16 OFFCURVE",
"310 16 CURVE",
"308 -10 LINE",
"437 -10 OFFCURVE",
"552 84 OFFCURVE",
"552 246 CURVE SMOOTH",
"552 394 OFFCURVE",
"499 490 OFFCURVE",
"406 490 CURVE SMOOTH",
"336 490 OFFCURVE",
"286 438 OFFCURVE",
"286 327 CURVE SMOOTH"
);
},
{
closed = 1;
nodes = (
"292 -10 CURVE",
"292 16 LINE",
"183 16 OFFCURVE",
"78 86 OFFCURVE",
"78 226 CURVE SMOOTH",
"78 336 OFFCURVE",
"116 399 OFFCURVE",
"182 472 CURVE",
"158 490 LINE",
"96 417 OFFCURVE",
"48 342 OFFCURVE",
"48 230 CURVE SMOOTH",
"48 64 OFFCURVE",
"169 -10 OFFCURVE"
);
}
);
width = 600;
}
);
unicode = 03D5;
},
{
glyphname = kai;
lastChange = "2018-01-30 22:59:42 +0000";
layers = (
{
components = (
{
name = kappa;
}
);
layerId = "39876626-1A8B-482E-A4B0-28EC916B81A3";
paths = (
{
closed = 1;
nodes = (
"430 -186 LINE",
"476 -134 OFFCURVE",
"526 -70 OFFCURVE",
"570 0 CURVE",
"540 0 LINE",
"500 -60 OFFCURVE",
"452 -124 OFFCURVE",
"396 -180 CURVE"
);
}
);
width = 600;
}
);
unicode = 03D7;
},
{
glyphname = koppa;
lastChange = "2018-01-30 22:59:42 +0000";
layers = (
{
layerId = "39876626-1A8B-482E-A4B0-28EC916B81A3";
paths = (
{
closed = 1;
nodes = (
"300 -12 CURVE SMOOTH",
"429 -12 OFFCURVE",
"526 78 OFFCURVE",
"526 238 CURVE SMOOTH",
"526 400 OFFCURVE",
"429 490 OFFCURVE",
"300 490 CURVE SMOOTH",
"171 490 OFFCURVE",
"74 400 OFFCURVE",
"74 238 CURVE SMOOTH",
"74 78 OFFCURVE",
"171 -12 OFFCURVE"
);
},
{
closed = 1;
nodes = (
"300 16 CURVE SMOOTH",
"182 16 OFFCURVE",
"106 104 OFFCURVE",
"106 238 CURVE SMOOTH",
"106 372 OFFCURVE",
"182 462 OFFCURVE",
"300 462 CURVE SMOOTH",
"418 462 OFFCURVE",
"494 372 OFFCURVE",
"494 238 CURVE SMOOTH",
"494 104 OFFCURVE",
"418 16 OFFCURVE"
);
},
{
closed = 1;
nodes = (
"288 -180 LINE",
"318 -180 LINE",
"318 -94 OFFCURVE",
"318 -76 OFFCURVE",
"316 8 CURVE",
"288 7 LINE"
);
}
);
width = 600;
}
);
unicode = 03D9;
},
{
glyphname = stigma;
lastChange = "2018-01-30 22:59:42 +0000";
layers = (
{
layerId = "39876626-1A8B-482E-A4B0-28EC916B81A3";
paths = (
{
closed = 1;
nodes = (
"420 -176 LINE",
"458 -128 OFFCURVE",
"480 -84 OFFCURVE",
"480 -52 CURVE SMOOTH",
"480 4 OFFCURVE",
"452 24 OFFCURVE",
"344 46 CURVE SMOOTH",
"234 68 OFFCURVE",
"136 110 OFFCURVE",
"136 246 CURVE SMOOTH",
"136 379 OFFCURVE",
"223 450 OFFCURVE",
"360 450 CURVE SMOOTH",
"422 450 OFFCURVE",
"466 450 OFFCURVE",
"498 448 CURVE",
"498 478 LINE",
"360 478 LINE SMOOTH",
"214 478 OFFCURVE",
"104 407 OFFCURVE",
"104 246 CURVE SMOOTH",
"104 96 OFFCURVE",
"206 44 OFFCURVE",
"326 20 CURVE SMOOTH",
"438 -2 OFFCURVE",
"450 -22 OFFCURVE",
"450 -54 CURVE SMOOTH",
"450 -85 OFFCURVE",
"434 -110 OFFCURVE",
"394 -158 CURVE"
);
}
);
width = 600;
}
);
unicode = 03DB;
},
{
glyphname = digamma;
lastChange = "2018-01-30 22:59:42 +0000";
layers = (
{
layerId = "39876626-1A8B-482E-A4B0-28EC916B81A3";
paths = (
{
closed = 1;
nodes = (
"170 -180 LINE",
"200 -180 LINE",
"200 -59 OFFCURVE",
"200 44 OFFCURVE",
"200 158 CURVE",
"480 158 LINE",
"480 186 LINE",
"200 186 LINE",
"198 450 LINE",
"520 450 LINE",
"520 478 LINE",
"170 478 LINE"
);
}
);
width = 600;
}
);
unicode = 03DD;
},
{
glyphname = sampi;
lastChange = "2018-01-30 22:59:42 +0000";
layers = (
{
layerId = "39876626-1A8B-482E-A4B0-28EC916B81A3";
paths = (
{
closed = 1;
nodes = (
"485 -178 LINE",
"498 -114 OFFCURVE",
"502 -54 OFFCURVE",
"502 14 CURVE SMOOTH",
"502 288 OFFCURVE",
"366 554 OFFCURVE",
"132 682 CURVE",
"116 658 LINE",
"340 542 OFFCURVE",
"474 280 OFFCURVE",
"474 14 CURVE SMOOTH",
"474 -48 OFFCURVE",
"470 -110 OFFCURVE",
"456 -173 CURVE"
);
},
{
closed = 1;
nodes = (
"173 58 LINE",
"283 110 OFFCURVE",
"372 149 OFFCURVE",
"476 197 CURVE",
"472 226 LINE",
"160 83 LINE"
);
},
{
closed = 1;
nodes = (
"103 218 LINE",
"213 270 OFFCURVE",
"302 309 OFFCURVE",
"406 357 CURVE",
"402 386 LINE",
"90 243 LINE"
);
}
);
width = 600;
}
);
unicode = 03E1;
},
{
glyphname = numeralsign;
lastChange = "2018-01-30 22:59:42 +0000";
layers = (
{
layerId = "39876626-1A8B-482E-A4B0-28EC916B81A3";
paths = (
{
closed = 1;
nodes = (
"278 498 LINE",
"298 498 LINE",
"322 630 LINE",
"330 694 LINE",
"302 694 LINE"
);
}
);
width = 600;
}
);
unicode = 0374;
},
{
glyphname = lownumeralsign;
lastChange = "2018-01-30 22:59:42 +0000";
layers = (
{
layerId = "39876626-1A8B-482E-A4B0-28EC916B81A3";
paths = (
{
closed = 1;
nodes = (
"270 0 LINE",
"298 0 LINE",
"322 196 LINE",
"302 196 LINE",
"278 64 LINE"
);
}
);
width = 600;
}
);
unicode = 0375;
},
{
glyphname = tonos.cap;
lastChange = "2018-01-30 22:59:42 +0000";
layers = (
{
layerId = "39876626-1A8B-482E-A4B0-28EC916B81A3";
paths = (
{
closed = 1;
nodes = (
"290 424 LINE",
"334 686 LINE",
"292 690 LINE",
"264 428 LINE"
);
}
);
width = 600;
}
);
},
{
glyphname = iotaadscript;
lastChange = "2018-01-30 22:59:42 +0000";
layers = (
{
layerId = "39876626-1A8B-482E-A4B0-28EC916B81A3";
paths = (
{
closed = 1;
nodes = (
"335 -12 CURVE SMOOTH",
"350 -12 OFFCURVE",
"362 -8 OFFCURVE",
"371 -4 CURVE",
"365 22 LINE",
"353 18 OFFCURVE",
"346 16 OFFCURVE",
"337 16 CURVE SMOOTH",
"321 16 OFFCURVE",
"309 28 OFFCURVE",
"309 52 CURVE SMOOTH",
"309 172 OFFCURVE",
"309 278 OFFCURVE",
"311 398 CURVE",
"281 398 LINE",
"281 58 LINE SMOOTH",
"281 8 OFFCURVE",
"301 -12 OFFCURVE"
);
}
);
width = 600;
}
);
unicode = 1FBE;
},
{
glyphname = lenis.cap;
lastChange = "2018-01-30 22:59:42 +0000";
layers = (
{
layerId = "39876626-1A8B-482E-A4B0-28EC916B81A3";
paths = (
{
closed = 1;
nodes = (
"273 486 LINE",
"317 504 OFFCURVE",
"361 528 OFFCURVE",
"361 590 CURVE SMOOTH",
"361 647 OFFCURVE",
"305 670 OFFCURVE",
"247 672 CURVE",
"245 646 LINE",
"299 646 OFFCURVE",
"331 624 OFFCURVE",
"331 586 CURVE SMOOTH",
"331 546 OFFCURVE",
"303 524 OFFCURVE",
"265 508 CURVE"
);
}
);
width = 600;
}
);
},
{
glyphname = asper.cap;
lastChange = "2018-01-30 22:59:42 +0000";
layers = (
{
layerId = "39876626-1A8B-482E-A4B0-28EC916B81A3";
paths = (
{
closed = 1;
nodes = (
"333 486 CURVE",
"341 508 LINE",
"303 524 OFFCURVE",
"275 546 OFFCURVE",
"275 586 CURVE SMOOTH",
"275 624 OFFCURVE",
"307 646 OFFCURVE",
"361 646 CURVE",
"359 672 LINE",
"301 670 OFFCURVE",
"245 647 OFFCURVE",
"245 590 CURVE SMOOTH",
"245 528 OFFCURVE",
"289 504 OFFCURVE"
);
}
);
width = 600;
}
);
},
{
glyphname = varia.cap;
lastChange = "2018-01-30 22:59:42 +0000";
layers = (
{
layerId = "39876626-1A8B-482E-A4B0-28EC916B81A3";
paths = (
{
closed = 1;
nodes = (
"310 484 LINE",
"334 490 LINE",
"304 670 LINE",
"268 664 LINE"
);
}
);
width = 600;
}
);
},
{
glyphname = lenisgrave.cap;
lastChange = "2018-01-30 22:59:42 +0000";
layers = (
{
layerId = "39876626-1A8B-482E-A4B0-28EC916B81A3";
paths = (
{
closed = 1;
nodes = (
"231 486 LINE",
"265 506 OFFCURVE",
"299 538 OFFCURVE",
"299 586 CURVE SMOOTH",
"299 646 OFFCURVE",
"253 670 OFFCURVE",
"205 672 CURVE",
"203 646 LINE",
"245 644 OFFCURVE",
"269 624 OFFCURVE",
"269 582 CURVE SMOOTH",
"269 552 OFFCURVE",
"247 526 OFFCURVE",
"219 508 CURVE"
);
},
{
closed = 1;
nodes = (
"383 484 LINE",
"407 490 LINE",
"377 670 LINE",
"341 664 LINE"
);
}
);
width = 600;
}
);
},
{
glyphname = aspergrave.cap;
lastChange = "2018-01-30 22:59:42 +0000";
layers = (
{
layerId = "39876626-1A8B-482E-A4B0-28EC916B81A3";
paths = (
{
closed = 1;
nodes = (
"274 486 CURVE",
"286 508 LINE",
"258 526 OFFCURVE",
"236 552 OFFCURVE",
"236 582 CURVE SMOOTH",
"236 624 OFFCURVE",
"260 644 OFFCURVE",
"302 646 CURVE",
"300 672 LINE",
"252 670 OFFCURVE",
"206 646 OFFCURVE",
"206 586 CURVE SMOOTH",
"206 538 OFFCURVE",
"240 506 OFFCURVE"
);
},
{
closed = 1;
nodes = (
"380 484 LINE",
"404 490 LINE",
"374 670 LINE",
"338 664 LINE"
);
}
);
width = 600;
}
);
},
{
glyphname = lenisacute.cap;
lastChange = "2018-01-30 22:59:42 +0000";
layers = (
{
layerId = "39876626-1A8B-482E-A4B0-28EC916B81A3";
paths = (
{
closed = 1;
nodes = (
"231 486 LINE",
"265 506 OFFCURVE",
"299 538 OFFCURVE",
"299 586 CURVE SMOOTH",
"299 646 OFFCURVE",
"253 670 OFFCURVE",
"205 672 CURVE",
"203 646 LINE",
"245 644 OFFCURVE",
"269 624 OFFCURVE",
"269 582 CURVE SMOOTH",
"269 552 OFFCURVE",
"247 526 OFFCURVE",
"219 508 CURVE"
);
},
{
closed = 1;
nodes = (
"363 484 LINE",
"405 664 LINE",
"369 670 LINE",
"339 490 LINE"
);
}
);
width = 600;
}
);
},
{
glyphname = asperacute.cap;
lastChange = "2018-01-30 22:59:42 +0000";
layers = (
{
layerId = "39876626-1A8B-482E-A4B0-28EC916B81A3";
paths = (
{
closed = 1;
nodes = (
"274 486 CURVE",
"286 508 LINE",
"258 526 OFFCURVE",
"236 552 OFFCURVE",
"236 582 CURVE SMOOTH",
"236 624 OFFCURVE",
"260 644 OFFCURVE",
"302 646 CURVE",
"300 672 LINE",
"252 670 OFFCURVE",
"206 646 OFFCURVE",
"206 586 CURVE SMOOTH",
"206 538 OFFCURVE",
"240 506 OFFCURVE"
);
},
{
closed = 1;
nodes = (
"336 490 LINE",
"360 484 LINE",
"402 664 LINE",
"366 670 LINE"
);
}
);
width = 600;
}
);
},
{
glyphname = lenistilde.cap;
lastChange = "2018-01-30 22:59:42 +0000";
layers = (
{
layerId = "39876626-1A8B-482E-A4B0-28EC916B81A3";
paths = (
{
closed = 1;
nodes = (
"348 612 CURVE SMOOTH",
"388 612 OFFCURVE",
"402 639 OFFCURVE",
"404 668 CURVE",
"380 672 LINE",
"378 644 OFFCURVE",
"363 638 OFFCURVE",
"346 638 CURVE SMOOTH",
"310 638 OFFCURVE",
"302 674 OFFCURVE",
"252 674 CURVE SMOOTH",
"212 674 OFFCURVE",
"198 647 OFFCURVE",
"196 618 CURVE",
"220 614 LINE",
"222 642 OFFCURVE",
"237 648 OFFCURVE",
"254 648 CURVE SMOOTH",
"290 648 OFFCURVE",
"298 612 OFFCURVE"
);
},
{
closed = 1;
nodes = (
"280 468 LINE",
"314 478 OFFCURVE",
"354 498 OFFCURVE",
"354 532 CURVE SMOOTH",
"354 573 OFFCURVE",
"306 588 OFFCURVE",
"254 590 CURVE",
"252 566 LINE",
"300 565 OFFCURVE",
"324 552 OFFCURVE",
"324 528 CURVE SMOOTH",
"324 512 OFFCURVE",
"302 498 OFFCURVE",
"272 490 CURVE"
);
}
);
width = 600;
}
);
},
{
glyphname = aspertilde.cap;
lastChange = "2018-01-30 22:59:42 +0000";
layers = (
{
layerId = "39876626-1A8B-482E-A4B0-28EC916B81A3";
paths = (
{
closed = 1;
nodes = (
"320 468 CURVE",
"328 490 LINE",
"298 498 OFFCURVE",
"276 512 OFFCURVE",
"276 528 CURVE SMOOTH",
"276 552 OFFCURVE",
"300 565 OFFCURVE",
"348 566 CURVE",
"346 590 LINE",
"294 588 OFFCURVE",
"246 573 OFFCURVE",
"246 532 CURVE SMOOTH",
"246 498 OFFCURVE",
"286 478 OFFCURVE"
);
},
{
closed = 1;
nodes = (
"348 612 CURVE SMOOTH",
"388 612 OFFCURVE",
"402 639 OFFCURVE",
"404 668 CURVE",
"380 672 LINE",
"378 644 OFFCURVE",
"363 638 OFFCURVE",
"346 638 CURVE SMOOTH",
"310 638 OFFCURVE",
"302 674 OFFCURVE",
"252 674 CURVE SMOOTH",
"212 674 OFFCURVE",
"198 647 OFFCURVE",
"196 618 CURVE",
"220 614 LINE",
"222 642 OFFCURVE",
"237 648 OFFCURVE",
"254 648 CURVE SMOOTH",
"290 648 OFFCURVE",
"298 612 OFFCURVE"
);
}
);
width = 600;
}
);
},
{
glyphname = Be;
lastChange = "2018-01-30 22:59:42 +0000";
layers = (
{
layerId = "39876626-1A8B-482E-A4B0-28EC916B81A3";
paths = (
{
closed = 1;
nodes = (
"120 0 LINE",
"306 0 LINE SMOOTH",
"456 0 OFFCURVE",
"534 66 OFFCURVE",
"534 192 CURVE SMOOTH",
"534 314 OFFCURVE",
"444 366 OFFCURVE",
"302 366 CURVE SMOOTH",
"152 366 LINE",
"152 632 LINE",
"490 632 LINE",
"490 660 LINE",
"120 660 LINE"
);
},
{
closed = 1;
nodes = (
"152 28 LINE",
"152 338 LINE",
"290 338 LINE SMOOTH",
"430 338 OFFCURVE",
"502 294 OFFCURVE",
"502 190 CURVE SMOOTH",
"502 78 OFFCURVE",
"432 28 OFFCURVE",
"294 28 CURVE SMOOTH"
);
}
);
width = 600;
}
);
unicode = 0411;
},
{
glyphname = De;
lastChange = "2018-01-30 22:59:42 +0000";
layers = (
{
layerId = "39876626-1A8B-482E-A4B0-28EC916B81A3";
paths = (
{
closed = 1;
nodes = (
"36 -188 LINE",
"62 -188 LINE",
"62 0 LINE",
"538 0 LINE",
"538 -188 LINE",
"564 -188 LINE",
"570 12 LINE",
"570 28 LINE",
"30 28 LINE",
"30 12 LINE"
);
},
{
closed = 1;
nodes = (
"470 0 LINE",
"502 0 LINE",
"502 660 LINE",
"214 660 LINE",
"190 506 OFFCURVE",
"176 415 OFFCURVE",
"150 272 CURVE SMOOTH",
"116 86 OFFCURVE",
"86 40 OFFCURVE",
"60 28 CURVE",
"86 14 LINE",
"114 30 OFFCURVE",
"144 68 OFFCURVE",
"180 264 CURVE SMOOTH",
"205 399 OFFCURVE",
"216 494 OFFCURVE",
"240 632 CURVE",
"470 632 LINE"
);
}
);
width = 600;
}
);
unicode = 0414;
},
